<svg width="15px" height="10px" viewBox="0 0 15 10" version="1.1" xmlns="http://www.w3.org/2000/svg" xmlns:xlink="http://www.w3.org/1999/xlink">
  <g stroke="none" stroke-width="1" fill="currentColor" fill-rule="evenodd">
      <g id="arrow-left" transform="translate(7.500000, 5.000000) rotate(-180.000000) translate(-7.500000, -5.000000) ">
          <path d="M0,5 C0,4.72385763 0.223857625,4.5 0.5,4.5 L12.293,4.5 L9.146,1.354 C8.95049121,1.1584912 8.95049122,0.841508812 9.14600002,0.646000017 C9.34150881,0.450491222 9.6584912,0.450491214 9.854,0.646 L13.854,4.646 C13.9480417,4.73980426 14.0008938,4.86717274 14.0008938,5 C14.0008938,5.13282726 13.9480417,5.26019574 13.854,5.354 L9.854,9.354 C9.6584912,9.54950879 9.34150881,9.54950878 9.14600001,9.35399999 C8.95049122,9.15849119 8.95049121,8.8415088 9.146,8.646 L12.293,5.5 L0.5,5.5 C0.223857625,5.5 0,5.27614237 0,5 Z" id="Shape"></path>
      </g>
  </g>
</svg>
