<svg xmlns="http://www.w3.org/2000/svg" width="18" height="20" viewBox="0 0 18 20"><path d="M10.302 18.236a6.058 6.058 0 01-8.546 0 5.995 5.995 0 010-8.478l8.496-8.438a4.556 4.556 0 016.414 0 4.466 4.466 0 010 6.36L8.87 15.416a3 3 0 01-4.272 0 2.998 2.998 0 010-4.25L9.54 6.27a.5.5 0 01.71 0l.541.53a.5.5 0 010 .71l-4.943 4.9a1.26 1.26 0 001.781 1.77l7.795-7.73a2.736 2.736 0 000-3.889 2.783 2.783 0 00-3.923 0L2.987 11a4.245 4.245 0 000 5.998 4.325 4.325 0 006.054 0l5.654-5.609a.51.51 0 01.72 0l.531.53a.482.482 0 010 .7l-5.644 5.618z" fill-rule="evenodd"/></svg>
