<svg xmlns="http://www.w3.org/2000/svg" width="16" height="16" viewBox="0 0 16 16"><path d="M8.217.003a7.948 7.948 0 013.78 1.068c3.823 2.207 5.14 7.109 2.932 10.932-2.207 3.823-7.109 5.132-10.932 2.924C.174 12.72-1.135 7.826 1.073 4.003a8.004 8.004 0 017.144-4zm-.015.484a7.556 7.556 0 00-3.455.735c-.32.934-.376 1.94-.386 2.417-.018.83.367 1.356.727 1.94.515.834 1.572 1.312 1.697 1.939.242 1.212.351 2.912 1.697 2.91.58 0 .93-.417 1.212-.97.696-1.373.243-2.404.485-3.637.239-1.216 1.455-1.559 1.455-2.667 0-.647-.227-1.387-.546-2A7.474 7.474 0 008.202.487zM3.406 10.912c-.703.043-1.588.195-2.144.417a7.464 7.464 0 002.568 2.924c.297-.15.673-.373 1.03-.674 1.327-1.184.785-2.667-1.454-2.667z" fill-rule="evenodd"/></svg>
