<svg xmlns="http://www.w3.org/2000/svg" width="23" height="23" viewBox="0 0 23 23">
  <path fill-rule="evenodd" d="M12.5355339,0 C18.0583814,0 22.5355339,4.4771525 22.5355339,10 C22.5355339,15.5228475 18.0583814,20 12.5355339,20 C10.134175,20 7.93050986,19.1535722 6.20661104,17.7427889 L1.41421356,22.5355339 L9.9475983e-14,21.1213203 L4.79192829,16.3279248 C3.3816351,14.6041735 2.53553391,12.4008955 2.53553391,10 C2.53553391,4.4771525 7.01268641,0 12.5355339,0 Z M12.5355339,2 C8.11725591,2 4.53553391,5.581722 4.53553391,10 C4.53553391,14.418278 8.11725591,18 12.5355339,18 C16.9538119,18 20.5355339,14.418278 20.5355339,10 C20.5355339,5.581722 16.9538119,2 12.5355339,2 Z"/>
</svg>
