<?xml version="1.0" encoding="utf-8"?>
<!-- Generator: Adobe Illustrator 25.4.1, SVG Export Plug-In . SVG Version: 6.00 Build 0)  -->
<svg version="1.1" id="Layer_1" xmlns="http://www.w3.org/2000/svg" xmlns:xlink="http://www.w3.org/1999/xlink" x="0px" y="0px"
	 width="1312px" height="427px" viewBox="0 0 1312 427" style="enable-background:new 0 0 1312 427;" xml:space="preserve">
<style type="text/css">
	.st0{fill:#9E005D;}
	.st1{fill:none;stroke:#9E005D;stroke-width:4;stroke-miterlimit:10;}
	.st2{fill:#5B37BF;}
	.st3{fill:none;stroke:#5B37BF;stroke-width:4;stroke-miterlimit:10;}
	.st4{fill:#9C7AFF;}
	.st5{fill:none;stroke:#9C7AFF;stroke-width:4;stroke-miterlimit:10;}
	.st6{fill:none;stroke:#9C7AFF;stroke-width:4;stroke-linejoin:round;stroke-miterlimit:10;}
	.st7{fill:#FFFFFF;}
	.st8{fill:none;stroke:#5B37BF;stroke-width:4;stroke-linejoin:round;stroke-miterlimit:10;}
	.st9{font-family:'MyriadPro-Regular';}
	.st10{font-size:28px;}
</style>
<g>
	<circle class="st0" cx="93" cy="233.1" r="26.6"/>
	<circle class="st1" cx="93" cy="233.1" r="42.2"/>
</g>
<g>
	<circle class="st0" cx="262.3" cy="266.4" r="18.7"/>
	<circle class="st1" cx="262.3" cy="266.4" r="29.7"/>
	<circle class="st2" cx="329.5" cy="266.2" r="18.7"/>
	<circle class="st3" cx="329.5" cy="266.2" r="29.7"/>
	<circle class="st2" cx="262.2" cy="199.7" r="18.7"/>
	<circle class="st3" cx="262.2" cy="199.7" r="29.7"/>
	<circle class="st2" cx="329.5" cy="199.7" r="18.7"/>
	<circle class="st3" cx="329.5" cy="199.7" r="29.7"/>
</g>
<g>
	<circle class="st0" cx="477.4" cy="303.2" r="12.9"/>
	<circle class="st1" cx="477.4" cy="303.2" r="20.4"/>
	<circle class="st2" cx="523.6" cy="303.2" r="12.9"/>
	<circle class="st3" cx="523.6" cy="303.2" r="20.4"/>
	<circle class="st2" cx="477.4" cy="256.4" r="12.9"/>
	<circle class="st3" cx="477.4" cy="256.4" r="20.4"/>
	<circle class="st2" cx="523.6" cy="256.4" r="12.9"/>
	<circle class="st3" cx="523.6" cy="256.4" r="20.4"/>
	<circle class="st4" cx="571.3" cy="303.2" r="12.9"/>
	<circle class="st5" cx="571.3" cy="303.2" r="20.4"/>
	<circle class="st4" cx="617.6" cy="303.2" r="12.9"/>
	<circle class="st5" cx="617.6" cy="303.2" r="20.4"/>
	<circle class="st4" cx="571.3" cy="256.4" r="12.9"/>
	<circle class="st5" cx="571.3" cy="256.4" r="20.4"/>
	<circle class="st4" cx="617.6" cy="256.4" r="12.9"/>
	<circle class="st5" cx="617.6" cy="256.4" r="20.4"/>
	<circle class="st4" cx="477.4" cy="209.7" r="12.9"/>
	<circle class="st5" cx="477.4" cy="209.7" r="20.4"/>
	<circle class="st4" cx="523.6" cy="209.7" r="12.9"/>
	<circle class="st5" cx="523.6" cy="209.7" r="20.4"/>
	<circle class="st4" cx="477.4" cy="163" r="12.9"/>
	<circle class="st5" cx="477.4" cy="163" r="20.4"/>
	<circle class="st4" cx="523.6" cy="163" r="12.9"/>
	<circle class="st5" cx="523.6" cy="163" r="20.4"/>
	<circle class="st4" cx="571.3" cy="209.7" r="12.9"/>
	<circle class="st5" cx="571.3" cy="209.7" r="20.4"/>
	<circle class="st4" cx="617.6" cy="209.7" r="12.9"/>
	<circle class="st5" cx="617.6" cy="209.7" r="20.4"/>
	<circle class="st4" cx="571.3" cy="163" r="12.9"/>
	<circle class="st5" cx="571.3" cy="163" r="20.4"/>
	<circle class="st4" cx="617.6" cy="163" r="12.9"/>
	<circle class="st5" cx="617.6" cy="163" r="20.4"/>
</g>
<g>
	<g>
		<path class="st6" d="M735.5,362.6c0,5.5,4.5,10,10,10h176c5.5,0,10-4.5,10-10v-259c0-5.5-4.5-10-10-10h-176c-5.5,0-10,4.5-10,10
			V362.6z"/>
	</g>
	<rect x="755.5" y="120.6" class="st4" width="156" height="34"/>
	<rect x="755.6" y="242.6" class="st4" width="46" height="46"/>
	<rect x="810.3" y="242.6" class="st4" width="46" height="46"/>
	<rect x="865" y="242.6" class="st4" width="46" height="46"/>
	<rect x="755.4" y="296.8" class="st4" width="46" height="46"/>
	<rect x="810.1" y="296.8" class="st4" width="46" height="46"/>
	<rect x="864.8" y="296.8" class="st4" width="46" height="46"/>
	<rect x="755" y="168.6" class="st4" width="156" height="5"/>
	<rect x="755" y="179.6" class="st4" width="156" height="5"/>
	<rect x="755" y="190.6" class="st4" width="156" height="5"/>
	<rect x="755" y="201.6" class="st4" width="156" height="5"/>
	<rect x="755" y="212.6" class="st4" width="156" height="5"/>
	<rect x="755" y="223.6" class="st4" width="156" height="5"/>
</g>
<g>
	<g>
		<g>
			<polygon class="st7" points="1084.4,315.6 1084.4,315.6 1238.2,315.6 1238.2,315.6 1238.2,96.7 1238.2,96.7 1084.4,96.7 
				1084.4,96.7 			"/>
			<polygon class="st8" points="1084.4,315.6 1084.4,315.6 1238.2,315.6 1238.2,315.6 1238.2,96.7 1238.2,96.7 1084.4,96.7 
				1084.4,96.7 			"/>
		</g>
		<rect x="1084.6" y="97.3" class="st2" width="153.8" height="29.8"/>
		<rect x="1084.4" y="274" class="st2" width="153.8" height="42.4"/>
		<rect x="1103.9" y="134" class="st2" width="114.8" height="25"/>
		<rect x="1104" y="223.8" class="st2" width="33.8" height="33.8"/>
		<rect x="1144.2" y="223.8" class="st2" width="33.8" height="33.8"/>
		<rect x="1184.4" y="223.8" class="st2" width="33.8" height="33.8"/>
		<rect x="1103.8" y="263.7" class="st2" width="33.8" height="33.8"/>
		<rect x="1144" y="263.7" class="st2" width="33.8" height="33.8"/>
		<rect x="1184.2" y="263.7" class="st2" width="33.8" height="33.8"/>
		<rect x="1103.5" y="169.4" class="st2" width="114.8" height="3.7"/>
		<rect x="1103.5" y="177.5" class="st2" width="114.8" height="3.7"/>
		<rect x="1103.5" y="185.5" class="st2" width="114.8" height="3.7"/>
		<rect x="1103.5" y="193.6" class="st2" width="114.8" height="3.7"/>
		<rect x="1103.5" y="201.7" class="st2" width="114.8" height="3.7"/>
		<rect x="1103.5" y="209.8" class="st2" width="114.8" height="3.7"/>
	</g>
	<g>
		<g>
			<polygon class="st7" points="1029,368.6 1029,368.6 1182.8,368.6 1182.8,368.6 1182.8,149.7 1182.8,149.7 1029,149.7 1029,149.7 
							"/>
			<polygon class="st6" points="1029,368.6 1029,368.6 1182.8,368.6 1182.8,368.6 1182.8,149.7 1182.8,149.7 1029,149.7 1029,149.7 
							"/>
		</g>
		<rect x="1029.2" y="150.3" class="st4" width="153.8" height="29.8"/>
		<rect x="1029" y="327.1" class="st4" width="153.8" height="42.4"/>
		<rect x="1048.4" y="187.1" class="st4" width="114.8" height="25"/>
		<rect x="1048.5" y="276.8" class="st4" width="33.8" height="33.8"/>
		<rect x="1088.7" y="276.8" class="st4" width="33.8" height="33.8"/>
		<rect x="1129" y="276.8" class="st4" width="33.8" height="33.8"/>
		<rect x="1048.3" y="316.8" class="st4" width="33.8" height="33.8"/>
		<rect x="1088.6" y="316.8" class="st4" width="33.8" height="33.8"/>
		<rect x="1128.8" y="316.8" class="st4" width="33.8" height="33.8"/>
		<rect x="1048" y="222.4" class="st4" width="114.8" height="3.7"/>
		<rect x="1048" y="230.5" class="st4" width="114.8" height="3.7"/>
		<rect x="1048" y="238.6" class="st4" width="114.8" height="3.7"/>
		<rect x="1048" y="246.6" class="st4" width="114.8" height="3.7"/>
		<rect x="1048" y="254.7" class="st4" width="114.8" height="3.7"/>
		<rect x="1048" y="262.8" class="st4" width="114.8" height="3.7"/>
	</g>
	<circle class="st7" cx="1106.1" cy="165.2" r="9"/>
	<circle class="st7" cx="1162.5" cy="112.2" r="9"/>
</g>
<text transform="matrix(1 0 0 1 49.1484 70.957)" class="st2 st9 st10">ATOMS</text>
<text transform="matrix(1 0 0 1 226.0473 70.9572)" class="st2 st9 st10">MOLECULES</text>
<text transform="matrix(1 0 0 1 473.6127 70.9572)" class="st2 st9 st10">ORGANISMS</text>
<text transform="matrix(1 0 0 1 764.5468 70.9572)" class="st2 st9 st10">TEMPLATES</text>
<text transform="matrix(1 0 0 1 1099.1704 70.9572)" class="st2 st9 st10">PAGES</text>
</svg>
