<?xml version="1.0" encoding="utf-8"?>
<!-- Generator: Adobe Illustrator 25.4.1, SVG Export Plug-In . SVG Version: 6.00 Build 0)  -->
<svg version="1.1" id="Layer_1" xmlns="http://www.w3.org/2000/svg" xmlns:xlink="http://www.w3.org/1999/xlink" x="0px" y="0px"
	 width="1312px" height="427px" viewBox="0 0 1312 427" style="enable-background:new 0 0 1312 427;" xml:space="preserve">
<style type="text/css">
	.st0{fill:#9E005D;}
	.st1{fill:none;stroke:#9E005D;stroke-width:4;stroke-miterlimit:10;}
	.st2{fill:#5B37BF;}
	.st3{fill:none;stroke:#5B37BF;stroke-width:4;stroke-miterlimit:10;}
	.st4{fill:#9C7AFF;}
	.st5{fill:none;stroke:#9C7AFF;stroke-width:4;stroke-miterlimit:10;}
	.st6{fill:none;stroke:#9C7AFF;stroke-width:4;stroke-linejoin:round;stroke-miterlimit:10;}
	.st7{fill:#FFFFFF;}
	.st8{fill:none;stroke:#5B37BF;stroke-width:4;stroke-linejoin:round;stroke-miterlimit:10;}
</style>
<g>
	<circle class="st0" cx="93" cy="233.1" r="26.6"/>
	<circle class="st1" cx="93" cy="233.1" r="42.2"/>
</g>
<g>
	<circle class="st0" cx="262.3" cy="266.4" r="18.7"/>
	<circle class="st1" cx="262.3" cy="266.4" r="29.7"/>
	<circle class="st2" cx="329.5" cy="266.2" r="18.7"/>
	<circle class="st3" cx="329.5" cy="266.2" r="29.7"/>
	<circle class="st2" cx="262.2" cy="199.7" r="18.7"/>
	<circle class="st3" cx="262.2" cy="199.7" r="29.7"/>
	<circle class="st2" cx="329.5" cy="199.7" r="18.7"/>
	<circle class="st3" cx="329.5" cy="199.7" r="29.7"/>
</g>
<g>
	<circle class="st0" cx="477.4" cy="303.2" r="12.9"/>
	<circle class="st1" cx="477.4" cy="303.2" r="20.4"/>
	<circle class="st2" cx="523.6" cy="303.2" r="12.9"/>
	<circle class="st3" cx="523.6" cy="303.2" r="20.4"/>
	<circle class="st2" cx="477.4" cy="256.4" r="12.9"/>
	<circle class="st3" cx="477.4" cy="256.4" r="20.4"/>
	<circle class="st2" cx="523.6" cy="256.4" r="12.9"/>
	<circle class="st3" cx="523.6" cy="256.4" r="20.4"/>
	<circle class="st4" cx="571.3" cy="303.2" r="12.9"/>
	<circle class="st5" cx="571.3" cy="303.2" r="20.4"/>
	<circle class="st4" cx="617.6" cy="303.2" r="12.9"/>
	<circle class="st5" cx="617.6" cy="303.2" r="20.4"/>
	<circle class="st4" cx="571.3" cy="256.4" r="12.9"/>
	<circle class="st5" cx="571.3" cy="256.4" r="20.4"/>
	<circle class="st4" cx="617.6" cy="256.4" r="12.9"/>
	<circle class="st5" cx="617.6" cy="256.4" r="20.4"/>
	<circle class="st4" cx="477.4" cy="209.7" r="12.9"/>
	<circle class="st5" cx="477.4" cy="209.7" r="20.4"/>
	<circle class="st4" cx="523.6" cy="209.7" r="12.9"/>
	<circle class="st5" cx="523.6" cy="209.7" r="20.4"/>
	<circle class="st4" cx="477.4" cy="163" r="12.9"/>
	<circle class="st5" cx="477.4" cy="163" r="20.4"/>
	<circle class="st4" cx="523.6" cy="163" r="12.9"/>
	<circle class="st5" cx="523.6" cy="163" r="20.4"/>
	<circle class="st4" cx="571.3" cy="209.7" r="12.9"/>
	<circle class="st5" cx="571.3" cy="209.7" r="20.4"/>
	<circle class="st4" cx="617.6" cy="209.7" r="12.9"/>
	<circle class="st5" cx="617.6" cy="209.7" r="20.4"/>
	<circle class="st4" cx="571.3" cy="163" r="12.9"/>
	<circle class="st5" cx="571.3" cy="163" r="20.4"/>
	<circle class="st4" cx="617.6" cy="163" r="12.9"/>
	<circle class="st5" cx="617.6" cy="163" r="20.4"/>
</g>
<g>
	<g>
		<path class="st6" d="M735.5,362.6c0,5.5,4.5,10,10,10h176c5.5,0,10-4.5,10-10v-259c0-5.5-4.5-10-10-10h-176c-5.5,0-10,4.5-10,10
			V362.6z"/>
	</g>
	<rect x="755.5" y="120.6" class="st4" width="156" height="34"/>
	<rect x="755.6" y="242.6" class="st4" width="46" height="46"/>
	<rect x="810.3" y="242.6" class="st4" width="46" height="46"/>
	<rect x="865" y="242.6" class="st4" width="46" height="46"/>
	<rect x="755.4" y="296.8" class="st4" width="46" height="46"/>
	<rect x="810.1" y="296.8" class="st4" width="46" height="46"/>
	<rect x="864.8" y="296.8" class="st4" width="46" height="46"/>
	<rect x="755" y="168.6" class="st4" width="156" height="5"/>
	<rect x="755" y="179.6" class="st4" width="156" height="5"/>
	<rect x="755" y="190.6" class="st4" width="156" height="5"/>
	<rect x="755" y="201.6" class="st4" width="156" height="5"/>
	<rect x="755" y="212.6" class="st4" width="156" height="5"/>
	<rect x="755" y="223.6" class="st4" width="156" height="5"/>
</g>
<g>
	<g>
		<g>
			<polygon class="st7" points="1084.4,315.6 1084.4,315.6 1238.2,315.6 1238.2,315.6 1238.2,96.7 1238.2,96.7 1084.4,96.7 
				1084.4,96.7 			"/>
			<polygon class="st8" points="1084.4,315.6 1084.4,315.6 1238.2,315.6 1238.2,315.6 1238.2,96.7 1238.2,96.7 1084.4,96.7 
				1084.4,96.7 			"/>
		</g>
		<rect x="1084.6" y="97.3" class="st2" width="153.8" height="29.8"/>
		<rect x="1084.4" y="274" class="st2" width="153.8" height="42.4"/>
		<rect x="1103.9" y="134" class="st2" width="114.8" height="25"/>
		<rect x="1104" y="223.8" class="st2" width="33.8" height="33.8"/>
		<rect x="1144.2" y="223.8" class="st2" width="33.8" height="33.8"/>
		<rect x="1184.4" y="223.8" class="st2" width="33.8" height="33.8"/>
		<rect x="1103.8" y="263.7" class="st2" width="33.8" height="33.8"/>
		<rect x="1144" y="263.7" class="st2" width="33.8" height="33.8"/>
		<rect x="1184.2" y="263.7" class="st2" width="33.8" height="33.8"/>
		<rect x="1103.5" y="169.4" class="st2" width="114.8" height="3.7"/>
		<rect x="1103.5" y="177.5" class="st2" width="114.8" height="3.7"/>
		<rect x="1103.5" y="185.5" class="st2" width="114.8" height="3.7"/>
		<rect x="1103.5" y="193.6" class="st2" width="114.8" height="3.7"/>
		<rect x="1103.5" y="201.7" class="st2" width="114.8" height="3.7"/>
		<rect x="1103.5" y="209.8" class="st2" width="114.8" height="3.7"/>
	</g>
	<g>
		<g>
			<polygon class="st7" points="1029,368.6 1029,368.6 1182.8,368.6 1182.8,368.6 1182.8,149.7 1182.8,149.7 1029,149.7 1029,149.7 
							"/>
			<polygon class="st6" points="1029,368.6 1029,368.6 1182.8,368.6 1182.8,368.6 1182.8,149.7 1182.8,149.7 1029,149.7 1029,149.7 
							"/>
		</g>
		<rect x="1029.2" y="150.3" class="st4" width="153.8" height="29.8"/>
		<rect x="1029" y="327.1" class="st4" width="153.8" height="42.4"/>
		<rect x="1048.4" y="187.1" class="st4" width="114.8" height="25"/>
		<rect x="1048.5" y="276.8" class="st4" width="33.8" height="33.8"/>
		<rect x="1088.7" y="276.8" class="st4" width="33.8" height="33.8"/>
		<rect x="1129" y="276.8" class="st4" width="33.8" height="33.8"/>
		<rect x="1048.3" y="316.8" class="st4" width="33.8" height="33.8"/>
		<rect x="1088.6" y="316.8" class="st4" width="33.8" height="33.8"/>
		<rect x="1128.8" y="316.8" class="st4" width="33.8" height="33.8"/>
		<rect x="1048" y="222.4" class="st4" width="114.8" height="3.7"/>
		<rect x="1048" y="230.5" class="st4" width="114.8" height="3.7"/>
		<rect x="1048" y="238.6" class="st4" width="114.8" height="3.7"/>
		<rect x="1048" y="246.6" class="st4" width="114.8" height="3.7"/>
		<rect x="1048" y="254.7" class="st4" width="114.8" height="3.7"/>
		<rect x="1048" y="262.8" class="st4" width="114.8" height="3.7"/>
	</g>
	<circle class="st7" cx="1106.1" cy="165.2" r="9"/>
	<circle class="st7" cx="1162.5" cy="112.2" r="9"/>
</g>
<g>
	<path class="st2" d="M55.8,65l-2,5.9h-2.5l6.4-18.9h2.9L67.1,71h-2.6l-2-5.9H55.8z M62,63.1l-1.8-5.4c-0.4-1.2-0.7-2.4-1-3.4h-0.1
		c-0.3,1.1-0.6,2.3-1,3.4l-1.8,5.5H62z"/>
	<path class="st2" d="M71.3,54.2h-5.7v-2.1h14v2.1h-5.8V71h-2.5V54.2z"/>
	<path class="st2" d="M97,61.3c0,6.5-3.9,9.9-8.8,9.9c-5,0-8.5-3.9-8.5-9.6c0-6,3.7-9.9,8.8-9.9C93.7,51.8,97,55.7,97,61.3z
		 M82.4,61.6c0,4,2.2,7.6,6,7.6c3.9,0,6-3.6,6-7.8c0-3.8-2-7.7-6-7.7C84.4,53.8,82.4,57.5,82.4,61.6z"/>
	<path class="st2" d="M116.1,62.7c-0.1-2.6-0.3-5.8-0.3-8.1h-0.1c-0.6,2.2-1.4,4.6-2.4,7.2l-3.3,9.2h-1.8l-3.1-9
		c-0.9-2.7-1.7-5.1-2.2-7.3h-0.1c-0.1,2.4-0.2,5.5-0.4,8.3L102,71h-2.3l1.3-18.9h3.1l3.2,9.1c0.8,2.3,1.4,4.4,1.9,6.4h0.1
		c0.5-1.9,1.1-4,2-6.4l3.4-9.1h3.1l1.2,18.9h-2.4L116.1,62.7z"/>
	<path class="st2" d="M122.3,68c1.1,0.7,2.7,1.2,4.4,1.2c2.5,0,3.9-1.3,3.9-3.2c0-1.8-1-2.8-3.6-3.8c-3.1-1.1-5-2.7-5-5.3
		c0-2.9,2.4-5.1,6.1-5.1c1.9,0,3.3,0.4,4.2,0.9l-0.7,2c-0.6-0.3-1.9-0.9-3.6-0.9c-2.6,0-3.6,1.5-3.6,2.8c0,1.8,1.1,2.6,3.8,3.6
		c3.2,1.2,4.8,2.8,4.8,5.5c0,2.9-2.2,5.4-6.6,5.4c-1.8,0-3.8-0.5-4.8-1.2L122.3,68z"/>
</g>
<g>
	<path class="st2" d="M244.1,62.7c-0.1-2.6-0.3-5.8-0.3-8.1h-0.1c-0.6,2.2-1.4,4.6-2.4,7.2l-3.3,9.2h-1.8l-3.1-9
		c-0.9-2.7-1.7-5.1-2.2-7.3h-0.1c-0.1,2.4-0.2,5.5-0.4,8.3L230,71h-2.3l1.3-18.9h3.1l3.2,9.1c0.8,2.3,1.4,4.4,1.9,6.4h0.1
		c0.5-1.9,1.1-4,2-6.4l3.4-9.1h3.1l1.2,18.9h-2.4L244.1,62.7z"/>
	<path class="st2" d="M266.8,61.3c0,6.5-3.9,9.9-8.8,9.9c-5,0-8.5-3.9-8.5-9.6c0-6,3.7-9.9,8.8-9.9
		C263.5,51.8,266.8,55.7,266.8,61.3z M252.2,61.6c0,4,2.2,7.6,6,7.6c3.9,0,6-3.6,6-7.8c0-3.8-2-7.7-6-7.7
		C254.2,53.8,252.2,57.5,252.2,61.6z"/>
	<path class="st2" d="M270,52.1h2.4v16.8h8.1v2H270V52.1z"/>
	<path class="st2" d="M293,62.1h-7.3v6.8h8.2v2h-10.6V52.1h10.2v2h-7.8v6h7.3V62.1z"/>
	<path class="st2" d="M310.2,70.3c-0.9,0.4-2.7,0.9-5,0.9c-5.3,0-9.3-3.4-9.3-9.5c0-5.9,4-9.9,9.9-9.9c2.4,0,3.8,0.5,4.5,0.8l-0.6,2
		c-0.9-0.4-2.2-0.8-3.8-0.8c-4.4,0-7.4,2.8-7.4,7.8c0,4.6,2.7,7.6,7.3,7.6c1.5,0,3-0.3,4-0.8L310.2,70.3z"/>
	<path class="st2" d="M315.6,52.1v11.2c0,4.2,1.9,6,4.4,6c2.8,0,4.6-1.8,4.6-6V52.1h2.5v11c0,5.8-3.1,8.2-7.1,8.2
		c-3.9,0-6.8-2.2-6.8-8.1V52.1H315.6z"/>
	<path class="st2" d="M331.3,52.1h2.4v16.8h8.1v2h-10.5V52.1z"/>
	<path class="st2" d="M354.3,62.1H347v6.8h8.2v2h-10.6V52.1h10.2v2H347v6h7.3V62.1z"/>
	<path class="st2" d="M358,68c1.1,0.7,2.7,1.2,4.4,1.2c2.5,0,3.9-1.3,3.9-3.2c0-1.8-1-2.8-3.6-3.8c-3.1-1.1-5-2.7-5-5.3
		c0-2.9,2.4-5.1,6.1-5.1c1.9,0,3.3,0.4,4.2,0.9l-0.7,2c-0.6-0.3-1.9-0.9-3.6-0.9c-2.6,0-3.6,1.5-3.6,2.8c0,1.8,1.1,2.6,3.8,3.6
		c3.2,1.2,4.8,2.8,4.8,5.5c0,2.9-2.2,5.4-6.6,5.4c-1.8,0-3.8-0.5-4.8-1.2L358,68z"/>
</g>
<g>
	<path class="st2" d="M491.8,61.3c0,6.5-3.9,9.9-8.8,9.9c-5,0-8.5-3.9-8.5-9.6c0-6,3.7-9.9,8.8-9.9
		C488.5,51.8,491.8,55.7,491.8,61.3z M477.2,61.6c0,4,2.2,7.6,6,7.6c3.9,0,6-3.6,6-7.8c0-3.8-2-7.7-6-7.7
		C479.2,53.8,477.2,57.5,477.2,61.6z"/>
	<path class="st2" d="M495,52.3c1.2-0.3,3-0.4,4.7-0.4c2.6,0,4.3,0.5,5.5,1.5c1,0.8,1.5,2.1,1.5,3.6c0,2.5-1.6,4.1-3.6,4.8V62
		c1.5,0.5,2.3,1.8,2.8,3.8c0.6,2.6,1.1,4.5,1.5,5.2h-2.5c-0.3-0.5-0.7-2.2-1.3-4.5c-0.6-2.6-1.6-3.6-3.8-3.7h-2.3V71H495V52.3z
		 M497.4,60.9h2.5c2.6,0,4.3-1.4,4.3-3.6c0-2.4-1.8-3.5-4.3-3.5c-1.2,0-2,0.1-2.4,0.2V60.9z"/>
	<path class="st2" d="M524.5,70.1c-1.1,0.4-3.2,1-5.8,1c-2.9,0-5.2-0.7-7.1-2.5c-1.6-1.6-2.6-4.1-2.6-7c0-5.6,3.9-9.7,10.2-9.7
		c2.2,0,3.9,0.5,4.7,0.9l-0.6,2c-1-0.4-2.3-0.8-4.2-0.8c-4.6,0-7.6,2.9-7.6,7.6c0,4.8,2.9,7.6,7.3,7.6c1.6,0,2.7-0.2,3.2-0.5V63
		h-3.8v-2h6.2V70.1z"/>
	<path class="st2" d="M531.3,65l-2,5.9h-2.5l6.4-18.9h2.9l6.4,18.9H540l-2-5.9H531.3z M537.5,63.1l-1.8-5.4c-0.4-1.2-0.7-2.4-1-3.4
		h-0.1c-0.3,1.1-0.6,2.3-1,3.4l-1.8,5.5H537.5z"/>
	<path class="st2" d="M545.4,71V52.1h2.7l6,9.5c1.4,2.2,2.5,4.2,3.4,6.1l0.1,0c-0.2-2.5-0.3-4.8-0.3-7.8v-7.9h2.3V71h-2.5l-6-9.6
		c-1.3-2.1-2.6-4.3-3.5-6.3l-0.1,0c0.1,2.4,0.2,4.6,0.2,7.8V71H545.4z"/>
	<path class="st2" d="M566.2,52.1V71h-2.4V52.1H566.2z"/>
	<path class="st2" d="M570.1,68c1.1,0.7,2.7,1.2,4.4,1.2c2.5,0,3.9-1.3,3.9-3.2c0-1.8-1-2.8-3.6-3.8c-3.1-1.1-5-2.7-5-5.3
		c0-2.9,2.4-5.1,6.1-5.1c1.9,0,3.3,0.4,4.2,0.9l-0.7,2c-0.6-0.3-1.9-0.9-3.6-0.9c-2.6,0-3.6,1.5-3.6,2.8c0,1.8,1.1,2.6,3.8,3.6
		c3.2,1.2,4.8,2.8,4.8,5.5c0,2.9-2.2,5.4-6.6,5.4c-1.8,0-3.8-0.5-4.8-1.2L570.1,68z"/>
	<path class="st2" d="M600.2,62.7c-0.1-2.6-0.3-5.8-0.3-8.1h-0.1c-0.6,2.2-1.4,4.6-2.4,7.2l-3.3,9.2h-1.8l-3.1-9
		c-0.9-2.7-1.7-5.1-2.2-7.3H587c-0.1,2.4-0.2,5.5-0.4,8.3l-0.5,8.1h-2.3l1.3-18.9h3.1l3.2,9.1c0.8,2.3,1.4,4.4,1.9,6.4h0.1
		c0.5-1.9,1.1-4,2-6.4l3.4-9.1h3.1L603,71h-2.4L600.2,62.7z"/>
	<path class="st2" d="M606.5,68c1.1,0.7,2.7,1.2,4.4,1.2c2.5,0,3.9-1.3,3.9-3.2c0-1.8-1-2.8-3.6-3.8c-3.1-1.1-5-2.7-5-5.3
		c0-2.9,2.4-5.1,6.1-5.1c1.9,0,3.3,0.4,4.2,0.9l-0.7,2c-0.6-0.3-1.9-0.9-3.6-0.9c-2.6,0-3.6,1.5-3.6,2.8c0,1.8,1.1,2.6,3.8,3.6
		c3.2,1.2,4.8,2.8,4.8,5.5c0,2.9-2.2,5.4-6.6,5.4c-1.8,0-3.8-0.5-4.8-1.2L606.5,68z"/>
</g>
<g>
	<path class="st2" d="M771.3,54.2h-5.7v-2.1h14v2.1h-5.8V71h-2.5V54.2z"/>
	<path class="st2" d="M791.4,62.1h-7.3v6.8h8.2v2h-10.6V52.1h10.2v2h-7.8v6h7.3V62.1z"/>
	<path class="st2" d="M811.3,62.7c-0.1-2.6-0.3-5.8-0.3-8.1H811c-0.6,2.2-1.4,4.6-2.4,7.2l-3.3,9.2h-1.8l-3.1-9
		c-0.9-2.7-1.7-5.1-2.2-7.3h-0.1c-0.1,2.4-0.2,5.5-0.4,8.3l-0.5,8.1h-2.3l1.3-18.9h3.1l3.2,9.1c0.8,2.3,1.4,4.4,1.9,6.4h0.1
		c0.5-1.9,1.1-4,2-6.4l3.4-9.1h3.1l1.2,18.9h-2.4L811.3,62.7z"/>
	<path class="st2" d="M818,52.3c1.2-0.2,2.7-0.4,4.7-0.4c2.4,0,4.2,0.6,5.3,1.6c1,0.9,1.7,2.3,1.7,3.9c0,1.7-0.5,3.1-1.5,4
		c-1.3,1.4-3.4,2.1-5.8,2.1c-0.7,0-1.4,0-2-0.2V71H818V52.3z M820.4,61.4c0.5,0.1,1.2,0.2,2,0.2c2.9,0,4.7-1.4,4.7-4
		c0-2.5-1.8-3.7-4.5-3.7c-1.1,0-1.9,0.1-2.3,0.2V61.4z"/>
	<path class="st2" d="M832.9,52.1h2.4v16.8h8.1v2h-10.5V52.1z"/>
	<path class="st2" d="M849.1,65l-2,5.9h-2.5l6.4-18.9h2.9l6.4,18.9h-2.6l-2-5.9H849.1z M855.3,63.1l-1.8-5.4c-0.4-1.2-0.7-2.4-1-3.4
		h-0.1c-0.3,1.1-0.6,2.3-1,3.4l-1.8,5.5H855.3z"/>
	<path class="st2" d="M864.6,54.2h-5.7v-2.1h14v2.1h-5.8V71h-2.5V54.2z"/>
	<path class="st2" d="M884.7,62.1h-7.3v6.8h8.2v2H875V52.1h10.2v2h-7.8v6h7.3V62.1z"/>
	<path class="st2" d="M888.4,68c1.1,0.7,2.7,1.2,4.4,1.2c2.5,0,3.9-1.3,3.9-3.2c0-1.8-1-2.8-3.6-3.8c-3.1-1.1-5-2.7-5-5.3
		c0-2.9,2.4-5.1,6.1-5.1c1.9,0,3.3,0.4,4.2,0.9l-0.7,2c-0.6-0.3-1.9-0.9-3.6-0.9c-2.6,0-3.6,1.5-3.6,2.8c0,1.8,1.1,2.6,3.8,3.6
		c3.2,1.2,4.8,2.8,4.8,5.5c0,2.9-2.2,5.4-6.6,5.4c-1.8,0-3.8-0.5-4.8-1.2L888.4,68z"/>
</g>
<g>
	<path class="st2" d="M1102.7,52.3c1.2-0.2,2.7-0.4,4.7-0.4c2.4,0,4.2,0.6,5.3,1.6c1,0.9,1.7,2.3,1.7,3.9c0,1.7-0.5,3.1-1.5,4
		c-1.3,1.4-3.4,2.1-5.8,2.1c-0.7,0-1.4,0-2-0.2V71h-2.4V52.3z M1105.1,61.4c0.5,0.1,1.2,0.2,2,0.2c2.9,0,4.7-1.4,4.7-4
		c0-2.5-1.8-3.7-4.5-3.7c-1.1,0-1.9,0.1-2.3,0.2V61.4z"/>
	<path class="st2" d="M1118.3,65l-2,5.9h-2.5l6.4-18.9h2.9l6.4,18.9h-2.6l-2-5.9H1118.3z M1124.5,63.1l-1.8-5.4
		c-0.4-1.2-0.7-2.4-1-3.4h-0.1c-0.3,1.1-0.6,2.3-1,3.4l-1.8,5.5H1124.5z"/>
	<path class="st2" d="M1146.3,70.1c-1.1,0.4-3.2,1-5.8,1c-2.9,0-5.2-0.7-7.1-2.5c-1.6-1.6-2.6-4.1-2.6-7c0-5.6,3.9-9.7,10.2-9.7
		c2.2,0,3.9,0.5,4.7,0.9l-0.6,2c-1-0.4-2.3-0.8-4.2-0.8c-4.6,0-7.6,2.9-7.6,7.6c0,4.8,2.9,7.6,7.3,7.6c1.6,0,2.7-0.2,3.2-0.5V63
		h-3.8v-2h6.2V70.1z"/>
	<path class="st2" d="M1159.8,62.1h-7.3v6.8h8.2v2H1150V52.1h10.2v2h-7.8v6h7.3V62.1z"/>
	<path class="st2" d="M1163.5,68c1.1,0.7,2.7,1.2,4.4,1.2c2.5,0,3.9-1.3,3.9-3.2c0-1.8-1-2.8-3.6-3.8c-3.1-1.1-5-2.7-5-5.3
		c0-2.9,2.4-5.1,6.1-5.1c1.9,0,3.3,0.4,4.2,0.9l-0.7,2c-0.6-0.3-1.9-0.9-3.6-0.9c-2.6,0-3.6,1.5-3.6,2.8c0,1.8,1.1,2.6,3.8,3.6
		c3.2,1.2,4.8,2.8,4.8,5.5c0,2.9-2.2,5.4-6.6,5.4c-1.8,0-3.8-0.5-4.8-1.2L1163.5,68z"/>
</g>
<g>
</g>
<g>
</g>
<g>
</g>
<g>
</g>
<g>
</g>
<g>
</g>
<g>
</g>
<g>
</g>
<g>
</g>
<g>
</g>
<g>
</g>
<g>
</g>
<g>
</g>
<g>
</g>
<g>
</g>
</svg>
