<svg xmlns="http://www.w3.org/2000/svg" width="27" height="24" viewBox="0 0 27 24">
  <path fill-rule="evenodd" d="M7.87576326,15.5992738 C7.36017088,14.4508408 6.34453591,13.6051533 5.11995402,13.3044078 L5.11995402,3.00006021 C5.11995402,2.44731838 4.67269564,2.000075 4.11996881,2.000075 C3.56917696,2.000075 3.1199836,2.44733338 3.1199836,3.00006021 L3.1199836,13.3009078 C2.88170713,13.3614519 2.64733559,13.4415308 2.42079394,13.5391843 C0.823167576,14.2637736 -0.139718181,15.9180491 0.0165295079,17.6641233 C0.174732168,19.4101975 1.42080874,20.865226 3.1199836,21.2890697 L3.1199836,24.9999648 C3.1199836,25.5527066 3.56919696,25.99995 4.11996881,25.99995 C4.67271064,25.99995 5.11995402,25.5526916 5.11995402,24.9999648 L5.11995402,21.2949196 C6.43633455,20.9746143 7.50661872,20.0234384 7.9812617,18.7559072 C8.36992595,17.7324723 8.3328165,16.5957891 7.87579326,15.5997038 L7.87576326,15.5992738 Z M22.6196952,2.000075 C23.172422,2.000075 23.6196804,2.44731838 23.6196804,3.00006021 L23.6196804,3.00006021 L23.6196804,13.3044078 C24.8442623,13.6051533 25.8598972,14.4508408 26.3754896,15.5992738 C26.8325429,16.5957891 26.8696523,17.7324723 26.4809881,18.7559072 C26.0063451,20.0234384 24.9360609,20.9746143 23.6196804,21.2949196 L23.6196804,21.2949196 L23.6196804,24.9999648 C23.6196804,25.5526916 23.172437,25.99995 22.6196952,25.99995 C22.0689233,25.99995 21.61971,25.5527066 21.61971,24.9999648 L21.61971,24.9999648 L21.61971,21.2890697 C19.9205351,20.865226 18.6744585,19.4101975 18.5162559,17.6641233 C18.3600082,15.9180491 19.3228939,14.2637736 20.9205203,13.5391843 C21.147062,13.4415308 21.3814335,13.3614519 21.61971,13.3009078 L21.61971,13.3009078 L21.61971,3.00006021 C21.61971,2.44733338 22.0689033,2.000075 22.6196952,2.000075 Z M13.369602,1.99995 C13.9223288,1.99995 14.3695872,2.44719338 14.3695872,2.99993521 L14.3695872,2.99993521 L14.3695872,6.85927812 C14.5238849,6.90029252 14.6742727,6.94521185 14.8246605,6.99990104 C16.3988122,7.57981246 17.4613065,9.05634062 17.5159957,10.7321158 C17.5687449,12.407891 16.6019592,13.9488683 15.0707318,14.6305082 C14.8461452,14.7320667 14.6117786,14.8121455 14.3695922,14.8687846 L14.3695922,14.8687846 L14.3695922,24.9996348 C14.3695922,25.5523616 13.9223488,25.99962 13.369607,25.99962 C12.8188351,25.99962 12.3696218,25.5523766 12.3696218,24.9996348 L12.3696218,24.9996348 L12.3696218,14.8747846 C12.219234,14.8337702 12.0649363,14.7888508 11.9145485,14.7341616 C10.8911137,14.3513673 10.0629909,13.5720788 9.61573252,12.5740436 C9.11376494,11.4607601 9.13136468,10.181479 9.66260683,9.08189525 C10.193849,7.98226151 11.1860343,7.17370347 12.3696168,6.87487789 L12.3696168,6.87487789 L12.3696168,2.99993521 C12.3696168,2.44720838 12.8188101,1.99995 13.369602,1.99995 Z M4.11606887,15.1753384 C4.9520065,15.1753384 5.7097953,15.6636529 6.05549018,16.4253616 C6.29376666,16.9351041 6.31720631,17.5210454 6.11994423,18.0503376 L6.11018937,18.0484376 L6.11018937,18.0503926 C5.86019307,18.7144328 5.29575142,19.2085755 4.60436165,19.3706731 C3.91297187,19.5308257 3.18643262,19.3355136 2.66884028,18.8511307 C2.15124793,18.3648079 1.90910151,17.6538985 2.02624978,16.9527088 C2.14148308,16.2535192 2.59849132,15.657828 3.24498175,15.3648323 C3.51841771,15.2398342 3.81527332,15.1734301 4.11606887,15.1753384 Z M22.6157952,15.1753801 C22.3149997,15.1753801 22.0181441,15.2398342 21.7447081,15.3648323 C21.0982177,15.657828 20.6412094,16.2535192 20.5259761,16.9527088 C20.4088279,17.6538985 20.6509743,18.3648079 21.1685666,18.8511307 C21.686159,19.3355136 22.4126982,19.5308257 23.104088,19.3706731 C23.7954778,19.2085755 24.3599194,18.7144328 24.6099157,18.0503926 L24.6099157,18.0503926 L24.6687928,17.8725687 C24.8040563,17.3937029 24.7652845,16.8801993 24.5552165,16.4253616 C24.2095217,15.6636529 23.4517329,15.1753801 22.6157952,15.1753801 Z M13.3852768,8.74987516 C12.6645874,8.74987516 11.9927224,9.11706973 11.6021031,9.72251077 C11.2095289,10.3299518 11.1528898,11.0916405 11.4497604,11.7498308 C11.8052051,12.5330242 12.5962434,13.0271619 13.4555807,12.9998123 C14.314918,12.9724627 15.0727218,12.4295207 15.3754523,11.6248326 C15.5707694,11.0955555 15.5453798,10.5096141 15.3051484,9.99987167 C15.0786017,9.48812924 14.6587079,9.08580519 14.1352657,8.88463816 C13.8950192,8.79674946 13.641133,8.74987516 13.3852768,8.74987516 Z" transform="translate(.248 -2)"/>
</svg>
