<svg xmlns="http://www.w3.org/2000/svg" width="16" height="16" viewBox="0 0 16 16">
  <path d="M8,0 C12.418278,0 16,3.581722 16,8 C16,12.418278 12.418278,16 8,16 C3.581722,16 0,12.418278 0,8 C0,3.581722 3.581722,0 8,0 Z M8,1 C4.13400675,1 1,4.13400675 1,8 C1,11.8659932 4.13400675,15 8,15 C11.8659932,15 15,11.8659932 15,8 C15,4.13400675 11.8659932,1 8,1 Z M5,4.49910622 C5.13282726,4.49910622 5.26019574,4.5519583 5.354,4.646 L8,7.293 L10.646,4.646 C10.772472,4.51952798 10.956809,4.47013504 11.129573,4.51642701 C11.302337,4.56271898 11.437281,4.69766302 11.483573,4.87042701 C11.529865,5.043191 11.480472,5.22752798 11.354,5.354 L8.707,8 L11.354,10.646 C11.480472,10.772472 11.529865,10.956809 11.483573,11.129573 C11.437281,11.302337 11.302337,11.437281 11.129573,11.483573 C10.956809,11.529865 10.772472,11.480472 10.646,11.354 L8,8.707 L5.354,11.354 C5.22752798,11.480472 5.043191,11.529865 4.87042701,11.483573 C4.69766302,11.437281 4.56271898,11.302337 4.51642701,11.129573 C4.47013504,10.956809 4.51952798,10.772472 4.646,10.646 L7.293,8 L4.646,5.354 C4.5519583,5.26019574 4.49910622,5.13282726 4.49910622,5 C4.49910622,4.86717274 4.5519583,4.73980426 4.646,4.646 C4.73980426,4.5519583 4.86717274,4.49910622 5,4.49910622 Z"/>
</svg>
