<svg xmlns="http://www.w3.org/2000/svg" viewBox="0 0 560 200"><path d="M46.648 128.936c5.876 0 10.738-1.508 14.586-4.524 3.848-3.016 5.772-7.098 5.772-12.246 0-1.924-.247-3.692-.741-5.304s-1.287-3.016-2.379-4.212c-1.092-1.196-2.145-2.223-3.159-3.081-1.014-.858-2.405-1.664-4.173-2.418-1.768-.754-3.159-1.313-4.173-1.677a213.983 213.983 0 00-4.329-1.482 298.577 298.577 0 01-3.705-1.326c-.702-.26-1.599-.65-2.691-1.17-1.092-.52-1.846-1.04-2.262-1.56a2.79 2.79 0 01-.624-1.794c0-2.964 2.21-4.446 6.63-4.446 4.264 0 7.254 1.95 8.97 5.85l10.608-3.432c-1.092-4.004-3.302-7.28-6.63-9.828-3.328-2.548-7.436-3.822-12.324-3.822-5.876 0-10.53 1.482-13.962 4.446-3.432 2.964-5.148 6.63-5.148 10.998 0 1.56.208 3.029.624 4.407.416 1.378.897 2.548 1.443 3.51.546.962 1.365 1.885 2.457 2.769 1.092.884 2.028 1.586 2.808 2.106.78.52 1.924 1.092 3.432 1.716 1.508.624 2.665 1.079 3.471 1.365l.193.068c.801.28 1.946.661 3.434 1.141 2.444.78 4.251 1.391 5.421 1.833 1.17.442 2.288 1.131 3.354 2.067 1.066.936 1.599 2.002 1.599 3.198 0 1.82-.728 3.211-2.184 4.173-1.456.962-3.458 1.443-6.006 1.443-2.444 0-4.68-.793-6.708-2.379-2.028-1.586-3.666-3.705-4.914-6.357l-10.608 3.978c1.664 4.992 4.407 8.905 8.229 11.739 3.822 2.834 8.385 4.251 13.689 4.251zm45.396 0c6.344 0 11.518-2.418 15.522-7.254l-6.552-6.552c-2.34 2.808-5.33 4.212-8.97 4.212-2.236 0-4.082-.611-5.538-1.833-1.456-1.222-2.236-3.081-2.34-5.577h25.506c.208-1.352.312-3.302.312-5.85 0-6.136-1.664-10.816-4.992-14.04-3.328-3.224-7.644-4.836-12.948-4.836-5.824 0-10.439 1.872-13.845 5.616-3.406 3.744-5.109 8.814-5.109 15.21 0 6.552 1.69 11.674 5.07 15.366 3.38 3.692 8.008 5.538 13.884 5.538zm7.098-25.506H84.244c.26-2.08 1.04-3.705 2.34-4.875 1.3-1.17 2.964-1.755 4.992-1.755 4.472 0 6.994 2.21 7.566 6.63zM130.654 128v-21.606c0-5.512 2.288-8.268 6.864-8.268 2.548 0 4.914.91 7.098 2.73l1.482-10.296c-2.132-2.236-4.758-3.354-7.878-3.354-1.82 0-3.406.494-4.758 1.482-1.352.988-2.288 2.002-2.808 3.042v-3.588h-11.31V128h11.31zm45.864 0l14.586-39.858h-11.778l-7.8 22.23c-.312.78-.676 2.028-1.092 3.744-.416-1.716-.78-2.964-1.092-3.744l-7.878-22.23h-11.778L164.272 128h12.246zm28.158-43.68c1.82 0 3.354-.637 4.602-1.911 1.248-1.274 1.872-2.795 1.872-4.563 0-1.82-.624-3.341-1.872-4.563-1.248-1.222-2.782-1.833-4.602-1.833-1.82 0-3.367.624-4.641 1.872-1.274 1.248-1.911 2.756-1.911 4.524 0 1.768.65 3.289 1.95 4.563 1.3 1.274 2.834 1.911 4.602 1.911zm5.616 43.68V88.142h-11.31V128h11.31zm28.47.936c9.048 0 14.898-4.498 17.55-13.494l-10.842-3.12c-1.196 3.848-3.432 5.772-6.708 5.772-2.08 0-3.796-.923-5.148-2.769-1.352-1.846-2.028-4.251-2.028-7.215 0-2.964.689-5.382 2.067-7.254 1.378-1.872 3.133-2.808 5.265-2.808 3.068 0 5.252 1.716 6.552 5.148l10.764-3.51c-2.6-8.32-8.424-12.48-17.472-12.48-5.616 0-10.127 1.885-13.533 5.655-3.406 3.77-5.109 8.853-5.109 15.249 0 6.5 1.69 11.596 5.07 15.288 3.38 3.692 7.904 5.538 13.572 5.538zm43.68 0c6.344 0 11.518-2.418 15.522-7.254l-6.552-6.552c-2.34 2.808-5.33 4.212-8.97 4.212-2.236 0-4.082-.611-5.538-1.833-1.456-1.222-2.236-3.081-2.34-5.577h25.506c.208-1.352.312-3.302.312-5.85 0-6.136-1.664-10.816-4.992-14.04-3.328-3.224-7.644-4.836-12.948-4.836-5.824 0-10.439 1.872-13.845 5.616-3.406 3.744-5.109 8.814-5.109 15.21 0 6.552 1.69 11.674 5.07 15.366 3.38 3.692 8.008 5.538 13.884 5.538zm7.098-25.506h-14.898c.26-2.08 1.04-3.705 2.34-4.875 1.3-1.17 2.964-1.755 4.992-1.755 4.472 0 6.994 2.21 7.566 6.63zM341.722 128v-19.578h12.324c3.224 0 6.11-.52 8.658-1.56 2.548-1.04 4.55-2.418 6.006-4.134 1.456-1.716 2.548-3.575 3.276-5.577a18.008 18.008 0 001.092-6.201c0-4.94-1.547-9.1-4.641-12.48-3.094-3.38-7.891-5.07-14.391-5.07h-24.18V128h11.856zm12.792-30.732h-12.792V84.632h12.792c2.184 0 3.77.637 4.758 1.911s1.482 2.743 1.482 4.407c0 1.716-.52 3.198-1.56 4.446-1.04 1.248-2.6 1.872-4.68 1.872zm36.348 31.668c4.212 0 7.514-1.3 9.906-3.9V128H412v-25.194c0-10.4-5.642-15.6-16.926-15.6-6.5 0-12.194 1.664-17.082 4.992l3.51 8.658c4.212-2.808 8.476-4.212 12.792-4.212 2.028 0 3.614.481 4.758 1.443 1.144.962 1.716 2.353 1.716 4.173v2.184c-2.08-.936-4.992-1.404-8.736-1.404-4.316 0-8.086 1.105-11.31 3.315s-4.836 5.369-4.836 9.477c0 4.212 1.391 7.449 4.173 9.711 2.782 2.262 6.383 3.393 10.803 3.393zm2.184-9.516c-4.056 0-6.084-1.17-6.084-3.51 0-2.548 2.34-3.822 7.02-3.822 2.444 0 4.706.312 6.786.936v3.588c-2.34 1.872-4.914 2.808-7.722 2.808zm41.886 9.516c3.588 0 6.604-.598 9.048-1.794l1.248-9.516c-2.288 1.04-4.576 1.56-6.864 1.56-.624 0-1.157-.195-1.599-.585-.442-.39-.663-.949-.663-1.677V98.048h8.658v-9.906h-8.658V71.684l-11.232 5.382v11.076h-5.46v9.906h5.46v19.968c0 7.28 3.354 10.92 10.062 10.92zm30.576-.936v-21.528c0-5.564 2.34-8.346 7.02-8.346 2.288 0 3.913.676 4.875 2.028.962 1.352 1.443 3.51 1.443 6.474V128h11.31v-25.896c0-5.252-1.378-9.048-4.134-11.388-2.756-2.34-5.98-3.51-9.672-3.51-4.68 0-8.294 1.534-10.842 4.602V71.684l-11.31 5.226V128h11.31zm49.608.936c4.888 0 8.775-1.092 11.661-3.276 2.886-2.184 4.329-5.226 4.329-9.126 0-1.976-.377-3.718-1.131-5.226s-1.859-2.769-3.315-3.783c-1.456-1.014-2.795-1.794-4.017-2.34-1.222-.546-2.769-1.131-4.641-1.755-5.2-1.3-7.8-2.756-7.8-4.368 0-1.716 1.56-2.574 4.68-2.574 2.652 0 5.2 1.118 7.644 3.354l7.332-6.006c-3.952-4.42-8.944-6.63-14.976-6.63-4.212 0-7.735 1.014-10.569 3.042-2.834 2.028-4.251 4.784-4.251 8.268 0 3.432 1.118 6.097 3.354 7.995 2.236 1.898 5.824 3.679 10.764 5.343 2.6.988 4.381 1.781 5.343 2.379.962.598 1.443 1.365 1.443 2.301 0 2.08-1.846 3.12-5.538 3.12-1.768 0-3.51-.468-5.226-1.404-1.716-.936-3.12-1.95-4.212-3.042l-7.254 6.162c1.612 2.288 3.926 4.121 6.942 5.499a22.461 22.461 0 009.438 2.067z" fill-rule="nonzero"/></svg>