<svg xmlns="http://www.w3.org/2000/svg" width="1408" height="428">
  <path fill-rule="evenodd" d="M168.576 291.537c-4.195 8.692 2.976 13.461 5.136 14.655l2.039-.546c3.435-7.166-.058-14.181-3.508-17.752.546 2.054.362 3.262.324 3.47-.073.39-.348.739-.74.931-.386.194-.85.218-1.241.058l-2.01-.816zm999.83 279.723l5.546 19.52 5.93 8.252-11.334 20.558-.012.007 9.48-17.864-6.89-9.595-4.86-17.115-12.684 3.397 4.648 17.158-.03.28-1.512 15.206s6.301 2.17 10.302 6.595c3.65 4.038 5.41 10.364 5.69 11.442l.026.101.014.058a7.33 7.33 0 006.914-4.305c.025-.053.054-.106.083-.16.092-.159.208-.299.343-.41a1.546 1.546 0 011.764-.154l.15.1a7.32 7.32 0 0010.466-2.037l.158-.262-7.276-10.132-16.466 7.55 19.176-9.048 20.598 28.686-47.139 12.63s14.235-10.919 10.476-23.898c-4.248-14.661-18.08-16.792-18.357-16.833h-.004l1.507-15.143-5.31-19.598 18.603-4.986zm26.11 53.444c-1.25 1.643-5.087 5.88-12.89 3.006-.9 1.353-4.605 4.585-8.891 4.686v.239c-.017 1.461-.38 9.315-6.07 14.327l-.284.244 37.147-9.953-9.011-12.55zm728.005-23.299c4.3 16.051-5.745 32.736-22.395 37.2-1.189.319-3.305.875-4.378.334-.821-.411-.865-1.943-.357-2.706.667-1.01 2.6-.812 3.797-1.136 14.718-3.943 23.613-18.636 19.83-32.76-3.783-14.123-18.834-22.395-33.552-18.452-14.717 3.942-23.613 18.636-19.83 32.76.256.961 1.02 2.319.58 3.193-.41.817-2.043 1.228-2.803.725-.816-.536-1.019-2.015-1.28-2.976-4.3-16.052 5.746-32.736 22.396-37.2 16.65-4.465 33.692 4.967 37.992 21.018zm-45.38-24.135c.256.962.821 2.343.381 3.218-.41.816-2.028 1.275-2.792.778-.817-.536-.836-2.092-1.092-3.054-3.783-14.118-18.834-22.395-33.552-18.453-14.718 3.943-23.613 18.637-19.83 32.76 3.784 14.119 18.834 22.396 33.552 18.453 1.199-.32 2.773-1.454 3.856-.913.816.406 1.541 1.75 1.039 2.513-.662 1-2.773 1.58-3.957 1.898-16.65 4.46-33.692-4.967-37.993-21.018-4.3-16.051 5.745-32.736 22.395-37.2 16.65-4.465 33.693 4.967 37.993 21.018zm-481.66-2.74l3.296 12.297-80.914 21.681-3.295-12.297 80.914-21.68zm458.225-.647a9.18 9.18 0 01-1.473 7.813c5.7.468 9.209 2.642 12.172 7.477l.197.326.024.048c.125.26.645 1.506-.512 2.132-1.43.768-2.3-.827-2.3-.827-3.4-5.518-8.369-7.378-14.94-5.62-7.513 2.016-12.18 9.404-10.968 16.926 0 0 5.795-1.572 12.046-3.25l.71-.19.355-.095.712-.19c3.322-.89 6.63-1.77 9.138-2.425 2.16-.565 2.754 2.503.667 3.014-.76.187-1.528.378-2.303.572l-.776.196a539 539 0 00-2.34.597l-1.17.302-.778.203-1.193.313-.79.208a914.147 914.147 0 00-16.524 4.542l-.006.002-.4-1.489c-2.083-7.77 1.237-15.737 7.639-19.902a9.169 9.169 0 01-4.953-5.924c-1.31-4.9 1.604-9.948 6.504-11.263 4.899-1.309 9.949 1.604 11.262 6.504zm-460.785 4.31l-74.835 20.052 1.773 6.61 74.835-20.052-1.773-6.61zm-249.665 11.925c1.165 4.344-1.425 8.828-5.77 9.992-4.343 1.164-8.827-1.425-9.991-5.769-1.165-4.344 1.425-8.828 5.769-9.992 4.344-1.165 8.828 1.42 9.992 5.769zm-9.195-2.793a5.086 5.086 0 00-3.59 6.214 5.075 5.075 0 103.59-6.213zm177.98-35.03l9.683 36.146a1.7 1.7 0 01-1.06 2.03l-.138.043a1.699 1.699 0 01-2.073-1.198l-9.683-36.147a1.699 1.699 0 011.198-2.073c.899-.241 1.831.3 2.073 1.198zm7.074-1.895l9.683 36.147a1.704 1.704 0 01-1.06 2.03l-.139.043a1.699 1.699 0 01-2.072-1.198l-9.683-36.147a1.699 1.699 0 011.198-2.073c.899-.241 1.831.3 2.073 1.198zm22.864-6.127l9.683 36.147a1.7 1.7 0 01-1.06 2.03l-.138.043a1.699 1.699 0 01-2.073-1.198l-9.683-36.147a1.699 1.699 0 011.198-2.072c.899-.242 1.831.299 2.073 1.197zm501.257 26.088a6.116 6.116 0 00-4.325 7.479 6.115 6.115 0 007.485 4.325c3.257-.87 5.194-4.233 4.325-7.485a6.116 6.116 0 00-7.485-4.32zm-494.183-27.982l9.683 36.147a1.702 1.702 0 01-1.06 2.03l-.139.043a1.699 1.699 0 01-2.073-1.198l-9.683-36.147a1.699 1.699 0 011.199-2.073c.898-.241 1.831.3 2.073 1.198zm-203.405 27.445c.836 3.131-1.03 6.368-4.16 7.21a5.897 5.897 0 01-7.21-4.166 5.887 5.887 0 014.16-7.204 5.89 5.89 0 017.21 4.16zm226.462-33.344l9.683 36.147a1.695 1.695 0 01-1.059 2.029l-.14.043a1.698 1.698 0 01-2.072-1.198l-9.683-36.147a1.699 1.699 0 011.198-2.073c.899-.241 1.831.3 2.073 1.199zm-232.874 32.16a2.802 2.802 0 001.45 5.412 2.8 2.8 0 10-1.45-5.412zm239.88-34.32l9.683 36.147a1.699 1.699 0 01-1.06 2.029l-.138.044a1.699 1.699 0 01-2.073-1.198l-9.683-36.147a1.699 1.699 0 011.198-2.073c.9-.242 1.832.3 2.073 1.198zm127.938-22.829l.038.12 4.885 18.23c.799 2.971-.616 6.03-3.225 7.412l-.22.111 7.986 29.812a1.209 1.209 0 01-.855 1.484 1.208 1.208 0 01-1.445-.737l-.038-.119-7.987-29.812a6.501 6.501 0 01-6.68-4.547l-.07-.246-4.885-18.23a1.209 1.209 0 01.855-1.484 1.208 1.208 0 011.445.737l.038.118 4.885 18.23a4.077 4.077 0 003.57 3.003l.2.013-5.89-21.98a1.209 1.209 0 01.854-1.483 1.208 1.208 0 011.446.737l.038.118 5.89 21.98a4.078 4.078 0 001.805-4.283l-.051-.21-4.885-18.231a1.209 1.209 0 012.296-.743zM138.406 486.26l5.546 19.52 5.93 8.252-11.334 20.558-.012.007 9.48-17.864-6.89-9.595-4.86-17.115-12.684 3.397 4.648 17.158-.03.28-1.512 15.206.025.009.074.026.12.045c1.146.427 6.524 2.578 10.083 6.515 3.65 4.038 5.41 10.364 5.69 11.442l.026.101.014.058a7.33 7.33 0 006.914-4.305c.025-.053.054-.106.083-.16.092-.159.208-.299.343-.41a1.546 1.546 0 011.764-.154l.15.1a7.32 7.32 0 0010.466-2.037l.158-.262-7.276-10.132-16.466 7.549 19.176-9.047 20.598 28.686-47.139 12.63s14.235-10.919 10.476-23.898c-4.248-14.661-18.08-16.792-18.357-16.833h-.004l1.507-15.143-5.31-19.598 18.603-4.986zm1419.115 36.53c.365.212.633.56.742.969l7.913 29.533a1.595 1.595 0 01-1.127 1.952l-37.672 10.094a1.6 1.6 0 01-1.21-.16 1.596 1.596 0 01-.743-.967l-7.913-29.533a1.595 1.595 0 011.128-1.953l37.672-10.094c.408-.109.843-.052 1.21.16zM164.517 539.705c-1.252 1.643-5.088 5.88-12.892 3.006-.898 1.353-4.604 4.585-8.89 4.686v.239c-.017 1.461-.38 9.315-6.07 14.327l-.284.244 37.147-9.953-9.011-12.55zm1391.08-13.581l-34.594 9.27 7.088 26.453 34.593-9.27-7.088-26.453zm-663.076-9.718c4.3 16.051-5.745 32.736-22.395 37.2-1.189.319-3.305.875-4.378.334-.821-.411-.865-1.943-.357-2.706.667-1.01 2.6-.812 3.797-1.136 14.718-3.943 23.613-18.636 19.83-32.76-3.783-14.123-18.834-22.395-33.552-18.452-14.717 3.942-23.613 18.636-19.83 32.76.256.961 1.02 2.319.58 3.193-.41.817-2.043 1.228-2.803.725-.816-.536-1.019-2.015-1.28-2.976-4.3-16.052 5.746-32.736 22.396-37.2 16.65-4.465 33.692 4.967 37.992 21.018zm671.697-20.234l.039.118 14.524 54.198a1.21 1.21 0 01-.855 1.484 1.21 1.21 0 01-1.445-.737l-.039-.119-4.933-18.404c-4.672-.198-9.33-8.34-11.547-16.621-2.412-9.002-2.248-19.299 2.811-20.656a1.208 1.208 0 011.445.737zm-226.97 19.426c11.283 3.13 33.915 9.161 45.25 12.108.957.246.875 1.18.29 1.344l-38.325 10.272-2.343.627-1.815.487-37.681 10.096c-.556.145-.952-.686-.397-1.242 8.258-8.292 24.788-24.85 32.982-33.2.493-.502 1.131-.743 2.04-.492zm-1.13 2.932c-6.465 6.587-19.497 19.642-26.01 26.18-.44.44-.125 1.092.31.976 7.78-2.087 19.39-5.199 31.06-8.326l2.187-.586 1.652-.443 28.315-7.586c.464-.12.532-.855-.222-1.054a2983.171 2983.171 0 01-16.574-4.377l-1.707-.456a2138.673 2138.673 0 01-17.402-4.714c-.715-.198-1.223-.01-1.61.386zM847.14 492.27c.256.963.821 2.344.381 3.22-.41.815-2.028 1.274-2.792.777-.817-.536-.836-2.092-1.092-3.054-3.783-14.118-18.834-22.395-33.552-18.453-14.718 3.943-23.613 18.637-19.83 32.76 3.784 14.119 18.834 22.396 33.552 18.453 1.199-.32 2.773-1.454 3.856-.913.816.406 1.541 1.75 1.039 2.513-.662 1-2.773 1.58-3.957 1.898-16.65 4.46-33.692-4.967-37.993-21.018-4.3-16.051 5.745-32.736 22.395-37.2 16.65-4.465 33.693 4.967 37.993 21.018zm715.212 6.271c-1.749 2.276-2.17 9.031-.053 16.926 2.077 7.75 5.718 13.33 8.36 14.566l.149.065-8.456-31.557zm-14.249 24.918l-3.237.875a3.576 3.576 0 00-4.373-2.527l-6.89 1.846a3.576 3.576 0 00-2.527 4.372l-3.233.865a6.93 6.93 0 014.895-8.475l6.89-1.846c3.687-.986 7.49 1.208 8.475 4.89zm-500.117-102.476c1.001 1.155 1.698 2.557 2.23 3.982.14.346.264.704.37 1.073.282.877.513 1.742.728 2.543l14.701 54.854c.086.323.157.645.212.969l4.412 16.464a10.477 10.477 0 01-1.064 7.997 10.466 10.466 0 01-6.394 4.918l-46.68 12.509c-.91.243-1.825.36-2.725.36-4.658 0-8.93-3.112-10.19-7.818-.04-.154-2.005-7.513-4.102-15.351l-.207-.773-.207-.774a16.625 16.625 0 01-.15-.524c-.084-.31-1.106-4.099-2.174-8.073l-.292-1.086a1573.04 1573.04 0 01-2.066-7.742 23.822 23.822 0 01-.348-1.326l-.005-.016h.002c-.201-.945-.1-1.34.437-1.88l.757-.763 1.037.284c1.057.29 1.233.99 1.583 2.383.02.085.05.2.087.34l.087.307v.002c.254.9 2.284 8.474 4.365 16.253l.211.791c.597 1.91 2.445 6.125 6.956 4.918l47.955-12.847c3.463-.928 5.624-4.316 5.11-7.783l-15.543-58.004-.025-.088c-.078-.242-.16-.482-.246-.719-1.218-2.986-4.39-4.458-7.859-3.53l-14.085 3.795-.904.243-.741.2-.74.2-.739.198-.734.198c-6.462 1.74-12.266 3.302-12.607 3.392-2.587.683-3.428-.29-3.677-1.228-.206-.776-.141-2.19 2.613-2.926l30.623-8.204c4.332-1.163 7.705-.396 10.028 2.282zM365.482 489.53l3.295 12.297-80.914 21.681-3.295-12.297 80.914-21.68zm699.03 2.693a10.628 10.628 0 01-6.046 4.29l-47.956 12.847c-2.052.55-4.01.401-5.734-.346l2.37 8.868c.977 3.653 4.745 5.83 8.404 4.852l46.68-12.51a6.81 6.81 0 004.157-3.201 6.817 6.817 0 00.695-5.204l-2.57-9.596zm-240.806-3.34a9.18 9.18 0 01-1.473 7.813c5.7.468 9.209 2.642 12.172 7.477l.197.326.011.022c.094.185.704 1.507-.499 2.158-1.43.768-2.3-.827-2.3-.827-3.4-5.518-8.369-7.378-14.94-5.62-7.513 2.016-12.18 9.404-10.968 16.926 0 0 5.796-1.572 12.046-3.25l.71-.19.355-.095.712-.19c3.322-.89 6.63-1.77 9.138-2.425 2.16-.565 2.754 2.503.667 3.014-.506.125-1.017.25-1.53.379l-.773.193-1.165.294-.78.198-1.17.3-1.17.303a899.63 899.63 0 00-18.092 4.926l-.273.077-.922.263-.005.002-.4-1.489c-2.083-7.77 1.237-15.737 7.639-19.902a9.169 9.169 0 01-4.953-5.924c-1.31-4.9 1.604-9.948 6.504-11.263 4.899-1.309 9.949 1.604 11.262 6.504zm712.652-20.3a15.007 15.007 0 016.692-3.822c8.108-2.174 16.472 2.658 18.646 10.765 2.142 8-2.535 16.253-10.455 18.555l-.31.086-.247.069 4.073 15.2-40.983 10.983-4.073-15.201-.247.068c-8.103 2.169-16.467-2.658-18.64-10.765-2.17-8.109 2.657-16.472 10.765-18.646a15.049 15.049 0 017.779-.02c.845-5.962 5.17-10.964 11.118-12.558 5.924-1.59 12.167.566 15.882 5.286zM362.92 493.193l-74.835 20.052 1.773 6.61 74.835-20.052-1.773-6.61zm1184.627 1.883l-34.707 9.301 3.233 12.06 34.707-9.301-3.233-12.06zm202.016-65.584c.66.147 1.183.648 1.357 1.302l.692 2.582 4.635-1.241a1.811 1.811 0 012.221 1.282l15.205 56.75c.26.967-.314 1.96-1.282 2.22l-89.441 23.965a1.806 1.806 0 01-1.376-.18 1.812 1.812 0 01-.845-1.102l-15.205-56.75a1.81 1.81 0 011.282-2.22l5.63-1.508-.656-2.458a1.813 1.813 0 01.669-1.92c.9-.672 22.26-16.361 40.238-10.037.565.2.995.663 1.15 1.242l11.663 43.534a1.812 1.812 0 11-3.502.938l-11.41-42.586c-13.947-4.219-30.757 6.26-34.977 9.12l13.973 52.39c5.638-3.75 21.069-13.069 33.058-11.512 1.29.116 5.153.025 6.368-1.854.2-.307.486-.548.823-.689.796-.333 18.372-7.594 31.889-5.64l-14.009-52.287c-4.229-.72-20.01-2.73-28.184 5.653a1.814 1.814 0 01-2.596-2.532c4.54-4.655 11.656-7.241 20.575-7.479 6.598-.174 11.835.97 12.055 1.017zM113.256 505.118c1.165 4.344-1.425 8.828-5.77 9.992-4.343 1.164-8.827-1.425-9.991-5.769-1.165-4.344 1.425-8.828 5.769-9.992 4.344-1.165 8.828 1.42 9.992 5.769zm933.493 2.09a2.813 2.813 0 01-1.819 3.38l-.163.05-13.075 3.503a2.788 2.788 0 01-2.123-.283 2.785 2.785 0 01-1.307-1.698 2.773 2.773 0 01.283-2.124 2.783 2.783 0 011.698-1.306l13.075-3.504c1.49-.4 3.03.489 3.43 1.981zm708.687-71.102l-2.884.773 13.43 50.127a1.812 1.812 0 01-2.22 2.22c-8.65-2.32-20.715.828-27.456 3.042l-.565.187a83.78 83.78 0 00-4.046 1.465c-2.82 3.532-8.74 3.058-9.434 2.99a1.166 1.166 0 01-.057-.008c-13.195-1.736-32.444 12.19-32.637 12.331a1.814 1.814 0 01-2.822-.997l-13.374-50.14-3.875 1.037 14.267 53.248 85.94-23.027-14.267-53.248zM104.06 502.326a5.086 5.086 0 00-3.59 6.213 5.075 5.075 0 103.59-6.213zm177.98-35.032l9.683 36.147a1.7 1.7 0 01-1.06 2.03l-.138.043a1.699 1.699 0 01-2.073-1.198l-9.683-36.147a1.699 1.699 0 011.198-2.073c.899-.241 1.831.3 2.073 1.198zm7.074-1.894l9.683 36.147a1.704 1.704 0 01-1.06 2.03l-.139.043a1.699 1.699 0 01-2.072-1.198l-9.683-36.147a1.699 1.699 0 011.198-2.073c.899-.241 1.831.3 2.073 1.198zm1232.196 1.042a11.963 11.963 0 00-8.859 11.33l-.002.301.014 2.474-2.275-.971a11.848 11.848 0 00-7.774-.556c-6.379 1.706-10.176 8.287-8.466 14.664 1.685 6.28 8.085 10.059 14.37 8.541l.294-.075.247-.068 40.983-10.982.247-.068c6.378-1.71 10.176-8.287 8.466-14.66-1.711-6.378-8.287-10.175-14.665-8.465a11.826 11.826 0 00-6.176 4.01l-.236.3-1.484 1.947-1.217-2.121c-2.7-4.697-8.238-7.001-13.467-5.6zM311.98 459.273l9.683 36.147a1.7 1.7 0 01-1.06 2.03l-.138.043a1.699 1.699 0 01-2.073-1.198l-9.683-36.147a1.699 1.699 0 011.198-2.072c.899-.242 1.831.299 2.073 1.197zm501.257 26.088a6.116 6.116 0 00-4.325 7.479 6.115 6.115 0 007.485 4.325c3.257-.87 5.194-4.233 4.325-7.485a6.116 6.116 0 00-7.485-4.32zm-494.183-27.982l9.683 36.147a1.702 1.702 0 01-1.06 2.03l-.139.043a1.699 1.699 0 01-2.073-1.198l-9.683-36.147a1.699 1.699 0 011.199-2.073c.898-.241 1.831.3 2.073 1.198zm-203.405 27.445c.836 3.131-1.03 6.368-4.16 7.21a5.897 5.897 0 01-7.21-4.166 5.887 5.887 0 014.16-7.204 5.89 5.89 0 017.21 4.16zm917.934-27.056a9.513 9.513 0 01-1.18 7.607c7.514.869 13.806 6.263 15.767 13.591l.496 1.838-35.736 9.576-.496-1.838a18.469 18.469 0 017.275-19.954 9.532 9.532 0 01-4.593-5.872c-1.36-5.091 1.672-10.343 6.76-11.707 5.092-1.36 10.342 1.671 11.707 6.76zM342.11 451.48l9.683 36.147a1.695 1.695 0 01-1.059 2.029l-.14.043a1.698 1.698 0 01-2.072-1.198l-9.683-36.147a1.699 1.699 0 011.198-2.073c.899-.241 1.831.3 2.073 1.199zm-232.874 32.16a2.802 2.802 0 001.45 5.412 2.8 2.8 0 10-1.45-5.412zm239.88-34.32l9.683 36.147a1.699 1.699 0 01-1.06 2.029l-.138.044a1.699 1.699 0 01-2.073-1.198l-9.683-36.147a1.699 1.699 0 011.198-2.073c.9-.242 1.832.3 2.073 1.198zm677.528 19.458l-.329.084a15.36 15.36 0 00-11.282 17.004l.05.33.064.397 29.703-7.959-.142-.375a15.355 15.355 0 00-18.064-9.481zm-549.59-42.287l.038.12 4.885 18.23c.799 2.971-.616 6.03-3.225 7.412l-.22.111 7.986 29.812a1.209 1.209 0 01-.855 1.484 1.208 1.208 0 01-1.445-.737l-.038-.119-7.987-29.812a6.501 6.501 0 01-6.68-4.547l-.07-.246-4.885-18.23a1.209 1.209 0 01.855-1.484 1.208 1.208 0 011.445.737l.038.118 4.885 18.23a4.077 4.077 0 003.57 3.003l.2.013-5.89-21.98a1.209 1.209 0 01.854-1.483 1.208 1.208 0 011.446.737l.038.118 5.89 21.98a4.078 4.078 0 001.805-4.283l-.051-.21-4.885-18.231a1.209 1.209 0 012.296-.743zm50.467 11.3c.365.211.633.559.742.968l7.913 29.533a1.595 1.595 0 01-1.127 1.952l-37.672 10.094a1.6 1.6 0 01-1.21-.16 1.596 1.596 0 01-.743-.967l-7.913-29.533a1.595 1.595 0 011.128-1.953l37.672-10.094c.408-.109.843-.052 1.21.16zm688.873-23.996l.05.165 3.03 11.301a2.842 2.842 0 01-1.841 3.42l-.165.05-6.388 1.71a2.835 2.835 0 01-3.42-1.836l-.049-.165-.014-.058-5.301 1.421 10.775 40.22a5.623 5.623 0 01-3.972 6.875 5.617 5.617 0 01-6.813-3.75l-.062-.216-10.775-40.22-6.238 1.672a5.565 5.565 0 01-4.334-.604 5.577 5.577 0 01-2.585-3.532c-.674-2.848 1.093-5.8 3.957-6.688l.217-.062 6.866-1.841a5.616 5.616 0 013.929-3.847 5.617 5.617 0 015.139 1.194l.185.169 6.093-1.633-.106-.401a2.842 2.842 0 011.84-3.42l.165-.05 6.397-1.715a2.842 2.842 0 013.42 1.84zm-690.798 27.328l-34.593 9.27 7.088 26.453 34.593-9.27-7.088-26.453zm481.839 4.8a25.17 25.17 0 01.555 10.584l-.096.558 2.846 10.61-10.186 2.73c-2.836 2.368-6.262 4.219-9.866 5.195-13.544 3.629-25.725-2.9-29.354-16.443-3.628-13.543 3.339-26.468 16.883-30.097 13.543-3.634 25.589 3.32 29.218 16.863zm178.829-58.133c1.058.266 1.797 1.059 2.14 1.71a16071.4 16071.4 0 015.76 11.06c.077.093.15.194.203.305 1.904 3.788 2.401 4.706 2.88 5.595.488.909.952 1.769 2.715 5.272a1.451 1.451 0 01-2.585 1.32s-1.725-3.33-4.817-9.283c-3.416 2.668-8.248 6.224-12.935 9.678l-1.14.84-1.14.841c-4.175 3.08-8.265 6.113-11.172 8.399 5.692 11.291 12.428 24.69 16.65 33.093l.315.628c3.14 6.614 1.942 10.562-4.503 14.389-1.551.923-3.05 1.802-4.653 2.232-1.803.483-3.63.56-5.344.198-2.595-.546-4.736-2.044-6.026-4.218-2.435-4.107-2.3-10.775 5.335-14.462.043-.024.077-.067.12-.087 4.59-1.927 7.456-2.473 10.022-1.58-4.354-8.595-10.838-21.53-14.747-29.333l-.3-.6a1.082 1.082 0 01-.072-.174c-2.31-4.585-4.421-8.764-6.088-12.05-1.058-2.087-.034-3.242.976-4.015 1.911-1.46 6.659-5.063 11.612-8.79l.744-.56.373-.28.942-.708.705-.528c4.918-3.689 9.556-7.128 11.315-8.321 1.11-.76 2.092-.725 2.715-.57zm27.27 27.213l-5.913 1.585.84 3.136-11.05 2.962-.618-.89a2.536 2.536 0 00-2.73-1.004 2.529 2.529 0 00-1.84 2.056l-.02.176-.092 1.082-8.843 2.368c-1.396.372-2.28 1.749-1.971 3.063.16.677.57 1.242 1.164 1.595a2.512 2.512 0 001.752.316l.2-.046 9.215-2.469 11.572 43.197a2.53 2.53 0 004.923-1.148l-.038-.162-11.572-43.196 11.258-3.015.749 2.793 5.914-1.585-2.9-10.814zm-228.26 16.159h-.227c-3.14.01-11.652.682-18.36 9.518-2.038 2.822-2.918 6.378-3.174 7.659-.608 4.551-.174 7.914.31 9.726.464 1.73 1.652 6.151 7.644 11.428 1.647 1.02 7.16 6.363 18.588 3.715 3.034-.702 5.732-2.198 8.099-4.169l.37-.315.349-.3 8.9-2.381-2.363-8.818.092-.464a21.183 21.183 0 00-.31-9.78c-2.37-8.862-10.003-14.936-18.64-15.771l-.382-.034h-.09c-.17-.002-.443-.012-.805-.014zm232.208 2.478c.179.664 2.223 8.295 4.436 16.556l.218.814.438 1.636.294 1.096.109.404.216.807c2.228 8.317 4.299 16.047 4.484 16.742.406 1.517-1.995 1.788-2.31.618-.148-.56-2.391-8.934-4.738-17.69l-.44-1.645c-2.401-8.958-4.78-17.832-5.016-18.72-.483-1.807 1.918-2.078 2.31-.618zm654.015 2.556a39.609 39.609 0 004.842 5.223c13.587 12.224 50.69 24.646 57.29 26.792 2.499-2.73 11.254-12.355 22.391-25.46a1.672 1.672 0 012.358-.192c.706.6.793 1.657.193 2.358-13.229 15.563-23.11 26.246-23.212 26.353a1.602 1.602 0 01-.782.483c-.3.082-.624.077-.937-.02-1.793-.565-44.134-13.963-59.538-27.826a42.828 42.828 0 01-5.252-5.663 1.675 1.675 0 01.3-2.348 1.675 1.675 0 012.347.3zm-701.806 21.51c-5.75 2.649-6.436 7.529-4.58 10.66.869 1.469 2.338 2.488 4.126 2.86 2.45.517 5.136-.372 7.702-1.942 5.822-3.556 5.885-6.765 3.725-10.51-1.087-2.063-5.228-4.222-10.973-1.067zm-189.646-22.445l.098.505-.078.144c-.15.216-.169 1.316-.091 1.609.622.693.41 1.397.194 1.87-.188.411-.34.836-.501 1.286l-.141.39.75.576 1.756 1.352.246.19-.164.264a16.56 16.56 0 00-.347.593c-.251.444-.512.903-.857 1.294-.3.344-.307.617-.206 1.098.08.367-.029.876-.257 1.208a33.69 33.69 0 01-1.845 2.403l-.107.126c-.226.266-.46.54-.436.738.02.163.219.336.381.452l.393.279-.391.28c-.12.086-.227.21-.342.342-.307.353-.82.945-1.686.24-.44-.362-.756-.201-1.32.136-.163.097-.33.197-.505.274-.043.123-.083.462-.063.892.005.076.143.281.282.355.403.217.862.396 1.363.532.883.238 1.412.74 1.616 1.532.04.163.112.307.54.312.441.004.884.029 1.327.054.595.034 1.21.07 1.806.047 1.011-.035 1.77.283 2.37.998.973 1.165 2.195 1.778 3.733 1.873.728.047 1.096.388 1.275.665.281.434.306 1.021.07 1.654-.165.44-.33.877-.303 1.255.098 1.243-.33 2.128-1.309 2.705-.03.018-.07.056-.113.096a1.25 1.25 0 01-.252.198c-.193.111-.309.236-.34.368-.043.182.07.404.17.557.4.6.152 1.059-.144 1.429-.234.292-.452.599-.704.954-.124.174-.254.358-.397.555l-.008-.005c-.265.308-1.207.561-1.217.564-.247.06-.528.103-.824.103-.668 0-1.422-.218-2.076-.948-.349-.388-.507-.853-.66-1.304a5.421 5.421 0 00-.258-.662c-.05-.102-.102-.203-.154-.303-.404-.78-.897-1.734-.165-2.693a63.25 63.25 0 00-.468-.26c-.459-.255-.934-.519-1.416-.708-.96-.381-1.423-.992-1.503-1.979-.049-.548-.207-1.117-.36-1.668-.048-.175-.097-.35-.143-.525-.155-.6-.798-1.145-1.464-1.238-.127-.018-.26-.027-.394-.037-.39-.027-.831-.058-1.172-.291-.37-.251-.764-.491-1.146-.724-1.24-.756-2.522-1.537-3.36-2.908l-.122-.202c-.305-.506-.685-1.137-1.162-1.481-.14-.1-.584-.13-.856-.114l-.38.023.015-.38c.304-8.001 5.716-14.77 13.465-16.845l.357-.095zm267.854 7.307c.207.604 5.058 14.897 1.507 21.58-.923 1.73-2.305 2.85-4.112 3.339-1.87.502-3.686.212-5.397-.86-6.484-4.054-9.398-18.744-9.519-19.367a1.451 1.451 0 011.049-1.676l14.722-3.943a1.455 1.455 0 011.75.927zm-713.68-31.397l.038.118 14.524 54.198a1.21 1.21 0 01-.855 1.484 1.21 1.21 0 01-1.445-.737l-.039-.119-4.933-18.404c-4.672-.198-9.33-8.34-11.547-16.621-2.412-9.002-2.248-19.299 2.811-20.656a1.208 1.208 0 011.445.737zm488.459 42.818a6.424 6.424 0 00-3.93 3.016 6.427 6.427 0 00-.652 4.908 6.428 6.428 0 003.018 3.933 6.44 6.44 0 004.91.649 6.429 6.429 0 003.933-3.018 6.425 6.425 0 00.649-4.91 6.426 6.426 0 00-3.016-3.929 6.425 6.425 0 00-4.912-.649zm-715.43-23.392c11.283 3.13 33.915 9.161 45.25 12.108.957.246.875 1.18.29 1.344l-38.325 10.272-3.514.941c-14.437 3.87-28.695 7.69-38.325 10.269-.556.145-.952-.686-.397-1.242 8.258-8.292 24.788-24.85 32.982-33.2.493-.502 1.131-.743 2.04-.492zm938.317 14.2l-12.056 3.232c1.063 4.6 3.866 13.601 7.93 16.138 1.014.633 2.034.802 3.106.517 1.01-.27 1.764-.894 2.295-1.899 2.223-4.184.116-13.442-1.275-17.989zm-254.569-8.799l.666.294a18.117 18.117 0 0110.244 11.953c1.472 5.504.218 11.48-3.353 15.982l-.093.117-1.588.134a3.393 3.393 0 01-.098.002c-1.507 0-2.05-.97-2.53-1.827l-.059-.104c-.224-.395-.398-.88.004-1.482a20.65 20.65 0 001.113-1.897c.08-.15.113-.327.1-.38-.115-.216-.23-.451-.347-.686-.673-1.366-1.309-2.656-2.848-3.192-.409-.141-.737-.604-.868-.974-.465-1.333-1.002-2.22-2.243-2.53-.427-.107-.66-.72-.722-1.03a20.033 20.033 0 01-.364-2.476c-.032-.42.11-.903.35-1.204.386-.488.808-.955 1.216-1.408.24-.266.48-.532.715-.805.073-.083.131-.163.167-.22-.107-.202-.189-.416-.268-.625-.227-.597-.393-.973-.913-1.15-.412-.138-.773-.614-.87-.977-.1-.375-.108-.762-.115-1.136-.004-.156-.007-.314-.016-.472l-.02-.306.302-.055c.208-.037.42-.06.629-.083.41-.045.8-.087 1.08-.245.616-.349.997-.762 1.134-1.227.041-.142-.057-.744-.21-1.289l-.195-.702zm-684.878-2.469a2903.84 2903.84 0 01-12.053 12.17l-1.245 1.251c-4.776 4.8-9.524 9.56-12.712 12.759-.44.44-.125 1.092.31.976 7.294-1.956 17.954-4.814 28.873-7.74l2.187-.586.82-.22 2.46-.659 28.874-7.736c.464-.12.532-.855-.222-1.054a2983.137 2983.137 0 01-16.574-4.377l-1.707-.456a2138.619 2138.619 0 01-17.402-4.714c-.715-.198-1.223-.01-1.61.386zm226.235-19.989c-1.749 2.276-2.17 9.031-.053 16.926 2.077 7.75 5.718 13.33 8.36 14.566l.149.065-8.456-31.557zm-14.249 24.918l-3.237.875a3.576 3.576 0 00-4.373-2.527l-6.89 1.846a3.576 3.576 0 00-2.527 4.372l-3.233.865a6.93 6.93 0 014.895-8.475l6.89-1.846c3.687-.986 7.49 1.208 8.475 4.89zm703.394-72.633l6.677 5.016c.266.197.454.483.541.801l17.738 66.327a1.482 1.482 0 01-1.044 1.812l-14.297 3.865a1.48 1.48 0 01-1.72-2.063l2.232-4.701-4.14-2.957a1.478 1.478 0 01-.378-2.015l2.798-4.267-4.45-3.175a1.478 1.478 0 01-.377-2.014l3.097-4.72-3.914-2.794a1.478 1.478 0 01-.377-2.014l2.349-3.581-4.243-3.03a1.478 1.478 0 01-.377-2.014l3.624-5.523-5.034-3.595a1.478 1.478 0 01-.377-2.015l3.01-4.59-4.75-3.392a1.48 1.48 0 01-.377-2.015l3.547-5.402-5.296-3.778a1.478 1.478 0 01-.377-2.015l3.789-5.779c.222-.343.57-.575.98-.647.401-.073.817.028 1.146.275zm719.129-11.408c.898 3.344.11 6.755-1.842 9.316 14.955-.16 29.566 12.214 34.432 30.358v.005c5.57 20.796-3.74 41.428-20.758 46.004-.01-.005-.014 0-.024 0-14.986 4.016-31.022-5.725-38.46-22.287l-7.162 1.92-3.71 11.496a2.288 2.288 0 01-1.875 1.565c-.88.12-1.73-.26-2.223-1l-11.07-16.66-2.531 10.475-19.86 5.32c-.86.237-1.69-.203-1.927-1.063-.237-.86.082-1.672 1.145-1.957l17.945-4.808 2.595-10.833a2.294 2.294 0 014.14-.73l11.182 16.83 3.643-11.292 8.476-2.282a47.941 47.941 0 01-1.316-4.149c-3.672-13.708-.879-27.343 6.32-36.354 2.334-2.924 5.127-5.354 8.316-7.152-2.971-1.246-5.359-3.802-6.252-7.146-1.537-5.735 1.88-11.654 7.62-13.196 5.735-1.536 11.654 1.88 13.196 7.62zm-719.651 14.718l-2.146 3.27 5.296 3.78c.648.459.812 1.352.377 2.014l-3.547 5.402 4.75 3.392a1.48 1.48 0 01.377 2.015l-3.01 4.59 5.034 3.595c.648.459.812 1.353.377 2.015l-3.624 5.523 4.243 3.03c.647.458.812 1.352.377 2.014l-2.349 3.58 3.914 2.793a1.48 1.48 0 01.377 2.015l-3.097 4.721 4.45 3.174c.647.46.812 1.353.377 2.015l-2.793 4.272 3.991 2.85c.585.416.783 1.194.479 1.842l-1.387 2.913 9.77-2.648-17.226-64.408-5.01-3.759zm730.546.898c-.14 20.879-13.96 39.839-34.466 47.092 6.925 14.857 21.241 23.569 34.582 19.998l.058-.014c15.355-4.155 23.676-23.082 18.545-42.225-3.054-11.394-10.196-20.337-18.719-24.85zm-566.125-52.493l62.819 36.263c.763.44 1.029 1.421.584 2.19a1.574 1.574 0 01-.97.748 1.597 1.597 0 01-1.073-.084l-.145-.076-10.867-6.27 16.592 61.972-77.077 20.71-8.737-32.608a1.505 1.505 0 01-.706-.372c-2.608-2.435-6.709-2.297-9.141.308a6.43 6.43 0 00-1.736 4.636 6.418 6.418 0 002.044 4.506l10.615 9.925c3.83 3.575 4.034 9.601.455 13.432a9.478 9.478 0 01-12.251 1.395 9.5 9.5 0 01-6.407 2.459c-2.332 0-4.665-.84-6.477-2.534l-9.715-9.082 3.61-3.86-3.554-3.322a1.507 1.507 0 01-.48-1.057 1.52 1.52 0 012.553-1.162l3.553 3.322 1.614-1.724-3.554-3.322a1.509 1.509 0 01-.48-1.057 1.51 1.51 0 01.407-1.088 1.52 1.52 0 012.146-.074l3.554 3.323 3.609-3.86 9.715 9.08a9.49 9.49 0 011.804 11.573 6.455 6.455 0 008.135-1.078 6.428 6.428 0 001.735-4.635 6.416 6.416 0 00-2.044-4.506l-10.567-9.88-.051-.025-.073-.093c-3.746-3.574-3.922-9.566-.374-13.36 2.868-3.063 7.301-3.805 10.916-2.146l-6.86-25.6-6.615 11.456a1.602 1.602 0 01-2.844-1.466l.07-.138 36.268-62.819zm-879.04 66.043a15.007 15.007 0 016.693-3.822c8.108-2.174 16.472 2.658 18.646 10.765 2.142 8-2.535 16.253-10.455 18.555l-.31.086-.247.069 4.073 15.2-40.983 10.983-4.073-15.201-.247.068c-8.103 2.169-16.467-2.658-18.64-10.765-2.17-8.109 2.657-16.472 10.765-18.646a15.049 15.049 0 017.779-.02c.845-5.962 5.17-10.964 11.118-12.558 5.924-1.59 12.167.566 15.882 5.286zm839.976 31.884l-8.833 9.45 7.496 7.01c1.649 1.541 3.533 2.08 5.6 1.602 1.643-.38 3.018-1.352 3.542-1.912 1.13-1.212 3.247-5.818-.309-9.141l-7.496-7.009zm-828.785-5.391l-34.707 9.301 3.233 12.06 34.707-9.301-3.233-12.06zm202.016-65.584c.66.147 1.183.648 1.357 1.302l.692 2.582 4.635-1.241a1.811 1.811 0 012.221 1.282l15.205 56.75c.26.967-.314 1.96-1.282 2.22l-89.441 23.965a1.806 1.806 0 01-1.376-.18 1.812 1.812 0 01-.845-1.102l-15.205-56.75a1.81 1.81 0 011.282-2.22l5.63-1.508-.656-2.458a1.813 1.813 0 01.669-1.92c.9-.672 22.26-16.361 40.238-10.037.565.2.995.663 1.15 1.242l11.663 43.534a1.812 1.812 0 11-3.502.938l-11.41-42.586c-13.947-4.219-30.757 6.26-34.977 9.12l13.973 52.39c5.638-3.75 21.069-13.069 33.058-11.512 1.29.116 5.153.025 6.368-1.854.2-.307.486-.548.823-.689.796-.333 18.372-7.594 31.889-5.64l-14.009-52.287c-4.229-.72-20.01-2.73-28.184 5.653a1.814 1.814 0 01-2.596-2.532c4.54-4.655 11.656-7.241 20.575-7.479 6.598-.174 11.835.97 12.055 1.017zm667.008-22.573l-25.667 45.1 16.626 62.045 70.902-19.014-16.612-62.006-45.25-26.125zm-661.136 29.187l-2.884.773 13.43 50.127a1.812 1.812 0 01-2.22 2.22c-8.65-2.32-20.715.828-27.456 3.042l-.565.187a83.776 83.776 0 00-4.046 1.465c-2.82 3.532-8.74 3.058-9.434 2.99a1.165 1.165 0 01-.057-.008c-13.195-1.736-32.444 12.19-32.637 12.331a1.814 1.814 0 01-2.822-.997l-13.374-50.141-3.875 1.038 14.267 53.248 85.94-23.027-14.267-53.248zm667.092 52.335c.347.234.577.608.629 1.024l1.961 15.736a1.45 1.45 0 01-1.064 1.58l-9.687 2.596a1.451 1.451 0 01-1.711-.837l-6.171-14.612a1.45 1.45 0 01.96-1.965l13.897-3.72a1.452 1.452 0 011.186.198zm-2.043 3.035l-10.68 2.858 5.031 11.914 7.248-1.941-1.6-12.831zm-205.303-15.723c-3.595 2.444-20.642 15.335-25.56 19.095-.112.092-.19.159-.242.203.02.048.048.115.092.198 1.493 2.942 3.343 6.61 5.373 10.634 3.46-2.7 8.33-6.29 13.065-9.774l.563-.415 1.127-.83c4.322-3.186 8.597-6.354 11.602-8.714-1.541-2.962-3.339-6.416-5.368-10.31-.044-.078-.184-.218-.275-.242-.058-.015-.194.029-.377.155zm721.646-7.731c.768.512.976 1.55.463 2.324a1.678 1.678 0 01-2.324.464c-5.764-3.837-15.582-6.567-29.595 2.237-9.586 6.02-14.055 17.771-11.664 30.667a1.662 1.662 0 01-1.333 1.947 1.674 1.674 0 01-1.952-1.338c-2.648-14.273 2.401-27.349 13.176-34.113 15.525-9.755 26.643-6.57 33.229-2.188zm-508.805-27.041c.335.198.576.524.67.903.579 2.36.759 6.333-1.616 8.024l9.198 34.333 4.795-1.284a1.45 1.45 0 011.777 1.025l4.126 15.384a1.45 1.45 0 11-2.801.752l-3.751-13.984-3.395.908 3.748 13.987a1.45 1.45 0 11-2.802.75l-3.747-13.986-3.377.905 3.746 13.984a1.45 1.45 0 11-2.802.75l-4.122-15.384a1.451 1.451 0 011.026-1.776l4.778-1.28-9.201-34.337c-2.897-.285-4.78-3.777-5.497-6.088a1.45 1.45 0 011.01-1.83l7.122-1.91a1.453 1.453 0 011.115.154zM491.31 381.442a11.963 11.963 0 00-8.859 11.33l-.002.301.014 2.474-2.275-.971a11.848 11.848 0 00-7.774-.556c-6.379 1.706-10.176 8.287-8.466 14.664 1.685 6.28 8.085 10.059 14.37 8.541l.294-.075.247-.068 40.983-10.982.247-.068c6.378-1.71 10.176-8.287 8.466-14.66-1.711-6.378-8.287-10.175-14.665-8.465a11.826 11.826 0 00-6.176 4.01l-.236.3-1.484 1.947-1.217-2.121c-2.7-4.697-8.238-7.001-13.467-5.6zm1441.695-13.839c-5.213 1.401-9.625 4.503-12.973 8.741-6.523 8.257-9.016 20.83-5.624 33.494.394 1.477.86 2.919 1.387 4.31.078.014.154.035.227.062l-.179.064c19.84-6.934 33.073-25.469 32.576-45.666-4.963-1.932-10.263-2.387-15.414-1.005zm-513.936-17.266c.335.199.577.524.67.903.579 2.361.759 6.334-1.615 8.025l9.199 34.337 4.765-1.274a1.45 1.45 0 011.717.849c.154.375 3.753 9.262 1.143 14.535-.896 1.81-2.374 3-4.395 3.541-.657.176-1.301.265-1.928.265-1.297 0-2.525-.377-3.666-1.129-4.771-3.14-6.268-12.082-6.415-13.037l-.01-.07a1.45 1.45 0 011.06-1.61l4.928-1.32-9.203-34.34c-2.893-.283-4.778-3.775-5.496-6.087a1.451 1.451 0 011.01-1.832l7.122-1.909a1.456 1.456 0 011.114.153zm543.106 50.437c.957 3.58-1.179 7.276-4.764 8.238-3.58.961-7.277-1.175-8.238-4.76a1.54 1.54 0 011.091-1.89 1.539 1.539 0 011.89 1.093 3.651 3.651 0 004.46 2.58 3.653 3.653 0 002.58-4.464 1.541 1.541 0 011.092-1.89 1.539 1.539 0 011.889 1.093zm-530.611-5.303l-9.93 2.657c.615 2.928 2.187 8.042 4.922 9.84.984.647 2.047.804 3.247.483 1.195-.32 2.028-.982 2.544-2.023 1.445-2.915.181-8.127-.783-10.957zm-232.158-28.318c.157.096 16.615 12.902 7.662 25.063l-.28.367-.003-.002h-.003l-.003.004a.082.082 0 00-.002.01v.03c.01.267.328 2.042 3.326 13.299.508 1.88-1.338 3.972-2.416.373-.107-.36-.215-.718-.323-1.076l-.216-.718c-.903-3.001-1.852-6.16-3.176-11.045.024.208-13.747-4.426-7.229-19.057.29-.647 1.174-.894 1.841-.618l1.126.46c-.256-1.247-.87-3.089-2.329-5.408-.31-.488-.179-1.126.31-1.531.487-.406 1.202-.469 1.715-.15zM186.394 328.795l.05.165 3.03 11.301a2.842 2.842 0 01-1.841 3.42l-.165.05-6.388 1.71a2.835 2.835 0 01-3.42-1.836l-.049-.165-.014-.058-5.301 1.421 10.775 40.22a5.623 5.623 0 01-3.972 6.875 5.617 5.617 0 01-6.813-3.75l-.062-.216-10.775-40.22-6.238 1.672a5.565 5.565 0 01-4.334-.604 5.577 5.577 0 01-2.585-3.532c-.675-2.848 1.093-5.8 3.957-6.688l.217-.062 6.866-1.841a5.616 5.616 0 013.929-3.847 5.617 5.617 0 015.139 1.194l.185.169 6.093-1.633-.106-.401a2.842 2.842 0 011.84-3.42l.165-.05 6.397-1.715a2.842 2.842 0 013.42 1.84zm1015.849 44.1c.546 2.053.362 3.26.324 3.468-.073.391-.348.74-.74.932-.386.194-.85.218-1.241.058l-2.01-.816c-4.195 8.692 2.976 13.461 5.136 14.655l2.039-.546c3.435-7.166-.058-14.181-3.508-17.752zM156.264 302.79c1.058.266 1.797 1.059 2.14 1.71 2.204 4.229 4.137 7.94 5.76 11.06.077.093.15.194.203.305 1.904 3.788 2.401 4.706 2.88 5.595.488.909.952 1.769 2.715 5.272a1.451 1.451 0 01-2.585 1.32s-1.725-3.33-4.817-9.283c-3.416 2.668-8.248 6.224-12.935 9.678l-1.14.84-1.14.841c-4.175 3.08-8.265 6.113-11.172 8.399a33304.41 33304.41 0 0116.65 33.093l.315.628c3.14 6.614 1.942 10.562-4.503 14.389-1.551.923-3.05 1.802-4.653 2.232-1.803.483-3.63.56-5.344.198-2.595-.546-4.736-2.044-6.026-4.218-2.435-4.107-2.3-10.775 5.335-14.462.043-.024.077-.067.12-.087 4.59-1.927 7.456-2.473 10.022-1.58-4.354-8.595-10.838-21.53-14.747-29.333l-.3-.6a1.082 1.082 0 01-.072-.174c-2.31-4.585-4.421-8.764-6.088-12.05-1.058-2.087-.034-3.242.976-4.015 2.054-1.57 7.387-5.616 12.729-9.63l.942-.708c5.175-3.884 10.178-7.6 12.02-8.85 1.11-.758 2.092-.724 2.715-.57zm27.27 27.213l-5.913 1.585.84 3.136-11.05 2.962-.618-.89a2.536 2.536 0 00-2.73-1.004 2.529 2.529 0 00-1.84 2.056l-.02.176-.092 1.082-8.843 2.368c-1.396.372-2.28 1.749-1.971 3.063.16.677.57 1.242 1.164 1.595a2.512 2.512 0 001.752.316l.2-.046 9.215-2.469L175.2 387.13a2.53 2.53 0 004.923-1.148l-.038-.162-11.572-43.196 11.258-3.015.749 2.793 5.914-1.585-2.9-10.814zm3.948 18.637l4.474 16.699.216.806.109.404.44 1.645.332 1.238.22.822 4.404 16.441c.406 1.517-1.995 1.788-2.31.618-.148-.56-2.391-8.934-4.738-17.69l-.44-1.645c-2.401-8.958-4.78-17.832-5.016-18.72-.483-1.807 1.918-2.078 2.31-.618zm1428.629-52.09l.045.141 4.72 17.612h.003l.024-.005c.594-.116 10.58-1.727 16.247 19.444 4.467 16.673-4.046 22.512-5.075 23.147l-.055.034a2.05 2.05 0 01-.042.024l-.003.002 2.826 10.543-72.771 19.501-5.577-20.82 72.773-19.501 1.956 7.3s7.567-3.29 3.204-20.018c-4.789-18.368-12.551-16.686-12.706-16.65h-.002l3.909 14.582a1.812 1.812 0 01-1.138 2.178l-.142.045-28.275 7.576 1.492 5.571 12.828-3.435a1.54 1.54 0 11.792 2.976l-38.973 10.442a1.54 1.54 0 01-1.889-1.092 1.54 1.54 0 011.092-1.89l12.829-3.435-1.492-5.568-28.278 7.578a1.812 1.812 0 01-2.177-1.138l-.045-.142-9.432-35.195a1.813 1.813 0 011.139-2.178l.142-.045 69.873-18.723a1.812 1.812 0 012.178 1.138zm-774.614 54.646a39.608 39.608 0 004.842 5.223c13.587 12.224 50.69 24.646 57.29 26.792 2.499-2.73 11.254-12.355 22.391-25.46a1.672 1.672 0 012.358-.192c.706.6.793 1.657.193 2.358-13.229 15.563-23.11 26.246-23.212 26.353a1.602 1.602 0 01-.782.483c-.3.082-.624.077-.937-.02-1.793-.565-44.134-13.963-59.538-27.826a42.828 42.828 0 01-5.252-5.663 1.675 1.675 0 01.3-2.348 1.675 1.675 0 012.347.3zm-701.806 21.51c-5.75 2.649-6.436 7.529-4.58 10.66.869 1.469 2.338 2.488 4.126 2.86 2.45.517 5.136-.372 7.702-1.942 5.822-3.556 5.885-6.765 3.725-10.51-1.087-2.063-5.228-4.222-10.973-1.067zm1487.355-22.256l-66.814 17.902 3.982 14.863 66.814-17.902-3.982-14.863zM217.9 357.568c.207.604 5.058 14.897 1.507 21.58-.923 1.73-2.305 2.85-4.112 3.339-1.87.502-3.686.212-5.397-.86-6.484-4.054-9.398-18.744-9.519-19.367a1.451 1.451 0 011.049-1.676l14.722-3.943a1.455 1.455 0 011.75.927zm-2.334 2.228l-12.056 3.233c1.063 4.6 3.866 13.601 7.93 16.138 1.014.633 2.034.802 3.106.517 1.01-.27 1.764-.894 2.295-1.899 2.223-4.184.116-13.442-1.275-17.989zm1712.667-10.027c-4.096 1.096-6.537 5.32-5.44 9.417 1.097 4.097 5.324 6.537 9.422 5.44 4.097-1.096 6.532-5.324 5.436-9.417-1.097-4.097-5.325-6.537-9.418-5.44zm-532.129 9.278l-3.98 1.067c.64 1.32 1.7 2.91 2.858 2.613l.01-.004.013-.004.125-.041c1.029-.417 1.102-2.232.974-3.63zM191.498 280.825l6.677 5.016c.266.197.454.483.541.801l17.738 66.327a1.482 1.482 0 01-1.044 1.812l-14.297 3.865a1.48 1.48 0 01-1.72-2.063l2.232-4.701-4.14-2.957a1.478 1.478 0 01-.378-2.015l2.798-4.267-4.45-3.175a1.478 1.478 0 01-.377-2.014l3.097-4.72-3.914-2.794a1.478 1.478 0 01-.377-2.014l2.349-3.581-4.243-3.03a1.478 1.478 0 01-.377-2.014l3.624-5.523-5.034-3.595a1.478 1.478 0 01-.377-2.015l3.01-4.59-4.75-3.392a1.48 1.48 0 01-.377-2.015l3.547-5.402-5.296-3.778a1.478 1.478 0 01-.377-2.015l3.789-5.779c.222-.343.57-.575.98-.647.401-.073.817.028 1.146.275zm1225.653 72.579l-3.98 1.066c.643 1.327 1.71 2.925 2.87 2.61 1.157-.31 1.243-2.22 1.11-3.676zm-506.525-83.987c.899 3.344.111 6.755-1.84 9.316 14.954-.16 29.565 12.214 34.431 30.358v.005c5.57 20.796-3.74 41.428-20.758 46.004-.01-.005-.014 0-.024 0-14.986 4.016-31.022-5.725-38.46-22.287l-7.162 1.92-3.71 11.496a2.288 2.288 0 01-1.875 1.565c-.88.12-1.73-.26-2.223-1l-11.07-16.66-2.531 10.475-19.86 5.32c-.86.237-1.69-.203-1.927-1.063-.237-.86.082-1.672 1.145-1.957l17.945-4.808 2.595-10.833a2.294 2.294 0 014.14-.73l11.182 16.83 3.643-11.292 8.476-2.282a47.94 47.94 0 01-1.316-4.149c-3.672-13.708-.879-27.343 6.32-36.354 2.334-2.924 5.127-5.354 8.316-7.152-2.971-1.246-5.359-3.802-6.252-7.146-1.537-5.735 1.88-11.654 7.62-13.196 5.735-1.536 11.654 1.88 13.195 7.62zm-719.65 14.718l-2.146 3.27 5.296 3.78c.648.459.812 1.352.377 2.014l-3.547 5.402 4.75 3.392a1.48 1.48 0 01.377 2.015l-3.01 4.59 5.034 3.595c.648.459.812 1.353.377 2.015l-3.624 5.523 4.243 3.03c.647.458.812 1.352.377 2.014l-2.349 3.58 3.914 2.793a1.48 1.48 0 01.377 2.015l-3.097 4.721 4.45 3.174c.647.46.812 1.353.377 2.015l-2.793 4.272 3.991 2.85c.585.416.783 1.194.479 1.842l-1.387 2.913 9.77-2.648-17.226-64.408-5.01-3.759zm730.546.898c-.14 20.879-13.96 39.839-34.466 47.092 6.925 14.857 21.241 23.569 34.582 19.998l.058-.014c15.355-4.155 23.676-23.082 18.545-42.225-3.054-11.394-10.196-20.337-18.719-24.85zM355.397 232.54l62.819 36.263c.763.44 1.029 1.421.584 2.19a1.574 1.574 0 01-.97.748 1.596 1.596 0 01-1.073-.084l-.145-.076-10.867-6.27 16.592 61.972-77.077 20.71-8.737-32.608a1.505 1.505 0 01-.706-.372c-2.608-2.435-6.709-2.297-9.141.308a6.43 6.43 0 00-1.736 4.636 6.418 6.418 0 002.044 4.506l10.615 9.925c3.83 3.575 4.033 9.601.455 13.432a9.478 9.478 0 01-12.251 1.395 9.5 9.5 0 01-6.407 2.459c-2.332 0-4.665-.84-6.477-2.534l-9.715-9.082 3.61-3.86-3.554-3.322a1.507 1.507 0 01-.48-1.057 1.52 1.52 0 012.553-1.162l3.553 3.322 1.614-1.724-3.554-3.322a1.509 1.509 0 01-.48-1.057 1.51 1.51 0 01.407-1.088 1.52 1.52 0 012.146-.074l3.554 3.323 3.609-3.86 9.715 9.08a9.49 9.49 0 011.804 11.573 6.455 6.455 0 008.135-1.078 6.428 6.428 0 001.735-4.635 6.416 6.416 0 00-2.044-4.506l-10.567-9.88-.051-.025-.073-.093c-3.746-3.574-3.922-9.566-.374-13.36 2.868-3.063 7.301-3.805 10.916-2.146l-6.86-25.6-6.615 11.456a1.602 1.602 0 01-2.844-1.466l.07-.138 36.268-62.819zm1237.654 109.943l-7.358 1.972 1.49 5.57 7.36-1.971-1.492-5.57zm20.582-43.994l-67.771 18.158 8.867 33.093 28.587-7.66c.043-.016.088-.03.133-.042l.137-.03 10.097-2.706c.035-.012.07-.023.106-.033l.113-.026 28.598-7.661-8.867-33.093zm-58.828-11.263l6.756 1.797.15.846c.507 2.904 1.202 5.958 2.473 6.6.832.42 2.372.058 4.716-1.106l.831-.411 4.513 4.194-.44.894c-1.492 3.04-1.821 5.3-3.121 5.412-.493.033-.952-.32-1.077-.6-.445-.985-.256-1.536 1.362-5.102l-1.715-1.595c-2.817 1.28-4.726 1.484-6.281.701-2.074-1.048-2.986-3.619-3.755-7.683l-3.107-.826c-1.75 2.803-3.672 4.243-5.745 4.286-2.092.044-4.111-1.353-6.016-4.16l-3.067.836c-.233 3.213-1.175 5.286-2.866 6.315-1.807 1.102-4.228.928-7.561-.541l-1.556 1.623c1.56 3.015 1.84 5.281.898 7.089-1.014 1.937-3.338 3.068-7.276 3.541l-.72 2.653c2.942 1.754 4.348 3.435 4.512 5.368.184 2.136-1.135 4.233-4.387 6.934l.658 2.42c3.648.31 5.76 1.247 6.783 2.996 1.058 1.798.817 4.223-.797 7.784l1.715 1.59c2.305-1.073 4.813-1.86 6.828-.846 2.198 1.107 3.13 4.015 3.74 7.142l2.314.613c1.88-2.348 2.957-3.082 3.788-3.435.3-.126 1.101-.29 1.46.391.425.812.043 1.228-.653 1.648-2.115 1.272-2.955 3.4-3.206 4.2l-.045.151c-.03.107-.044.167-.044.167l-5.953-1.585-.15-.84c-.638-3.61-1.42-5.538-2.46-6.06-.932-.469-2.604-.072-5.261 1.256l-.831.416-4.523-4.184.44-.9c1.488-3.038 1.933-5.112 1.32-6.15-.585-.995-2.466-1.58-5.587-1.744l-.97-.049-1.629-5.977.696-.55c2.84-2.252 4.175-3.943 4.068-5.166-.092-1.087-1.454-2.353-4.044-3.768l-.928-.508 1.745-6.44.941-.107c3.417-.3 5.46-1.039 6.074-2.208.556-1.063.106-2.875-1.333-5.397l-.498-.87 4.271-4.455.88.425c2.783 1.353 4.822 1.73 5.885 1.078 1.005-.614 1.555-2.324 1.628-5.093l.024-.995 6.895-1.875.527.86c1.483 2.43 2.981 3.754 4.218 3.725 1.237-.024 2.614-1.343 3.986-3.812l.507-.913zM316.333 330.467l-8.833 9.45 7.496 7.01c1.649 1.541 3.533 2.08 5.6 1.602 1.643-.38 3.018-1.352 3.542-1.912 1.13-1.212 3.247-5.818-.309-9.141l-7.496-7.009zm1295.126-25.393l5.86 21.884a1.81 1.81 0 01-1.28 2.222l-57.261 15.341a1.814 1.814 0 01-2.223-1.28l-5.861-21.883a1.814 1.814 0 011.28-2.223l57.262-15.34a1.814 1.814 0 012.223 1.28zM356.572 236.92l-25.667 45.1 16.626 62.045 70.902-19.014-16.612-62.006-45.25-26.125zm1252.364 69.962l-55.16 14.781 5.301 19.781 55.16-14.78-5.3-19.782zm-1246.408 11.56c.347.234.577.608.629 1.024l1.961 15.736a1.45 1.45 0 01-1.064 1.58l-9.687 2.596a1.451 1.451 0 01-1.711-.837l-6.171-14.612a1.45 1.45 0 01.96-1.965l13.897-3.72a1.452 1.452 0 011.186.198zm-2.043 3.035l-10.68 2.858 5.031 11.914 7.248-1.941-1.6-12.831zm-205.303-15.723c-3.595 2.444-20.642 15.335-25.56 19.095-.112.092-.19.159-.242.203.02.048.048.115.092.198 1.493 2.942 3.343 6.61 5.373 10.634 3.46-2.7 8.33-6.29 13.065-9.774l.563-.415 1.127-.83c4.322-3.186 8.597-6.354 11.602-8.714-1.541-2.962-3.339-6.416-5.368-10.31-.044-.078-.184-.218-.275-.242-.058-.015-.194.029-.377.155zm721.646-7.731c.768.512.976 1.55.463 2.324a1.678 1.678 0 01-2.324.464c-5.764-3.837-15.582-6.567-29.595 2.237-9.586 6.02-14.055 17.771-11.664 30.667.17.86-.367 1.69-1.203 1.918l-.13.03a1.674 1.674 0 01-1.952-1.339c-2.648-14.273 2.401-27.349 13.176-34.113 15.525-9.755 26.643-6.57 33.229-2.188zM368.023 270.98c.335.198.576.524.67.903.579 2.36.759 6.333-1.616 8.024l9.198 34.333 4.795-1.284a1.45 1.45 0 011.777 1.025l4.126 15.384a1.45 1.45 0 11-2.801.752l-3.751-13.984-3.395.909 3.748 13.986a1.45 1.45 0 11-2.802.75l-3.747-13.986-3.377.905 3.746 13.984a1.45 1.45 0 11-2.802.75l-4.122-15.384a1.451 1.451 0 011.026-1.776l4.778-1.281-9.201-34.336c-2.897-.285-4.78-3.777-5.497-6.088a1.45 1.45 0 011.01-1.83l7.122-1.91a1.453 1.453 0 011.115.154zm1193.987 35.886s.821 1.155-.27 1.812c-1.02.618-2.146-.541-2.272-.532-2.358-2.343-7.431-4.69-13.104-3.227-.062.015-.125.034-.188.048-3.667 1-6.702 3.296-8.557 6.48-1.874 3.218-2.363 7.025-1.367 10.727 1.169 4.353 4.102 7.667 7.812 9.363l.735.305.024.012c.183.092 1.341.742.561 1.959-.541.84-1.257.691-2.204.275-4.522-1.98-8.112-5.962-9.523-11.224-1.179-4.397-.6-8.933 1.643-12.77 2.213-3.798 5.817-6.533 10.17-7.716l.223-.059c7.127-1.84 13.404 1.32 16.317 4.547zm237.899-11.548c4.3 16.052-5.745 32.74-22.395 37.2-16.65 4.46-33.693-4.967-37.993-21.018-4.3-16.051 5.745-32.736 22.396-37.2 16.65-4.46 33.692 4.967 37.992 21.018zm-37.055-17.515c-14.717 3.943-23.613 18.636-19.83 32.76 3.783 14.123 18.834 22.395 33.552 18.452 14.718-3.942 23.614-18.636 19.83-32.76-3.783-14.123-18.834-22.395-33.552-18.452zm-859.848 4.8c-5.213 1.4-9.625 4.502-12.973 8.74-6.523 8.257-9.016 20.83-5.624 33.494.394 1.477.86 2.919 1.387 4.31.078.014.154.035.227.062l-.179.064c19.84-6.934 33.073-25.469 32.576-45.666-4.963-1.932-10.263-2.387-15.414-1.005zM389.07 265.336c.335.199.577.524.67.903.579 2.361.759 6.334-1.615 8.025l9.199 34.337 4.765-1.274a1.45 1.45 0 011.717.849c.154.375 3.753 9.262 1.143 14.535-.896 1.81-2.374 3-4.395 3.541-.657.176-1.301.265-1.928.265-1.297 0-2.525-.377-3.666-1.129-4.771-3.14-6.268-12.082-6.415-13.037l-.01-.07a1.45 1.45 0 011.06-1.61l4.928-1.32-9.203-34.34c-2.893-.283-4.778-3.775-5.496-6.087a1.451 1.451 0 011.01-1.832l7.122-1.909a1.456 1.456 0 011.114.153zm543.106 50.437c.957 3.58-1.18 7.276-4.764 8.238-3.58.961-7.277-1.175-8.239-4.76a1.54 1.54 0 011.092-1.89 1.539 1.539 0 011.89 1.093 3.651 3.651 0 004.46 2.58 3.653 3.653 0 002.58-4.464 1.541 1.541 0 011.092-1.89 1.539 1.539 0 011.889 1.093zm-530.611-5.303l-9.93 2.657c.615 2.928 2.187 8.042 4.922 9.84.984.647 2.047.804 3.247.483 1.195-.32 2.028-.982 2.544-2.023 1.445-2.915.181-8.127-.783-10.957zm-232.158-28.318c.157.096 16.615 12.902 7.662 25.063l-.28.368v-.001l-.003-.002h-.003l-.003.004a.08.08 0 00-.002.01v.03c.01.267.328 2.042 3.326 13.299.508 1.88-1.338 3.972-2.416.373-.107-.36-.215-.718-.323-1.076l-.216-.718c-.903-3.001-1.852-6.16-3.176-11.045.024.208-13.747-4.426-7.229-19.057.29-.647 1.174-.894 1.841-.618l1.126.46c-.256-1.247-.87-3.089-2.329-5.408-.31-.488-.179-1.126.31-1.531.487-.406 1.202-.469 1.715-.15zm1606.092 7.561a9.182 9.182 0 01-1.474 7.813c7.307.6 13.814 5.618 15.96 13.019l.101.365.401 1.489-35.035 9.388-.401-1.488c-2.083-7.77 1.236-15.733 7.634-19.903a9.17 9.17 0 01-4.953-5.923c-1.309-4.9 1.605-9.95 6.504-11.263 4.9-1.31 9.949 1.604 11.263 6.503zm-700.884-68.49l5.547 19.52 4.739 6.596.383-.692a1.548 1.548 0 011.964-.669l.133.065c.368.202 2.903 3.063 5.426 6.011l.503.59c2.427 2.85 4.707 5.621 4.87 5.991.323.732.03 1.58-.65 1.967l-.133.067-2.229.984 19.672 27.398-42.067 11.271 6.48 11.613c.324.732.035 1.58-.65 1.967l-.132.067a1.545 1.545 0 01-1.975-.65l-.064-.128-6.528-11.577a22.691 22.691 0 01-14.876 3.18l-.537-.078-1.527 14.892a1.54 1.54 0 01-1.503 1.58 1.538 1.538 0 01-1.57-1.363l-.01-.14 1.513-15.674c-7.306-2.213-13.341-8.03-15.457-15.93l-.16-.643c-4.143.793-8.4-.454-11.471-3.366l-.26-.253-11.046-2.75 7.282-7.789a13.07 13.07 0 019.644-11.369 13.039 13.039 0 0112.669 3.407 22.79 22.79 0 019.47-5.18 22.67 22.67 0 017.9-.691l1.358-13.64-5.31-19.598 18.602-4.987zm694.062 79.845c-7.41 1.981-12.05 9.19-11.018 16.599l.05.327 28.927-7.75c-2.706-7.122-10.446-11.19-17.96-9.176zM586.11 211.55l.045.142 4.72 17.612h.003l.024-.005c.594-.116 10.58-1.727 16.247 19.444 4.702 17.55-4.978 23.096-5.172 23.205l-.003.002 2.826 10.543-72.771 19.501-5.577-20.82 72.773-19.501 1.956 7.3s7.567-3.29 3.204-20.018c-4.789-18.368-12.551-16.686-12.706-16.65h-.002l3.909 14.582a1.812 1.812 0 01-1.138 2.178l-.142.045-28.275 7.576 1.492 5.571 12.828-3.435a1.54 1.54 0 11.792 2.976l-38.973 10.442a1.54 1.54 0 01-1.889-1.092 1.54 1.54 0 011.092-1.89l12.829-3.435-1.492-5.568-28.278 7.578a1.812 1.812 0 01-2.177-1.138l-.045-.142-9.432-35.195a1.813 1.813 0 011.139-2.178l.142-.045 69.873-18.723a1.812 1.812 0 012.178 1.138zm466.751 51.561a19.694 19.694 0 00-8.917 5.18l-.316.329-1.247 1.324-1.101-1.445a9.997 9.997 0 00-10.563-3.61 9.99 9.99 0 00-7.387 8.844l-.02.289-.029.56-4.45 4.764 6.827 1.701.314.333a10.002 10.002 0 009.935 2.866l.192-.057.19-.064 1.908-.633.29 1.788c.106.671.251 1.348.425 2 2.817 10.504 13.655 16.767 24.164 13.95 10.51-2.817 16.766-13.655 13.95-24.17-2.818-10.508-13.655-16.766-24.165-13.949zm-455.816 2.34l-66.814 17.902 3.982 14.863 66.814-17.902-3.982-14.863zm1167.992 20.742c-3.257.874-5.194 4.233-4.324 7.48a6.115 6.115 0 007.484 4.324 6.115 6.115 0 004.325-7.484 6.116 6.116 0 00-7.485-4.32zm-664.316-11.524c-1.252 1.643-5.088 5.88-12.892 3.005-.766 1.154-3.572 3.673-7.04 4.454a22.88 22.88 0 01-4.912 14.161l33.855-9.072-9.011-12.548zm473.585-15.177l4.508.005.227.788c.396 1.372.952 2.266 1.484 2.401.53.13 1.4-.367 2.391-1.377l.595-.609 3.797 2.213-.068.696c-.072.778-.294 3.15.252 3.648.169.15.705.353 2.42.02l.74-.146 2.073 3.344-.537.609c-1.54 1.744-1.633 2.512-1.555 2.812.077.285.507.865 2.536 1.536l.75.252-.01 3.938-.662.28c-2.16.918-2.696 1.556-2.764 1.933-.048.27.082.932 1.526 2.328l.62.6-2.165 3.667-.75-.14c-2.319-.425-3.058-.068-3.295.188-.212.227-.492.89-.004 2.798l.202.792-3.396 2.025-.595-.522c-1.671-1.474-2.444-1.46-2.7-1.387-.503.145-1 .952-1.407 2.28l-.227.764-4.508-.014-.227-.788c-.469-1.638-1.092-2.706-1.662-2.85-.444-.117-1.169.304-1.99 1.145l-.793.787-3.392-1.976.063-.691c.174-1.875.063-3.005-.324-3.353-.338-.305-1.261-.314-2.735-.02l-.74.145-2.082-3.343.537-.61c1.541-1.743 1.633-2.512 1.55-2.811-.077-.285-.507-.865-2.536-1.537l-.749-.246.005-3.938.662-.28c2.155-.918 2.691-1.561 2.764-1.938.048-.27-.082-.932-1.532-2.329l-.618-.594 2.145-3.648.749.116c2.329.42 3.068.063 3.305-.189.208-.227.488-.889 0-2.797l-.203-.788 3.397-2.03.594.523c1.178 1.034 2.16 1.546 2.7 1.382.503-.145 1.001-.957 1.402-2.286l.232-.778zm2.909 2.194h-1.305c-.633 1.676-1.493 2.648-2.624 2.971-1.212.348-2.527-.072-4.121-1.324l-.672.402c.358 1.85.136 3.13-.695 4.024-.89.957-2.33 1.266-4.528.972l-.536.913c1.266 1.372 1.763 2.546 1.556 3.677-.232 1.27-1.252 2.251-3.388 3.252v.952c1.9.73 2.89 1.59 3.209 2.768.328 1.208-.135 2.513-1.493 4.204l.444.715c1.29-.203 2.832-.266 3.87.672 1.131 1.02 1.198 2.812 1.093 4.474l.758.44c1.286-1.165 2.513-1.61 3.657-1.32 1.277.31 2.248 1.484 2.968 3.561l1.299.005c.638-1.671 1.498-2.648 2.629-2.966 1.213-.348 2.526.077 4.121 1.333l.672-.4c-.353-1.851-.13-3.132.7-4.02.89-.958 2.334-1.267 4.528-.967l.536-.909c-1.266-1.377-1.758-2.546-1.546-3.677.237-1.27 1.257-2.251 3.392-3.247l.005-.952c-1.894-.734-2.89-1.594-3.203-2.773-.324-1.208.135-2.513 1.497-4.199l-.445-.72c-1.68.237-2.778.03-3.55-.667-1.059-.956-1.184-2.536-1.015-4.769l-1.16-.676c-1.377 1.213-2.677 1.677-3.86 1.377-1.204-.304-2.14-1.353-2.793-3.126zm251.51-10.316c4.3 16.051-5.745 32.735-22.395 37.2-1.189.319-3.305.875-4.378.333-.816-.415-.86-1.942-.357-2.705.666-1.01 2.6-.812 3.797-1.136 14.718-3.943 23.613-18.636 19.83-32.76-3.783-14.123-18.834-22.395-33.552-18.452-14.718 3.942-23.613 18.636-19.83 32.76.256.96 1.02 2.319.58 3.193-.41.817-2.044 1.228-2.803.725-.816-.536-1.019-2.015-1.28-2.976-4.3-16.052 5.745-32.736 22.396-37.2 16.65-4.46 33.692 4.967 37.992 21.018zm-252.298 16.559c5.117.077 9.302 4.276 9.33 9.359.01 2.46-1.014 4.9-2.817 6.697-1.71 1.71-3.999 2.717-6.33 2.797l-.318.005h-.048c-5.272-.038-9.379-4.228-9.355-9.543.01-2.546.995-4.909 2.774-6.653 1.682-1.65 3.904-2.584 6.305-2.658l.329-.004h.13zm-.034 1.84h-.106c-.295 0-.594.015-.884.049a7.462 7.462 0 00-4.455 2.087c-1.425 1.397-2.213 3.296-2.223 5.349-.02 4.286 3.286 7.663 7.528 7.692 1.952.034 3.914-.792 5.383-2.261 1.455-1.454 2.286-3.416 2.276-5.383-.02-4.092-3.388-7.474-7.519-7.532zm-678.162-4.999c-4.096 1.096-6.537 5.32-5.44 9.417 1.097 4.097 5.324 6.537 9.422 5.44 4.097-1.096 6.532-5.324 5.436-9.417-1.097-4.097-5.325-6.537-9.418-5.44zm194.061-1.845l-15.247 6.733a22.702 22.702 0 013.535 9.431l.128-.025.352-.085a7.33 7.33 0 004.783-4.059c.025-.053.054-.106.083-.16.091-.159.207-.299.343-.41a1.546 1.546 0 011.764-.155l.149.102a7.319 7.319 0 006.17 1.126 7.293 7.293 0 004.297-3.163l.158-.263-6.515-9.072zm-726.19 11.123l-3.98 1.067c.643 1.325 1.71 2.923 2.873 2.609 1.155-.31 1.24-2.219 1.107-3.676zm1438.604-25.915a9.17 9.17 0 01-1.328 7.605c7.51.4 14.27 5.481 16.466 13.05l.101.363.402 1.488-.078.02-.096.024-.132.033-.167.042a920.422 920.422 0 00-17.708 4.646l-.773.213-1.164.322-.777.216-.776.217-.774.218c-1.159.327-2.309.656-3.434.983-2.073.604-3.088-2.348-.943-2.943 2.499-.685 5.804-1.577 9.126-2.467l.712-.19.686-.184c6.394-1.71 12.437-3.31 12.437-3.31-2.706-7.122-10.446-11.19-17.96-9.175-6.57 1.764-9.939 5.86-10.127 12.336 0 0 .043 1.816-1.575 1.865-1.474.043-1.513-1.643-1.513-1.643.073-5.885 2.006-9.616 6.813-12.94a9.177 9.177 0 01-5.184-6.03c-1.31-4.9 1.604-9.949 6.503-11.263 4.9-1.31 9.95 1.604 11.263 6.504zm-492.656-9.732l3.295 12.297-93.293 24.995-3.295-12.297 93.293-24.995zm-924.9 30.004l-3.98 1.066c.643 1.327 1.71 2.925 2.87 2.61 1.157-.31 1.243-2.22 1.11-3.676zm922.339-26.346l-87.215 23.367 1.774 6.61 87.214-23.367-1.773-6.61zm680.497-76.076c1.001 1.155 1.698 2.557 2.23 3.982.14.346.264.704.37 1.073.282.877.513 1.742.728 2.543l14.701 54.854c.086.323.157.645.212.969l4.412 16.464a10.477 10.477 0 01-1.064 7.997 10.466 10.466 0 01-6.394 4.918l-46.68 12.509c-.91.243-1.825.36-2.725.36-4.658 0-8.93-3.112-10.189-7.818-.041-.154-2.006-7.513-4.103-15.351l-.207-.773-.207-.774a16.625 16.625 0 01-.15-.524c-.081-.301-1.045-3.872-2.077-7.712l-.194-.723c-.94-3.5-1.896-7.066-2.261-8.466a23.822 23.822 0 01-.348-1.326l-.005-.016h.002c-.201-.945-.1-1.34.437-1.88l.757-.763 1.037.284c1.057.29 1.233.99 1.583 2.383.02.085.05.2.087.34l.087.307v.002c.254.9 2.284 8.474 4.365 16.253l.211.791c.597 1.91 2.445 6.125 6.956 4.918l47.955-12.847c3.463-.928 5.624-4.316 5.11-7.783l-15.543-58.004-.025-.088c-.078-.242-.16-.482-.246-.719-1.218-2.986-4.39-4.458-7.859-3.53l-14.143 3.81-.758.204-1.895.51-.898.243c-6.561 1.767-12.51 3.368-12.856 3.459-2.587.683-3.428-.29-3.677-1.228-.206-.776-.141-2.19 2.613-2.926l30.623-8.204c4.332-1.163 7.705-.396 10.028 2.282zm-903.234 85.04c-.485.055-2.67 3.497-4.936 7.28l-.324.542-.162.272-.405.682a471.847 471.847 0 00-3.171 5.456l-.544.952c-.548.96-.928 1.633-1.053 1.855l-.021.035.071-.035c2.008-1.026 16.478-8.444 16.959-9.17l.012-.028c.082-.734-5.494-7.953-6.426-7.842zm919.758-13.799a10.628 10.628 0 01-6.045 4.29l-47.956 12.847c-2.052.55-4.01.401-5.734-.346l2.37 8.868c.977 3.653 4.745 5.83 8.404 4.852l46.68-12.51a6.81 6.81 0 004.157-3.201 6.817 6.817 0 00.695-5.204l-2.57-9.596zm-934.036-12.236l-12.684 3.397 4.649 17.158-.03.28-1.402 14.107a23.007 23.007 0 0111.051 6.085l.334.339 8.853-16.019-5.91-8.233-4.861-17.114zm710.876 2.247c.255.962.82 2.344.381 3.218-.41.817-2.029 1.276-2.792.778-.817-.536-.837-2.092-1.092-3.054-3.784-14.118-18.835-22.395-33.552-18.452-14.718 3.942-23.614 18.636-19.83 32.76 3.783 14.118 18.834 22.395 33.552 18.452 1.198-.319 2.773-1.454 3.856-.913.811.4 1.541 1.749 1.039 2.512-.662 1-2.774 1.58-3.958 1.9-16.65 4.459-33.692-4.968-37.992-21.02-4.3-16.05 5.744-32.735 22.395-37.2 16.65-4.46 33.692 4.968 37.993 21.02zm-1220.3 30.249l-7.358 1.972 1.49 5.57 7.36-1.971-1.492-5.571zm20.582-43.994l-67.771 18.158 8.867 33.093 28.587-7.66c.043-.016.088-.03.133-.042l.137-.03 10.1-2.708a1.58 1.58 0 01.103-.03l.109-.026 28.602-7.662-8.867-33.093zm-58.828-11.263l6.756 1.797.15.846c.507 2.904 1.202 5.958 2.473 6.6.832.42 2.372.058 4.716-1.106l.831-.411 4.513 4.194-.44.894c-1.492 3.04-1.821 5.3-3.121 5.412-.493.033-.952-.32-1.077-.6-.445-.985-.256-1.536 1.362-5.102l-1.715-1.595c-2.817 1.28-4.726 1.484-6.281.701-2.074-1.048-2.986-3.619-3.755-7.683l-3.107-.826c-1.75 2.803-3.672 4.243-5.745 4.286-2.092.044-4.111-1.353-6.016-4.16l-3.067.836c-.233 3.213-1.175 5.286-2.866 6.315-1.807 1.102-4.228.928-7.561-.541l-1.556 1.623c1.56 3.015 1.84 5.281.898 7.089-1.014 1.937-3.338 3.068-7.276 3.541l-.72 2.653c2.942 1.754 4.348 3.435 4.512 5.368.184 2.136-1.135 4.233-4.387 6.934l.658 2.42c3.648.31 5.76 1.247 6.783 2.996 1.058 1.798.817 4.223-.797 7.784l1.715 1.59c2.305-1.073 4.812-1.86 6.828-.846 2.198 1.107 3.13 4.015 3.74 7.142l2.314.613c1.88-2.348 2.957-3.082 3.788-3.435.3-.126 1.101-.29 1.46.391.425.812.043 1.228-.653 1.648-2.115 1.272-2.955 3.4-3.206 4.2l-.045.151c-.03.107-.044.167-.044.167l-5.953-1.585-.15-.84c-.638-3.61-1.42-5.538-2.46-6.06-.932-.469-2.604-.072-5.261 1.256l-.831.416-4.523-4.184.44-.9c1.488-3.038 1.933-5.112 1.32-6.15-.585-.995-2.466-1.58-5.587-1.744l-.97-.049-1.629-5.977.696-.55c2.84-2.252 4.175-3.943 4.068-5.166-.092-1.087-1.454-2.353-4.044-3.768l-.928-.508 1.745-6.44.941-.107c3.417-.3 5.46-1.039 6.074-2.208.556-1.063.106-2.875-1.333-5.397l-.498-.87 4.271-4.455.88.425c2.783 1.353 4.822 1.73 5.885 1.078 1.005-.614 1.555-2.324 1.628-5.093l.024-.995 6.895-1.875.527.86c1.483 2.43 2.981 3.754 4.218 3.725 1.237-.024 2.614-1.343 3.986-3.812l.507-.913zm56.654 17.848l5.86 21.884a1.81 1.81 0 01-1.28 2.222l-57.261 15.341a1.814 1.814 0 01-2.223-1.28l-5.861-21.883a1.814 1.814 0 011.28-2.223l57.262-15.34a1.814 1.814 0 012.223 1.28zm1407.29 32.133a2.813 2.813 0 01-1.819 3.382l-.163.049-13.075 3.503a2.788 2.788 0 01-2.123-.283 2.785 2.785 0 01-1.307-1.698 2.773 2.773 0 01.283-2.124 2.783 2.783 0 011.698-1.306l13.075-3.504c1.49-.4 3.03.489 3.43 1.981zm-687.063-27.717l3.296 12.297-80.914 21.68-3.295-12.297 80.913-21.68zm492.565 20.115a6.115 6.115 0 00-4.324 7.484 6.115 6.115 0 007.484 4.324 6.116 6.116 0 004.32-7.484c-.875-3.257-4.233-5.194-7.48-4.324zM578.936 221.88l-55.16 14.781 5.301 19.781 55.16-14.78-5.3-19.782zm1180.975 1.961a9.179 9.179 0 01-1.473 7.813c5.827.479 9.363 2.74 12.37 7.804 0 0 .806 1.478-.49 2.179-1.43.768-2.299-.827-2.299-.827-3.401-5.517-8.369-7.378-14.94-5.619-7.513 2.015-12.18 9.403-10.968 16.926 0 0 5.002-1.358 10.725-2.895l.676-.182 1.023-.275.686-.184.712-.19.356-.096.71-.19c2.956-.79 5.834-1.555 8.073-2.139 2.16-.56 2.759 2.503.667 3.015-.633.155-1.273.314-1.916.475l-.775.194-.388.098-.779.197c-1.17.298-2.344.601-3.509.905l-.775.203-1.155.304-.764.203a915.15 915.15 0 00-15.814 4.353l-.005.002-.4-1.488c-2.083-7.77 1.236-15.738 7.639-19.903a9.17 9.17 0 01-4.953-5.924c-1.31-4.899 1.604-9.948 6.504-11.263 4.899-1.309 9.948 1.605 11.262 6.504zm-460.78 4.31l-74.836 20.052 1.773 6.61 74.836-20.052-1.774-6.61zm-767.121-6.285s.821 1.155-.27 1.812c-1.02.618-2.146-.541-2.272-.532-2.358-2.343-7.431-4.69-13.104-3.227l-.188.048c-3.667 1-6.702 3.296-8.557 6.48-1.875 3.218-2.363 7.025-1.367 10.727 1.169 4.353 4.102 7.667 7.812 9.363l.735.305.024.012c.183.092 1.341.742.561 1.959-.541.84-1.257.691-2.204.275-4.522-1.98-8.112-5.962-9.523-11.224-1.179-4.397-.6-8.933 1.643-12.77 2.213-3.798 5.817-6.533 10.17-7.716l.223-.059c7.127-1.84 13.404 1.32 16.317 4.547zm237.899-11.548c4.3 16.052-5.745 32.74-22.395 37.2-16.65 4.46-33.693-4.967-37.993-21.018-4.3-16.051 5.745-32.736 22.396-37.2 16.65-4.46 33.692 4.967 37.992 21.018zm-37.055-17.515c-14.717 3.943-23.613 18.636-19.83 32.76 3.783 14.123 18.834 22.395 33.552 18.452 14.718-3.942 23.614-18.636 19.83-32.76-3.783-14.123-18.834-22.395-33.552-18.452zm485.392 9.454l9.683 36.147a1.698 1.698 0 01-1.059 2.03l-.14.043a1.699 1.699 0 01-2.072-1.198l-9.683-36.147a1.699 1.699 0 011.198-2.073c.899-.241 1.831.3 2.073 1.198zm7.073-1.899l9.683 36.147a1.695 1.695 0 01-1.058 2.03l-.14.043a1.699 1.699 0 01-2.073-1.198l-9.683-36.147a1.699 1.699 0 011.199-2.073c.898-.241 1.83.3 2.072 1.198zm-479.82 4.355a9.182 9.182 0 01-1.474 7.813c7.307.6 13.814 5.618 15.96 13.019l.101.365.401 1.489-35.035 9.388-.401-1.488c-2.083-7.77 1.236-15.733 7.634-19.903a9.17 9.17 0 01-4.953-5.923c-1.309-4.9 1.605-9.95 6.504-11.263 4.9-1.31 9.949 1.604 11.263 6.503zm-700.884-68.49l5.547 19.52 4.739 6.596.383-.692a1.548 1.548 0 011.964-.669l.133.065c.356.196 2.737 2.875 5.173 5.717l.756.884c2.427 2.85 4.707 5.621 4.87 5.991.323.732.03 1.58-.65 1.967l-.133.067-2.229.984 19.672 27.398-42.067 11.271 6.48 11.613c.324.732.035 1.58-.65 1.967l-.132.067a1.545 1.545 0 01-1.975-.65l-.064-.128-6.528-11.577a22.691 22.691 0 01-14.876 3.18l-.537-.078-1.527 14.892a1.54 1.54 0 01-1.503 1.58 1.538 1.538 0 01-1.57-1.363l-.01-.14 1.513-15.674c-7.306-2.213-13.341-8.03-15.457-15.93l-.16-.643c-4.143.793-8.4-.454-11.471-3.366l-.26-.253L-17 196.07l7.282-7.789a13.07 13.07 0 019.644-11.369 13.039 13.039 0 0112.669 3.407 22.79 22.79 0 019.47-5.18 22.67 22.67 0 017.9-.691l1.358-13.64-5.31-19.598 18.602-4.987zm1930.967 66.544a9.513 9.513 0 01-1.18 7.607c7.514.869 13.806 6.263 15.767 13.591l.496 1.838-35.736 9.576-.496-1.838a18.469 18.469 0 017.275-19.954 9.532 9.532 0 01-4.593-5.872c-1.36-5.091 1.672-10.343 6.76-11.707 5.092-1.36 10.342 1.671 11.707 6.76zM738.677 216.07c-7.41 1.981-12.05 9.19-11.018 16.599l.05.327 28.927-7.75c-2.706-7.122-10.446-11.19-17.96-9.176zm509.507-21.832l9.683 36.147a1.692 1.692 0 01-1.059 2.025l-.14.043a1.699 1.699 0 01-2.072-1.198l-9.683-36.142a1.699 1.699 0 011.198-2.073c.899-.241 1.831.3 2.073 1.198zm501.257 26.083c-3.257.874-5.195 4.232-4.324 7.48a6.114 6.114 0 007.484 4.324 6.115 6.115 0 004.325-7.485 6.116 6.116 0 00-7.485-4.32zm222.905-6.266c-1.111 0-2.237.126-3.361.388l-.482.12a14.637 14.637 0 00-10.763 16.12l28.143-7.539a14.624 14.624 0 00-13.537-9.09zm-717.088-21.715l9.683 36.146a1.695 1.695 0 01-1.06 2.03l-.139.043a1.699 1.699 0 01-2.073-1.198l-9.683-36.147a1.699 1.699 0 011.199-2.073c.898-.241 1.831.3 2.073 1.199zm23.062-5.895l9.683 36.147a1.699 1.699 0 01-1.06 2.029l-.139.044a1.699 1.699 0 01-2.072-1.199l-9.683-36.146a1.699 1.699 0 011.198-2.073c.899-.242 1.831.3 2.073 1.198zm7.001-2.16l9.683 36.147a1.695 1.695 0 01-1.059 2.029l-.14.044a1.699 1.699 0 01-2.072-1.199l-9.683-36.146a1.699 1.699 0 011.198-2.073c.899-.242 1.831.3 2.073 1.198zm653.404-8.548c5.352 3.089 9.28 8.449 11.06 15.093a25.546 25.546 0 01.48 11.221l2.918 10.882-10.458 2.803c-2.952 2.45-6.388 4.253-9.943 5.215-2.532.679-5.01 1.006-7.39 1.006-10.697 0-19.436-6.613-22.408-17.705-1.79-6.68-1.067-13.44 2.034-19.036 3.132-5.649 8.496-9.735 15.105-11.505 6.644-1.781 13.25-1.063 18.602 2.026zm-525.461-14.285l.037.119 4.885 18.23c.8 2.971-.615 6.03-3.225 7.412l-.22.111 7.987 29.812a1.209 1.209 0 01-.855 1.484 1.208 1.208 0 01-1.445-.737l-.038-.118-7.987-29.813a6.501 6.501 0 01-6.68-4.547l-.07-.246-4.885-18.23a1.209 1.209 0 01.855-1.484 1.208 1.208 0 011.445.737l.038.119 4.885 18.23a4.077 4.077 0 003.57 3.002l.199.013-5.89-21.98a1.209 1.209 0 01.855-1.483 1.208 1.208 0 011.445.737l.039.118 5.89 21.98a4.078 4.078 0 001.804-4.282l-.05-.212-4.886-18.23a1.209 1.209 0 012.297-.742zm495.713 24.449c-2.061 2.852-2.9 6.47-3.108 7.51-.676 5.06-.013 8.373.304 9.562.442 1.65 1.617 6.03 7.511 11.229.184.116.413.28.69.48 2.275 1.643 7.602 5.49 17.6 3.174 2.922-.676 5.72-2.159 8.314-4.405l.411-.354 8.63-2.31-2.29-8.549.107-.547c.65-3.203.548-6.437-.303-9.615-2.3-8.59-9.808-14.831-18.686-15.536-.075.001-.174-.002-.303-.005-7.564-.182-14.092 3.06-18.877 9.366zM22.862 178.11a19.695 19.695 0 00-8.917 5.18l-.316.329-1.247 1.324-1.101-1.445a9.997 9.997 0 00-10.563-3.61 9.99 9.99 0 00-7.387 8.844l-.02.289-.029.56-4.45 4.764 6.827 1.701.314.333a10.002 10.002 0 009.935 2.866l.192-.057.19-.064 1.908-.633.29 1.788c.106.671.251 1.348.425 2 2.817 10.504 13.655 16.767 24.164 13.95 10.51-2.817 16.766-13.655 13.95-24.17-2.818-10.508-13.655-16.766-24.165-13.949zm1899.183 2.151l.098.505-.078.144c-.15.216-.169 1.316-.091 1.609.622.693.41 1.397.194 1.87-.188.411-.34.836-.501 1.286l-.141.39.75.576 1.756 1.352.246.19-.164.264c-.122.196-.235.395-.347.593-.251.444-.512.903-.857 1.294-.3.344-.307.617-.206 1.098.08.367-.029.876-.257 1.208a33.693 33.693 0 01-1.845 2.403l-.107.126c-.226.266-.46.54-.436.738.02.163.219.336.381.452l.393.279-.391.28c-.12.086-.227.21-.342.342-.307.353-.82.945-1.686.24-.44-.362-.756-.201-1.32.136-.163.097-.33.197-.505.274-.043.123-.083.462-.063.892.005.076.143.281.282.355.403.217.862.396 1.363.532.883.238 1.412.74 1.616 1.532.04.163.112.307.54.312.441.004.884.029 1.327.054.595.034 1.21.07 1.806.047 1.011-.035 1.77.283 2.37.998.973 1.165 2.195 1.778 3.733 1.873.728.047 1.096.388 1.275.665.281.434.306 1.021.07 1.654-.165.44-.33.877-.303 1.255.098 1.243-.33 2.128-1.309 2.705-.03.018-.07.056-.113.096a1.25 1.25 0 01-.252.198c-.193.111-.309.236-.34.368-.043.182.07.404.17.557.4.6.152 1.059-.144 1.429-.234.292-.452.599-.704.954-.124.174-.254.358-.397.555l-.008-.005c-.265.308-1.207.561-1.217.564-.247.06-.528.103-.824.103-.668 0-1.422-.218-2.076-.948-.349-.388-.507-.853-.66-1.304a5.423 5.423 0 00-.258-.662c-.05-.102-.102-.203-.154-.303-.404-.78-.897-1.734-.165-2.693-.153-.086-.31-.174-.468-.26-.459-.255-.934-.519-1.416-.708-.96-.381-1.423-.992-1.503-1.979-.049-.548-.207-1.117-.36-1.668-.048-.175-.097-.35-.143-.525-.155-.6-.798-1.145-1.464-1.238-.127-.018-.26-.027-.394-.037-.39-.027-.831-.058-1.172-.291-.37-.251-.764-.491-1.146-.724-1.24-.756-2.522-1.537-3.36-2.908l-.122-.202c-.305-.506-.685-1.137-1.162-1.481-.14-.1-.584-.13-.856-.114l-.38.023.015-.38c.304-8.001 5.716-14.77 13.465-16.845l.357-.095zm-457.567-6.53l7.913 29.532a1.594 1.594 0 01-1.127 1.953l-37.672 10.094a1.6 1.6 0 01-1.21-.16 1.596 1.596 0 01-.743-.967l-7.913-29.534a1.596 1.596 0 011.127-1.952l37.672-10.094a1.593 1.593 0 011.953 1.127zm-729.44 27.46c-3.257.875-5.194 4.234-4.324 7.48a6.115 6.115 0 007.484 4.325 6.115 6.115 0 004.325-7.484 6.116 6.116 0 00-7.485-4.32zm726.773-25.096l-34.593 9.269 7.088 26.454 34.593-9.269-7.088-26.454zM70.721 189.668c-1.25 1.643-5.087 5.88-12.89 3.005-.767 1.154-3.573 3.673-7.04 4.454a22.88 22.88 0 01-4.912 14.161l33.854-9.072-9.011-12.548zm1895.638 9.824c-.499 0-1 .066-1.494.198a5.703 5.703 0 00-3.49 2.678 5.709 5.709 0 00-.579 4.358 5.71 5.71 0 002.68 3.492c1.332.77 2.881.973 4.361.576a5.708 5.708 0 003.492-2.68c.77-1.331.974-2.88.577-4.36a5.707 5.707 0 00-2.68-3.488 5.719 5.719 0 00-2.867-.774zm-1422.052-25l4.508.004.227.788c.396 1.372.952 2.266 1.484 2.401.53.13 1.4-.367 2.391-1.377l.595-.609 3.797 2.213-.068.696c-.072.778-.294 3.15.252 3.648.169.15.705.353 2.42.02l.74-.146 2.073 3.344-.537.609c-1.54 1.744-1.633 2.512-1.555 2.812.077.285.507.865 2.536 1.536l.75.252-.01 3.938-.662.28c-2.16.918-2.696 1.556-2.764 1.933-.048.27.082.932 1.526 2.328l.62.6-2.165 3.667-.75-.14c-2.319-.425-3.058-.068-3.295.188-.212.227-.492.89-.004 2.798l.202.792-3.396 2.025-.595-.522c-1.671-1.474-2.444-1.46-2.7-1.387-.503.145-1 .952-1.407 2.28l-.227.764-4.508-.014-.227-.788c-.469-1.638-1.092-2.706-1.662-2.85-.444-.117-1.169.304-1.99 1.145l-.793.787-3.392-1.976.063-.691c.174-1.875.063-3.005-.324-3.353-.338-.305-1.261-.314-2.735-.02l-.74.145-2.082-3.343.537-.61c1.541-1.743 1.633-2.512 1.55-2.811-.077-.285-.507-.865-2.536-1.537l-.749-.246.005-3.938.662-.28c2.155-.918 2.691-1.561 2.764-1.938.048-.27-.082-.932-1.532-2.329l-.618-.594 2.145-3.648.749.116c2.329.42 3.068.063 3.305-.189.208-.227.488-.889 0-2.797l-.203-.788 3.397-2.03.594.523c1.178 1.034 2.16 1.546 2.7 1.382.503-.145 1.001-.957 1.402-2.286l.232-.778zm1388.69 6.506l.665.294a18.117 18.117 0 0110.244 11.953c1.472 5.504.218 11.48-3.353 15.982l-.093.117-1.588.134a3.393 3.393 0 01-.098.002c-1.507 0-2.05-.97-2.53-1.827l-.059-.104c-.224-.395-.398-.88.004-1.482a20.65 20.65 0 001.113-1.897c.08-.15.113-.327.1-.38-.115-.216-.23-.451-.347-.686-.673-1.366-1.309-2.656-2.848-3.192-.409-.141-.737-.604-.868-.974-.465-1.333-1.002-2.22-2.243-2.53-.427-.107-.66-.72-.722-1.03a20.033 20.033 0 01-.364-2.476c-.032-.42.11-.903.35-1.204.386-.488.808-.955 1.216-1.408.24-.266.48-.532.715-.805.073-.083.131-.163.167-.22-.107-.202-.189-.416-.268-.625-.227-.597-.393-.973-.914-1.15-.41-.138-.772-.614-.869-.977-.1-.375-.108-.762-.115-1.136-.004-.156-.006-.314-.016-.472l-.02-.306.302-.055c.208-.037.42-.06.629-.083.41-.045.8-.087 1.08-.245.616-.349.997-.762 1.134-1.227.041-.142-.057-.744-.21-1.289l-.195-.702zm-1385.781-4.313h-1.305c-.633 1.676-1.493 2.648-2.624 2.971-1.212.348-2.527-.072-4.121-1.324l-.672.402c.358 1.85.136 3.13-.695 4.024-.89.957-2.33 1.266-4.528.972l-.536.913c1.266 1.372 1.763 2.546 1.556 3.677-.232 1.27-1.252 2.251-3.388 3.252v.952c1.9.73 2.89 1.59 3.209 2.768.328 1.208-.135 2.513-1.493 4.204l.444.715c1.29-.203 2.832-.266 3.87.672 1.131 1.02 1.198 2.812 1.093 4.474l.758.44c1.286-1.165 2.513-1.61 3.657-1.32 1.277.31 2.248 1.484 2.968 3.561l1.299.005c.638-1.671 1.498-2.648 2.629-2.966 1.213-.348 2.526.077 4.121 1.333l.672-.4c-.353-1.851-.13-3.132.7-4.02.89-.958 2.334-1.267 4.528-.967l.536-.909c-1.266-1.377-1.758-2.546-1.546-3.677.237-1.27 1.257-2.251 3.392-3.247l.005-.952c-1.894-.734-2.89-1.594-3.203-2.773-.324-1.208.135-2.513 1.497-4.199l-.445-.72c-1.68.237-2.778.03-3.55-.667-1.059-.956-1.184-2.536-1.015-4.769l-1.16-.676c-1.377 1.213-2.677 1.677-3.86 1.377-1.204-.304-2.14-1.353-2.793-3.126zm251.51-10.316c4.3 16.051-5.745 32.735-22.395 37.2-1.189.319-3.305.875-4.378.333-.816-.415-.86-1.942-.357-2.705.666-1.01 2.6-.812 3.797-1.136 14.718-3.943 23.613-18.636 19.83-32.76-3.783-14.123-18.834-22.395-33.552-18.452-14.718 3.942-23.613 18.636-19.83 32.76.256.96 1.02 2.319.58 3.193-.41.817-2.044 1.228-2.803.725-.816-.536-1.019-2.015-1.28-2.976-4.3-16.052 5.745-32.736 22.396-37.2 16.65-4.46 33.692 4.967 37.992 21.018zm671.702-20.234l.039.118 14.524 54.198a1.209 1.209 0 01-.855 1.484 1.208 1.208 0 01-1.445-.737l-.039-.119-4.933-18.404c-4.672-.198-9.33-8.34-11.548-16.621-2.411-9.002-2.247-19.299 2.812-20.656a1.21 1.21 0 011.445.737zm-924 36.793c5.117.077 9.302 4.276 9.33 9.359.01 2.46-1.014 4.9-2.817 6.697-1.71 1.71-3.999 2.717-6.33 2.797l-.318.005h-.048c-5.272-.038-9.379-4.228-9.355-9.543.01-2.546.995-4.909 2.774-6.653 1.682-1.65 3.904-2.584 6.305-2.658l.329-.004h.13zm697.025-17.372c11.283 3.13 33.915 9.161 45.25 12.108.962.252.88 1.184.29 1.344l-35.622 9.547-1.802.483-.902.242-3.513.941c-14.437 3.87-28.695 7.69-38.326 10.269-.555.145-.951-.686-.396-1.242 3.823-3.839 9.42-9.45 15.14-15.197l1.375-1.38c6.189-6.22 12.37-12.448 16.467-16.622.493-.503 1.13-.744 2.04-.493zm-697.059 19.213h-.106c-.295 0-.594.014-.884.048a7.462 7.462 0 00-4.455 2.087c-1.425 1.397-2.213 3.296-2.223 5.349-.02 4.286 3.286 7.663 7.528 7.692 1.952.034 3.914-.792 5.383-2.261 1.455-1.454 2.286-3.416 2.276-5.383-.02-4.092-3.388-7.474-7.519-7.532zm695.929-16.275a2798.072 2798.072 0 01-11.432 11.544l-1.244 1.25-1.245 1.252c-4.563 4.584-9.04 9.072-12.09 12.132-.439.44-.125 1.092.31.976l27.49-7.368 1.65-.442.827-.222 3.281-.88c11.298-3.027 22.43-6.01 29.967-8.028.468-.126.531-.86-.222-1.053-8.934-2.324-26.783-7.079-35.683-9.548-.716-.198-1.223-.01-1.61.387zm-1180.03 9.43l-15.247 6.733a22.702 22.702 0 013.535 9.43l.128-.024.352-.085a7.33 7.33 0 004.783-4.059c.025-.053.054-.106.083-.16.091-.159.207-.299.343-.41a1.546 1.546 0 011.764-.155l.149.102a7.319 7.319 0 006.17 1.126 7.293 7.293 0 004.297-3.163l.158-.263-6.515-9.072zm712.414-14.792a9.17 9.17 0 01-1.328 7.605c7.51.4 14.27 5.481 16.466 13.05l.101.363.402 1.488-.078.02-.096.024-.132.033-.167.042c-1.956.491-9.69 2.446-17.858 4.688l-.893.245-.894.248-.777.216-.776.217-.774.218c-1.159.327-2.309.656-3.434.983-2.073.604-3.088-2.348-.943-2.943 2.32-.636 5.336-1.45 8.415-2.276l.711-.191.712-.19.71-.19.708-.19c6.116-1.635 11.705-3.113 11.705-3.113-2.706-7.123-10.446-11.191-17.96-9.176-6.57 1.764-9.939 5.86-10.127 12.336 0 0 .043 1.816-1.575 1.865-1.474.043-1.513-1.643-1.513-1.643.073-5.885 2.006-9.616 6.813-12.94a9.177 9.177 0 01-5.184-6.03c-1.31-4.9 1.604-9.949 6.503-11.263 4.9-1.31 9.95 1.604 11.263 6.504zM282.051 153.4l3.295 12.297-93.293 24.995-3.295-12.297L282.05 153.4zm-2.561 3.658l-87.215 23.367 1.774 6.61 87.214-23.367-1.773-6.61zm680.497-76.076c1.001 1.155 1.698 2.557 2.23 3.982.14.346.264.704.37 1.073.282.877.513 1.742.728 2.543l14.701 54.854c.086.323.157.645.212.969l4.412 16.464a10.477 10.477 0 01-1.064 7.997 10.466 10.466 0 01-6.394 4.918l-46.68 12.509c-.91.243-1.825.36-2.725.36-4.658 0-8.93-3.112-10.189-7.818-.041-.154-2.006-7.513-4.103-15.351l-.207-.773-.207-.774a16.617 16.617 0 01-.15-.524c-.084-.31-1.106-4.099-2.174-8.073l-.292-1.086c-.875-3.257-1.727-6.438-2.066-7.742a23.828 23.828 0 01-.348-1.326l-.005-.016h.002c-.201-.945-.1-1.34.437-1.88l.757-.763 1.037.284c1.057.29 1.233.99 1.583 2.383.02.085.05.2.087.34l.087.307v.002c.254.9 2.284 8.474 4.365 16.253l.211.791c.597 1.91 2.445 6.125 6.956 4.918l47.955-12.847c3.463-.928 5.624-4.316 5.11-7.783L959.08 87.169l-.025-.088a21.31 21.31 0 00-.246-.719c-1.218-2.986-4.39-4.458-7.859-3.53l-14.085 3.795-.904.243-.741.2-.74.2-.739.198-.734.198c-6.462 1.74-12.266 3.302-12.607 3.392-2.587.683-3.428-.29-3.677-1.228-.206-.776-.141-2.19 2.613-2.926l30.623-8.204c4.332-1.163 7.705-.396 10.028 2.282zm-903.234 85.04c-.485.055-2.67 3.497-4.936 7.28l-.324.542-.162.272-.606 1.023a511.955 511.955 0 00-4.567 7.922l-.021.035.071-.035c.869-.444 4.073-2.086 7.466-3.864l.705-.37.352-.185.705-.371c3.98-2.103 7.714-4.142 7.743-4.408.082-.734-5.494-7.953-6.426-7.842zm919.758-13.799a10.628 10.628 0 01-6.045 4.29L922.51 169.36c-2.052.55-4.01.401-5.734-.346l2.37 8.868c.977 3.653 4.745 5.83 8.404 4.852l46.68-12.51a6.81 6.81 0 004.157-3.201 6.817 6.817 0 00.695-5.204l-2.57-9.596zM42.475 139.987l-12.684 3.397 4.648 17.158-.028.28-1.403 14.107a23.007 23.007 0 0111.051 6.085l.334.339 8.853-16.019-5.91-8.233-4.861-17.114zm710.876 2.247c.255.962.82 2.344.381 3.218-.41.817-2.029 1.276-2.792.778-.817-.536-.837-2.092-1.092-3.054-3.784-14.118-18.835-22.395-33.552-18.452-14.718 3.942-23.614 18.636-19.83 32.76 3.783 14.118 18.834 22.395 33.552 18.452 1.198-.319 2.773-1.454 3.856-.913.811.4 1.541 1.749 1.039 2.512-.662 1-2.774 1.58-3.958 1.9-16.65 4.459-33.692-4.968-37.992-21.02-4.3-16.05 5.744-32.735 22.395-37.2 16.65-4.46 33.692 4.968 37.993 21.02zm715.212 6.266c-1.75 2.275-2.17 9.03-.053 16.925 2.077 7.75 5.718 13.33 8.36 14.566l.148.065-8.455-31.556zm-14.254 24.917l-3.237.875a3.576 3.576 0 00-4.373-2.527l-6.89 1.846a3.576 3.576 0 00-2.527 4.372l-3.233.865a6.93 6.93 0 014.895-8.475l6.89-1.845c3.687-.986 7.49 1.208 8.475 4.89zm-495.56-6.21a2.813 2.813 0 01-1.819 3.382l-.163.049-13.075 3.503a2.788 2.788 0 01-2.123-.283 2.785 2.785 0 01-1.307-1.698 2.773 2.773 0 01.283-2.124 2.783 2.783 0 011.698-1.306l13.075-3.504c1.49-.4 3.03.489 3.43 1.981zM271.686 139.49l3.296 12.297-80.914 21.68-3.295-12.297 80.913-21.68zm492.565 20.115a6.115 6.115 0 00-4.324 7.484 6.115 6.115 0 007.484 4.324 6.116 6.116 0 004.32-7.484c-.875-3.257-4.233-5.194-7.48-4.324zm-34.34-20.763a9.179 9.179 0 01-1.473 7.813c5.7.468 9.209 2.642 12.173 7.477l.196.327.025.048c.124.26.643 1.505-.513 2.13-1.43.769-2.3-.826-2.3-.826-3.401-5.517-8.369-7.378-14.94-5.619-7.513 2.015-12.18 9.403-10.968 16.926 0 0 6.703-1.82 13.466-3.631l.712-.19 1.065-.286c2.83-.756 5.569-1.483 7.718-2.044 2.16-.56 2.759 2.503.667 3.015-.633.155-1.273.314-1.916.475l-.775.194-.388.098-.779.197c-1.04.265-2.083.534-3.12.804l-.777.203-1.542.405-.764.203a915.132 915.132 0 00-15.814 4.353l-.005.002-.4-1.488c-2.083-7.77 1.236-15.738 7.639-19.903a9.17 9.17 0 01-4.953-5.924c-1.31-4.899 1.604-9.948 6.504-11.263 4.899-1.309 9.948 1.605 11.262 6.504zm712.657-20.295a15.005 15.005 0 016.692-3.822c8.108-2.174 16.471 2.653 18.646 10.766 2.141 7.999-2.535 16.252-10.455 18.554l-.31.087-.247.067 4.073 15.201-40.983 10.983-4.073-15.2-.247.067c-8.103 2.17-16.467-2.658-18.641-10.765-2.17-8.108 2.658-16.472 10.765-18.646a15.06 15.06 0 017.78-.02c.845-5.962 5.17-10.963 11.118-12.558 5.923-1.59 12.166.566 15.882 5.286zM269.13 143.152l-74.835 20.052 1.773 6.61 74.836-20.052-1.774-6.61zm1184.623 1.888l-34.707 9.301 3.233 12.06 34.707-9.3-3.233-12.06zm201.975-65.593l.045.01c.66.146 1.183.647 1.358 1.3l.691 2.582 4.636-1.24a1.812 1.812 0 012.22 1.282l15.206 56.75a1.812 1.812 0 01-1.282 2.22l-89.441 23.966a1.806 1.806 0 01-1.376-.182 1.81 1.81 0 01-.845-1.1l-15.206-56.755a1.812 1.812 0 011.283-2.22l5.627-1.509-.653-2.453a1.814 1.814 0 01.668-1.92c.9-.672 22.26-16.364 40.238-10.037.565.2.995.663 1.15 1.241l11.664 43.535a1.813 1.813 0 11-3.502.938l-11.41-42.586c-13.947-4.22-30.758 6.26-34.978 9.12l13.974 52.39c5.638-3.75 21.065-13.07 33.058-11.512 1.29.118 5.153.025 6.368-1.854.199-.307.486-.548.823-.689.796-.333 18.372-7.589 31.888-5.64l-13.14-49.042a1.448 1.448 0 01-.004-.013l-.005-.024-.86-3.208c-4.228-.72-20.009-2.729-28.183 5.652a1.814 1.814 0 01-2.596-2.531c4.54-4.655 11.655-7.242 20.575-7.48 6.348-.169 11.444.887 12.01 1.009zm5.917 6.623l-2.884.772 13.43 50.128a1.812 1.812 0 01-2.22 2.22c-11.479-3.08-29.01 3.488-32.067 4.694-2.82 3.532-8.74 3.059-9.433 2.99a1.165 1.165 0 01-.058-.007c-13.191-1.741-32.444 12.19-32.637 12.33a1.817 1.817 0 01-1.673.246 1.814 1.814 0 01-1.148-1.242l-13.376-50.147-3.873 1.039 14.267 53.252 85.94-23.027-14.268-53.248zm-1473.4 31.188l9.684 36.147a1.698 1.698 0 01-1.059 2.03l-.14.043a1.699 1.699 0 01-2.072-1.198l-9.683-36.147a1.699 1.699 0 011.198-2.073c.899-.241 1.831.3 2.073 1.198zm7.074-1.899l9.683 36.147a1.695 1.695 0 01-1.058 2.03l-.14.043a1.699 1.699 0 01-2.073-1.198l-9.683-36.147a1.699 1.699 0 011.199-2.073c.898-.241 1.83.3 2.072 1.198zm1232.202 1.043a11.963 11.963 0 00-8.86 11.329l-.001.301.014 2.474-2.275-.971a11.852 11.852 0 00-7.775-.556c-6.378 1.706-10.176 8.287-8.465 14.665 1.684 6.28 8.085 10.058 14.37 8.54l.294-.075.247-.068 40.983-10.982.247-.068c6.378-1.705 10.176-8.286 8.465-14.66-1.71-6.378-8.287-10.175-14.665-8.465a11.826 11.826 0 00-6.175 4.01l-.236.3-1.484 1.947-1.217-2.12c-2.701-4.697-8.239-7.002-13.467-5.601zm-481.939 1.366a9.513 9.513 0 01-1.18 7.607c7.514.869 13.806 6.263 15.767 13.591l.496 1.838-35.736 9.576-.496-1.838a18.469 18.469 0 017.275-19.954 9.532 9.532 0 01-4.593-5.872c-1.36-5.091 1.672-10.343 6.76-11.707 5.092-1.36 10.342 1.671 11.707 6.76zm-727.398-8.53l9.683 36.146a1.692 1.692 0 01-1.059 2.025l-.14.043a1.699 1.699 0 01-2.072-1.198l-9.683-36.142a1.699 1.699 0 011.198-2.073c.899-.241 1.831.3 2.073 1.198zM719.44 135.32c-3.257.874-5.195 4.232-4.324 7.48a6.114 6.114 0 007.484 4.324 6.115 6.115 0 004.325-7.485 6.116 6.116 0 00-7.485-4.32zm222.905-6.266c-1.111 0-2.237.126-3.361.388l-.482.12a14.637 14.637 0 00-10.763 16.12l28.143-7.539a14.624 14.624 0 00-13.537-9.09zm-717.088-21.715l9.683 36.146a1.695 1.695 0 01-1.06 2.03l-.139.043a1.699 1.699 0 01-2.073-1.198l-9.683-36.147a1.699 1.699 0 011.199-2.073c.898-.241 1.831.3 2.073 1.199zm23.062-5.895l9.683 36.147a1.699 1.699 0 01-1.06 2.029l-.139.044a1.699 1.699 0 01-2.072-1.199l-9.683-36.146a1.699 1.699 0 011.198-2.073c.899-.242 1.831.3 2.073 1.198zm7.001-2.16l9.683 36.147a1.695 1.695 0 01-1.059 2.029l-.14.044a1.699 1.699 0 01-2.072-1.199l-9.683-36.146a1.699 1.699 0 011.198-2.073c.899-.242 1.831.3 2.073 1.198zm653.404-8.548c5.352 3.089 9.28 8.449 11.06 15.093a25.546 25.546 0 01.48 11.221l2.918 10.882-10.458 2.803c-2.952 2.45-6.388 4.253-9.943 5.215-2.532.679-5.01 1.006-7.39 1.006-10.697 0-19.436-6.613-22.408-17.705-1.79-6.68-1.067-13.44 2.034-19.036 3.132-5.649 8.496-9.735 15.105-11.505 6.644-1.781 13.25-1.063 18.602 2.026zM383.264 76.451l.037.119 4.885 18.23c.8 2.971-.615 6.03-3.225 7.412l-.22.111 7.987 29.812a1.209 1.209 0 01-.855 1.484 1.208 1.208 0 01-1.445-.737l-.038-.118-7.987-29.813a6.501 6.501 0 01-6.68-4.547l-.07-.246-4.885-18.23a1.209 1.209 0 01.855-1.484 1.208 1.208 0 011.445.737l.038.119 4.885 18.23a4.077 4.077 0 003.57 3.002l.199.013-5.89-21.98a1.209 1.209 0 01.855-1.483 1.208 1.208 0 011.445.737l.039.118 5.89 21.98a4.078 4.078 0 001.804-4.282l-.05-.212-4.886-18.23a1.209 1.209 0 012.297-.742zM878.977 100.9c-2.061 2.852-2.9 6.47-3.108 7.51-.676 5.06-.013 8.373.304 9.562.442 1.65 1.617 6.03 7.511 11.229.184.116.413.28.69.48 2.275 1.643 7.602 5.49 17.6 3.174 2.922-.676 5.72-2.159 8.314-4.405l.411-.354 8.63-2.31-2.29-8.549.107-.547c.65-3.203.548-6.437-.303-9.615-2.3-8.59-9.808-14.831-18.686-15.536-.075.001-.174-.002-.303-.005-7.564-.182-14.092 3.06-18.877 9.366zm13.068-5.639l.098.505-.078.144c-.15.216-.169 1.316-.091 1.609.622.693.41 1.397.194 1.87-.188.411-.34.836-.501 1.286l-.141.39.75.576 1.756 1.352.246.19-.164.264a16.56 16.56 0 00-.347.593c-.251.444-.512.903-.857 1.294-.3.344-.307.617-.206 1.098.08.367-.029.876-.257 1.208a33.69 33.69 0 01-1.845 2.403l-.107.126c-.226.266-.46.54-.436.738.02.163.219.336.381.452l.393.279-.391.28c-.12.086-.227.21-.342.342-.307.353-.82.945-1.686.24-.44-.362-.756-.201-1.32.136-.163.097-.33.197-.505.274-.043.123-.083.462-.063.892.005.076.143.281.282.355.403.217.862.396 1.363.532.883.238 1.412.74 1.616 1.532.04.163.112.307.54.312.441.004.884.029 1.327.054.595.034 1.21.07 1.806.047 1.011-.035 1.77.283 2.37.998.973 1.165 2.195 1.778 3.733 1.873.728.047 1.096.388 1.275.665.281.434.306 1.021.07 1.654-.165.44-.33.877-.303 1.255.098 1.243-.33 2.128-1.309 2.705-.03.018-.07.056-.113.096a1.25 1.25 0 01-.252.198c-.193.111-.309.236-.34.368-.043.182.07.404.17.557.4.6.152 1.059-.144 1.429-.234.292-.452.599-.704.954-.124.174-.254.358-.397.555l-.008-.005c-.265.308-1.207.561-1.217.564-.247.06-.528.103-.824.103-.668 0-1.422-.218-2.076-.948-.349-.388-.507-.853-.66-1.304a5.421 5.421 0 00-.258-.662c-.05-.102-.102-.203-.154-.303-.404-.78-.897-1.734-.165-2.693a63.25 63.25 0 00-.468-.26c-.459-.255-.934-.519-1.416-.708-.96-.381-1.423-.992-1.503-1.979-.049-.548-.207-1.117-.36-1.668-.048-.175-.097-.35-.143-.525-.155-.6-.798-1.145-1.464-1.238-.127-.018-.26-.027-.394-.037-.39-.027-.831-.058-1.172-.291-.37-.251-.764-.491-1.146-.724-1.24-.756-2.522-1.537-3.36-2.908l-.122-.202c-.305-.506-.685-1.137-1.162-1.481-.14-.1-.584-.13-.856-.114l-.38.023.015-.38c.304-8.001 5.716-14.77 13.465-16.845l.357-.095zm-457.567-6.53l7.913 29.532a1.594 1.594 0 01-1.127 1.953l-37.672 10.094a1.6 1.6 0 01-1.21-.16 1.596 1.596 0 01-.743-.967l-7.913-29.534a1.596 1.596 0 011.127-1.952l37.673-10.094a1.593 1.593 0 011.952 1.127zm688.125-24.972l.05.165 3.03 11.301a2.842 2.842 0 01-1.84 3.42l-.166.05-6.387 1.705a2.835 2.835 0 01-3.42-1.835l-.05-.165-.014-.058-5.3 1.42 10.774 40.22a5.624 5.624 0 01-3.971 6.876 5.618 5.618 0 01-6.813-3.75l-.063-.217-10.775-40.22-6.238 1.672a5.565 5.565 0 01-4.334-.604 5.578 5.578 0 01-2.585-3.532c-.674-2.847 1.094-5.8 3.958-6.688l.217-.062 6.866-1.836a5.616 5.616 0 013.928-3.846 5.625 5.625 0 015.14 1.193l.185.17 6.093-1.634-.107-.401a2.842 2.842 0 011.84-3.42l.166-.05 6.397-1.715a2.842 2.842 0 013.42 1.84zM431.811 91.095l-34.593 9.269 7.088 26.454 34.593-9.269-7.088-26.454zm504.548 23.397c-.399 0-.8.042-1.197.127l-.298.072a5.703 5.703 0 00-3.488 2.677 5.709 5.709 0 00-.58 4.358 5.71 5.71 0 002.68 3.492c1.332.77 2.881.973 4.361.576a5.708 5.708 0 003.492-2.68c.77-1.331.974-2.88.577-4.36a5.707 5.707 0 00-2.68-3.488 5.719 5.719 0 00-2.867-.774zm-33.363-18.494l.666.294a18.117 18.117 0 0110.244 11.953c1.472 5.504.218 11.48-3.353 15.982l-.093.117-1.588.134a3.392 3.392 0 01-.098.002c-1.507 0-2.05-.97-2.53-1.827l-.059-.104c-.224-.395-.398-.88.004-1.482a20.65 20.65 0 001.113-1.897c.08-.15.113-.327.1-.38-.115-.216-.23-.451-.347-.686-.673-1.366-1.309-2.656-2.848-3.192-.409-.141-.737-.604-.868-.974-.465-1.333-1.002-2.22-2.243-2.53-.427-.107-.66-.72-.722-1.03a20.032 20.032 0 01-.364-2.476c-.032-.42.11-.903.35-1.204.386-.488.808-.955 1.216-1.408.24-.266.48-.532.715-.805.073-.083.131-.163.167-.22-.107-.202-.189-.416-.268-.625-.227-.597-.393-.973-.913-1.15-.412-.138-.773-.614-.87-.977-.1-.375-.108-.762-.115-1.136-.004-.156-.007-.314-.016-.472l-.02-.306.302-.055c.208-.037.42-.06.629-.083.41-.045.8-.087 1.08-.245.616-.349.997-.762 1.134-1.227.041-.142-.057-.744-.21-1.289l-.195-.702zm189.478-58.248c1.058.265 1.797 1.058 2.14 1.71 2.203 4.228 4.136 7.939 5.76 11.06.077.092.15.193.203.304 1.908 3.793 2.401 4.711 2.884 5.6.488.909.952 1.769 2.716 5.272a1.451 1.451 0 01-2.585 1.32l-.009-.017c-.131-.254-1.84-3.551-4.809-9.266-3.416 2.667-8.248 6.224-12.934 9.678-4.934 3.629-10.017 7.374-13.457 10.08 5.692 11.291 12.427 24.69 16.65 33.093l.315.628c3.14 6.614 1.942 10.562-4.504 14.389-1.55.918-3.053 1.797-4.653 2.227-1.802.484-3.628.56-5.344.198-2.594-.546-4.735-2.043-6.025-4.218-2.435-4.107-2.3-10.775 5.334-14.461.044-.025.078-.068.121-.087 4.59-1.928 7.456-2.474 10.021-1.58-4.353-8.596-10.838-21.53-14.746-29.334l-.3-.6a1.1 1.1 0 01-.072-.173c-2.31-4.58-4.422-8.76-6.089-12.05-1.058-2.088-.033-3.243.976-4.016 1.79-1.366 6.062-4.61 10.663-8.076l.749-.563.376-.283.942-.708.358-.27.717-.538c5.127-3.848 10.06-7.51 11.886-8.75 1.112-.758 2.092-.724 2.716-.57zm27.27 27.217l-5.914 1.585.841 3.136-11.05 2.962-.619-.89a2.536 2.536 0 00-2.73-1.004 2.529 2.529 0 00-1.84 2.057l-.02.175-.092 1.082-8.842 2.368c-1.397.372-2.28 1.75-1.972 3.063.16.677.57 1.242 1.165 1.595a2.512 2.512 0 001.751.316l.201-.046 9.214-2.469 11.572 43.197a2.53 2.53 0 004.923-1.148l-.038-.162-11.572-43.196 11.258-3.015.75 2.793 5.913-1.585-2.899-10.814zm3.948 18.637c.193.73 2.64 9.864 5.09 19.006l.294 1.096.109.404.216.807 4.486 16.742c.406 1.517-2 1.788-2.31.618-.309-1.169-9.711-36.248-10.195-38.055-.483-1.807 1.919-2.078 2.31-.618zm654.01 2.55a39.607 39.607 0 004.842 5.224c13.587 12.224 50.69 24.647 57.29 26.792 2.498-2.73 11.254-12.355 22.391-25.459a1.672 1.672 0 012.358-.193c.705.6.792 1.657.193 2.358-13.23 15.563-23.11 26.247-23.212 26.353a1.516 1.516 0 01-.783.483c-.3.082-.623.077-.936-.02-1.793-.565-44.134-13.963-59.538-27.826a42.8 42.8 0 01-5.252-5.663 1.675 1.675 0 012.647-2.048zm-701.801 21.512c-5.75 2.648-6.436 7.528-4.581 10.659.87 1.469 2.339 2.488 4.126 2.86 2.45.517 5.137-.372 7.702-1.942 5.823-3.556 5.885-6.765 3.726-10.51-1.088-2.058-5.233-4.217-10.973-1.067zm78.202-15.138c.208.604 5.06 14.896 1.508 21.579-.918 1.73-2.3 2.855-4.112 3.339-1.87.502-3.687.212-5.397-.86-6.484-4.054-9.398-18.743-9.519-19.366a1.45 1.45 0 011.049-1.677l14.722-3.943a1.454 1.454 0 011.75.928zM440.428 61.135l.039.118 14.524 54.198a1.209 1.209 0 01-.855 1.484 1.208 1.208 0 01-1.445-.737l-.039-.119-4.933-18.404c-4.672-.198-9.33-8.34-11.548-16.621-2.411-9.002-2.247-19.299 2.812-20.656a1.21 1.21 0 011.445.737zm-226.975 19.42c11.283 3.132 33.915 9.162 45.25 12.11.962.25.88 1.183.29 1.343l-35.622 9.547-1.802.483-.902.242-3.513.941c-14.437 3.87-28.695 7.69-38.326 10.269-.555.145-.951-.686-.396-1.242 3.823-3.839 9.42-9.45 15.14-15.197l1.375-1.38c6.189-6.22 12.37-12.448 16.467-16.622.493-.503 1.13-.744 2.04-.493zM1151.77 94.76l-12.056 3.233c1.063 4.6 3.866 13.601 7.93 16.138 1.014.633 2.033.802 3.106.517 1.01-.27 1.764-.894 2.295-1.899 2.223-4.184.116-13.442-1.275-17.989zM212.323 83.494a2797.584 2797.584 0 01-11.432 11.544l-1.244 1.25-1.245 1.252c-4.563 4.584-9.04 9.072-12.09 12.132-.439.44-.125 1.092.31.976l27.809-7.454 1.624-.435 1.627-.436 2.188-.586 29.967-8.029c.469-.126.531-.86-.222-1.053a3002.233 3002.233 0 01-16.574-4.378l-1.708-.456-1.353-.362a2035.434 2035.434 0 01-16.048-4.352c-.716-.198-1.223-.01-1.61.387zM438.563 63.5c-1.75 2.275-2.17 9.03-.053 16.925 2.077 7.75 5.718 13.33 8.36 14.566l.148.065-8.455-31.556zm-14.254 24.917l-3.237.875a3.576 3.576 0 00-4.373-2.527l-6.89 1.846a3.576 3.576 0 00-2.527 4.372l-3.233.865a6.93 6.93 0 014.895-8.475l6.89-1.845c3.687-.986 7.49 1.208 8.475 4.89zm703.398-72.628l6.678 5.015c.266.199.454.484.541.803l17.738 66.326a1.482 1.482 0 01-1.044 1.812l-14.297 3.865a1.48 1.48 0 01-1.72-2.063l2.232-4.701-4.141-2.957a1.478 1.478 0 01-.377-2.015l2.798-4.267-4.45-3.174a1.478 1.478 0 01-.377-2.015l3.097-4.72-3.914-2.794a1.478 1.478 0 01-.377-2.014l2.348-3.58-4.242-3.03a1.478 1.478 0 01-.377-2.015l3.624-5.523-5.035-3.595a1.478 1.478 0 01-.377-2.015l3.01-4.59-4.749-3.392a1.48 1.48 0 01-.377-2.015l3.547-5.402-5.296-3.778a1.478 1.478 0 01-.377-2.015l3.788-5.779a1.475 1.475 0 012.126-.372zm719.124-11.408c.898 3.344.11 6.755-1.841 9.316 14.954-.16 29.566 12.215 34.432 30.358v.005c5.57 20.796-3.74 41.428-20.758 46.004-.005-.005-.014-.005-.024 0-14.987 4.016-31.024-5.726-38.462-22.291l-7.155 1.92-3.711 11.495a2.296 2.296 0 01-1.875 1.565c-.88.121-1.73-.26-2.222-1l-11.07-16.66-2.532 10.475-19.859 5.32c-.86.237-1.69-.203-1.928-1.063-.236-.86.083-1.672 1.146-1.957l17.945-4.807 2.595-10.833a2.295 2.295 0 014.14-.73l11.181 16.83 3.643-11.293 8.47-2.28a47.94 47.94 0 01-1.313-4.146c-3.673-13.708-.88-27.343 6.32-36.355 2.333-2.923 5.126-5.353 8.315-7.15-2.971-1.247-5.359-3.803-6.252-7.147-1.537-5.735 1.879-11.654 7.62-13.196 5.734-1.536 11.653 1.88 13.195 7.62zM1127.185 19.09l-2.145 3.271 5.296 3.779c.647.459.811 1.353.377 2.015l-3.547 5.402 4.75 3.392a1.48 1.48 0 01.377 2.014l-3.01 4.59 5.034 3.596c.648.459.812 1.352.377 2.014l-3.624 5.523 4.243 3.03c.647.459.811 1.353.376 2.015l-2.348 3.58 3.914 2.793a1.48 1.48 0 01.377 2.015l-3.097 4.72 4.45 3.175c.647.459.811 1.353.377 2.015l-2.793 4.28 3.99 2.851c.586.416.784 1.194.48 1.841l-1.388 2.914 9.77-2.648-17.225-64.408-5.01-3.769zm730.542.904c-.14 20.878-13.96 39.838-34.466 47.09 6.925 14.859 21.246 23.575 34.582 20l.058-.015c15.355-4.155 23.676-23.081 18.544-42.225-3.054-11.394-10.195-20.337-18.718-24.85zM1291.607-32.5l62.819 36.268c.763.44 1.029 1.42.584 2.188a1.576 1.576 0 01-.97.75 1.6 1.6 0 01-1.073-.085l-.145-.075-10.867-6.272 16.592 61.968-77.077 20.71-8.735-32.599a1.51 1.51 0 01-.704-.37c-2.607-2.436-6.708-2.298-9.141.307-2.436 2.607-2.297 6.709.308 9.142l10.616 9.924a9.433 9.433 0 013.005 6.622 9.445 9.445 0 01-2.55 6.811 9.477 9.477 0 01-12.251 1.395 9.502 9.502 0 01-6.408 2.458c-2.331 0-4.665-.84-6.477-2.533l-9.714-9.081 3.609-3.861-3.554-3.322a1.52 1.52 0 012.072-2.219l3.554 3.322 1.615-1.728-3.554-3.323a1.52 1.52 0 01-.073-2.145 1.52 1.52 0 012.145-.074l3.554 3.323 3.61-3.861 9.71 9.087a9.491 9.491 0 011.804 11.572 6.455 6.455 0 008.134-1.078 6.427 6.427 0 001.736-4.635 6.42 6.42 0 00-2.044-4.506l-10.697-10.008c-3.67-3.519-3.903-9.34-.566-13.138l.197-.216c2.863-3.066 7.298-3.808 10.919-2.144l-6.862-25.608-6.615 11.457a1.603 1.603 0 01-2.844-1.467l.07-.138 36.268-62.818zm-879.04 66.047a15.005 15.005 0 016.693-3.822c8.108-2.174 16.471 2.653 18.646 10.766 2.141 7.999-2.535 16.252-10.455 18.554l-.31.087-.247.067 4.073 15.201-40.983 10.983-4.073-15.2-.247.067c-8.103 2.17-16.467-2.658-18.641-10.765-2.17-8.108 2.658-16.472 10.765-18.646a15.06 15.06 0 017.78-.02c.845-5.962 5.17-10.963 11.118-12.558 5.923-1.59 12.166.566 15.882 5.286zm839.975 31.884l-8.832 9.45 7.496 7.01c1.646 1.54 3.53 2.08 5.598 1.6 1.645-.38 3.02-1.35 3.544-1.91 1.129-1.212 3.247-5.818-.31-9.14l-7.496-7.01zm-828.79-5.39l-34.706 9.3 3.233 12.06 34.707-9.3-3.233-12.06zM625.729-5.554l.045.01c.66.146 1.183.647 1.358 1.3l.691 2.582 4.636-1.24a1.812 1.812 0 012.22 1.282l15.206 56.75a1.812 1.812 0 01-1.282 2.22L559.16 81.317a1.806 1.806 0 01-1.376-.182 1.81 1.81 0 01-.845-1.1L541.734 23.28a1.812 1.812 0 011.283-2.22l5.627-1.509-.653-2.453a1.814 1.814 0 01.668-1.92c.9-.672 22.26-16.364 40.238-10.037.565.2.995.663 1.15 1.241l11.664 43.535a1.813 1.813 0 11-3.502.938L586.799 8.27c-13.947-4.22-30.758 6.26-34.978 9.12l13.974 52.39c5.638-3.75 21.065-13.07 33.058-11.512 1.29.118 5.153.025 6.368-1.854.199-.307.486-.548.823-.689.239-.1 1.988-.823 4.684-1.733l.552-.185c6.393-2.116 17.461-5.047 26.652-3.722L624.792 1.04a1.863 1.863 0 01-.004-.012l-.005-.024-.86-3.208c-4.228-.72-20.009-2.729-28.183 5.652a1.814 1.814 0 01-2.596-2.531c4.54-4.655 11.655-7.242 20.575-7.48 6.348-.169 11.444.887 12.01 1.009zm667.053-22.565l-25.666 45.1 16.621 62.041 70.907-19.008-16.612-62.007-45.25-26.126zM631.645 1.07l-2.885.772 13.432 50.128a1.812 1.812 0 01-2.221 2.22c-11.479-3.08-29.01 3.488-32.067 4.694-2.82 3.532-8.74 3.059-9.433 2.99a1.165 1.165 0 01-.058-.007c-13.191-1.741-32.444 12.19-32.637 12.33a1.817 1.817 0 01-1.673.246 1.814 1.814 0 01-1.148-1.242l-13.376-50.147-3.873 1.039 14.267 53.252 85.94-23.027L631.644 1.07zm667.087 52.335c.348.234.578.607.63 1.023l1.966 15.737a1.45 1.45 0 01-1.064 1.581l-9.693 2.595a1.45 1.45 0 01-1.711-.837l-6.165-14.612a1.45 1.45 0 01.96-1.964l13.892-3.72a1.45 1.45 0 011.185.197zm-2.042 3.035l-10.675 2.859 5.027 11.913 7.251-1.941-1.603-12.831zM1091.39 40.716c-3.595 2.45-20.641 15.336-25.56 19.1-.116.083-.193.15-.242.199.02.048.049.116.092.198 1.488 2.942 3.34 6.61 5.373 10.634 2.858-2.23 6.679-5.065 10.59-7.95l1.857-1.369.618-.455.564-.415 1.127-.83c4.322-3.186 8.597-6.354 11.602-8.714-1.542-2.962-3.339-6.416-5.368-10.31-.044-.078-.184-.218-.276-.242-.058-.015-.193.029-.377.154zm721.646-7.735c.768.512.976 1.55.464 2.324a1.677 1.677 0 01-2.324.464c-5.765-3.837-15.582-6.567-29.595 2.237-9.586 6.02-14.056 17.771-11.664 30.667a1.656 1.656 0 01-1.203 1.918l-.13.03a1.674 1.674 0 01-1.953-1.339c-2.647-14.273 2.402-27.348 13.177-34.113 15.53-9.755 26.643-6.57 33.228-2.188zm-510.066-19.268l9.509 35.49 4.8-1.287a1.45 1.45 0 011.777 1.025l4.12 15.385a1.45 1.45 0 11-2.801.75l-3.746-13.983-3.399.912 3.748 13.983a1.45 1.45 0 11-2.802.75l-3.747-13.982-3.372.906 3.746 13.984a1.45 1.45 0 11-2.802.75l-4.122-15.384a1.45 1.45 0 011.025-1.776l4.774-1.282-9.51-35.49a1.45 1.45 0 112.802-.751zm-905.45 17.689a11.963 11.963 0 00-8.86 11.329l-.001.301.014 2.474-2.275-.971a11.852 11.852 0 00-7.775-.556c-6.378 1.706-10.176 8.287-8.465 14.665 1.684 6.28 8.085 10.058 14.37 8.54l.294-.075.247-.068 40.983-10.982.247-.068c6.378-1.705 10.176-8.286 8.465-14.66-1.71-6.378-8.287-10.175-14.665-8.465a11.826 11.826 0 00-6.175 4.01l-.236.3-1.484 1.947-1.217-2.12c-2.701-4.697-8.239-7.002-13.467-5.601zm1441.695-13.835c-5.219 1.401-9.625 4.504-12.974 8.741-6.523 8.258-9.016 20.83-5.623 33.494.393 1.476.86 2.916 1.385 4.306l.12.026.115.037.407-.145c19.51-7.093 32.476-25.459 31.983-45.454-4.962-1.932-10.262-2.387-15.413-1.005zm29.165 33.166c.957 3.58-1.179 7.281-4.764 8.238-3.58.962-7.277-1.174-8.239-4.76a1.541 1.541 0 011.092-1.888 1.538 1.538 0 011.89 1.091 3.65 3.65 0 004.46 2.58 3.653 3.653 0 002.58-4.464 1.54 1.54 0 011.091-1.89 1.54 1.54 0 011.89 1.093zM92.603-21.241l.05.165 3.03 11.301a2.842 2.842 0 01-1.84 3.42l-.166.05L87.29-4.6a2.835 2.835 0 01-3.42-1.835l-.05-.165-.014-.058-5.3 1.42 10.774 40.22a5.624 5.624 0 01-3.971 6.876 5.618 5.618 0 01-6.813-3.75l-.063-.217-10.775-40.22L61.42-.657a5.565 5.565 0 01-4.334-.604 5.578 5.578 0 01-2.585-3.532c-.674-2.847 1.094-5.8 3.958-6.688l.217-.062 6.866-1.836a5.616 5.616 0 013.928-3.846 5.625 5.625 0 015.14 1.193l.185.17 6.093-1.634-.107-.401a2.842 2.842 0 011.84-3.42l.166-.05 6.397-1.715a2.842 2.842 0 013.42 1.84zm-30.13-26.01c1.059.266 1.798 1.059 2.141 1.711 2.203 4.228 4.136 7.939 5.76 11.06.077.092.15.193.203.304 1.908 3.793 2.401 4.711 2.884 5.6l.089.166.09.168c.44.822.987 1.86 2.537 4.938a1.451 1.451 0 01-2.585 1.32l-.019-.037c-.193-.373-1.892-3.65-4.799-9.246-2.97 2.32-7.011 5.311-11.096 8.323l-1.226.904-.612.451c-4.934 3.629-10.017 7.374-13.457 10.08 1.265 2.509 2.581 5.122 3.91 7.762l.799 1.586.4.794.8 1.589c3.994 7.938 7.926 15.76 10.741 21.362l.315.628c3.14 6.614 1.942 10.562-4.504 14.389-1.55.918-3.053 1.797-4.653 2.227-1.802.484-3.628.56-5.344.198-2.594-.546-4.735-2.043-6.025-4.218-2.435-4.107-2.3-10.775 5.334-14.461.044-.025.078-.068.121-.087 4.59-1.928 7.456-2.474 10.021-1.58-4.353-8.596-10.838-21.53-14.746-29.334l-.3-.6a1.1 1.1 0 01-.072-.173c-2.31-4.58-4.422-8.76-6.089-12.05-1.058-2.088-.033-3.243.976-4.016 1.79-1.366 6.062-4.61 10.663-8.076l.749-.563.376-.283.942-.708.358-.27.717-.538c5.127-3.848 10.06-7.51 11.886-8.75 1.112-.758 2.092-.724 2.716-.57zm27.271 27.218l-5.914 1.585.84 3.136-11.05 2.962-.618-.89a2.536 2.536 0 00-2.73-1.004 2.529 2.529 0 00-1.84 2.057l-.02.175-.092 1.082-8.842 2.368c-1.397.372-2.28 1.75-1.972 3.063.16.677.57 1.242 1.165 1.595a2.512 2.512 0 001.751.316l.201-.046 9.214-2.469L81.41 37.094a2.53 2.53 0 004.923-1.148l-.038-.162L74.722-7.412l11.258-3.015.75 2.793 5.913-1.585-2.899-10.814zm3.948 18.637c.165.621 1.965 7.342 4.01 14.971l.212.792.213.798.215.8.44 1.645.33 1.227.218.816c2.256 8.417 4.37 16.304 4.557 17.006.406 1.517-2 1.788-2.31.618-.154-.584-2.582-9.646-5.032-18.788l-.44-1.645-.219-.815L91.382-.778c-.483-1.807 1.919-2.078 2.31-.618zm654.01 2.55a39.608 39.608 0 004.842 5.224c13.587 12.224 50.69 24.647 57.29 26.792 2.498-2.73 11.254-12.355 22.391-25.459a1.672 1.672 0 012.358-.193c.705.6.792 1.657.193 2.358-13.23 15.563-23.11 26.247-23.212 26.353a1.516 1.516 0 01-.783.483c-.3.082-.623.077-.936-.02-1.793-.565-44.134-13.963-59.538-27.826a42.8 42.8 0 01-5.252-5.663 1.675 1.675 0 012.647-2.048zM45.901 22.667c-5.75 2.648-6.436 7.528-4.581 10.659.87 1.469 2.339 2.488 4.126 2.86 2.45.517 5.137-.372 7.702-1.942 5.823-3.556 5.885-6.765 3.726-10.51-1.088-2.058-5.233-4.217-10.973-1.067zm78.202-15.138c.208.604 5.06 14.896 1.508 21.579-.918 1.73-2.3 2.855-4.112 3.339-1.87.502-3.687.212-5.397-.86-6.484-4.054-9.398-18.743-9.519-19.366a1.45 1.45 0 011.049-1.677L122.354 6.6a1.454 1.454 0 011.75.928zM121.77 9.76l-12.056 3.233c1.063 4.6 3.866 13.601 7.93 16.138 1.014.633 2.033.802 3.106.517 1.01-.27 1.764-.894 2.295-1.899 2.223-4.184.116-13.442-1.275-17.989zM1834.437-.267c-4.097 1.097-6.537 5.32-5.44 9.417 1.096 4.098 5.324 6.538 9.422 5.44 4.097-1.096 6.532-5.324 5.436-9.416-1.097-4.103-5.32-6.538-9.418-5.441zM97.707-69.211l6.678 5.015c.266.199.454.484.541.803l17.738 66.326a1.482 1.482 0 01-1.044 1.812L107.323 8.61a1.48 1.48 0 01-1.72-2.063l2.232-4.701-4.141-2.957a1.478 1.478 0 01-.377-2.015l2.798-4.267-4.45-3.174a1.478 1.478 0 01-.377-2.015l3.097-4.72-3.914-2.794a1.478 1.478 0 01-.377-2.014l2.348-3.58-4.242-3.03a1.478 1.478 0 01-.377-2.015l3.624-5.523-5.035-3.595a1.478 1.478 0 01-.377-2.015l3.01-4.59-4.749-3.392a1.48 1.48 0 01-.377-2.015l3.547-5.402-5.296-3.778a1.478 1.478 0 01-.377-2.015l3.788-5.779a1.475 1.475 0 012.126-.372zm719.124-11.408c.898 3.344.11 6.755-1.841 9.316 14.954-.16 29.566 12.215 34.432 30.358v.005c5.57 20.796-3.74 41.428-20.758 46.004-.005-.005-.014-.005-.024 0-14.987 4.016-31.025-5.726-38.462-22.291l-7.155 1.92-3.711 11.495a2.296 2.296 0 01-1.875 1.565c-.88.121-1.73-.26-2.222-1l-11.07-16.66-2.532 10.475-19.859 5.32c-.86.237-1.69-.203-1.928-1.063-.236-.86.083-1.672 1.146-1.957l17.945-4.807 2.595-10.833a2.295 2.295 0 014.14-.73l11.181 16.83 3.643-11.293 8.47-2.281a47.94 47.94 0 01-1.313-4.145c-3.673-13.708-.88-27.343 6.32-36.355 2.333-2.923 5.126-5.353 8.315-7.15-2.971-1.247-5.359-3.803-6.252-7.147-1.537-5.735 1.879-11.654 7.619-13.196 5.735-1.536 11.654 1.88 13.196 7.62zM97.185-65.91L95.04-62.64l5.296 3.779c.647.459.811 1.353.377 2.015l-3.547 5.402 4.75 3.392a1.48 1.48 0 01.377 2.014l-3.01 4.59 5.034 3.596c.648.459.812 1.352.377 2.014l-3.624 5.523 4.243 3.03c.647.459.811 1.353.376 2.015l-2.348 3.58 3.914 2.793a1.48 1.48 0 01.377 2.015l-3.097 4.72 4.45 3.175c.647.459.811 1.353.377 2.015l-2.793 4.28 3.99 2.851c.586.416.784 1.194.48 1.841l-1.388 2.914 9.77-2.648-17.225-64.408-5.01-3.769zm730.542.904c-.14 20.878-13.96 39.838-34.466 47.09 6.925 14.859 21.246 23.575 34.582 20l.058-.015c15.355-4.155 23.676-23.081 18.544-42.225-3.054-11.394-10.195-20.337-18.718-24.85zM261.607-117.5l62.819 36.268c.763.44 1.029 1.42.584 2.188a1.576 1.576 0 01-.97.75 1.6 1.6 0 01-1.073-.085l-.145-.075-10.867-6.272 16.592 61.968-77.077 20.71-8.735-32.599a1.51 1.51 0 01-.704-.37c-2.607-2.436-6.708-2.298-9.141.307-2.436 2.607-2.297 6.709.308 9.142l10.616 9.924a9.433 9.433 0 013.005 6.622 9.445 9.445 0 01-2.55 6.811 9.477 9.477 0 01-12.251 1.395 9.502 9.502 0 01-6.408 2.458c-2.331 0-4.665-.84-6.477-2.533l-9.714-9.081 3.609-3.861-3.554-3.322a1.52 1.52 0 012.072-2.219l3.554 3.322 1.615-1.728-3.554-3.323a1.52 1.52 0 01-.073-2.145 1.52 1.52 0 012.145-.074l3.554 3.323 3.61-3.861 9.71 9.087a9.491 9.491 0 011.804 11.572 6.455 6.455 0 008.134-1.078 6.427 6.427 0 001.736-4.635 6.42 6.42 0 00-2.044-4.506L231.04-23.428c-3.67-3.519-3.903-9.34-.566-13.138l.197-.216c2.863-3.066 7.298-3.808 10.919-2.144l-6.862-25.608-6.615 11.457a1.603 1.603 0 01-2.844-1.467l.07-.138 36.268-62.818zm-39.065 97.931l-8.832 9.45 7.496 7.01c1.646 1.54 3.53 2.08 5.598 1.6 1.645-.38 3.02-1.35 3.544-1.91 1.129-1.212 3.247-5.818-.31-9.14l-7.496-7.01zm40.24-93.549l-25.667 45.1 16.621 62.041 70.907-19.008-16.612-62.007-45.25-26.126zm5.95 81.523c.348.234.578.607.63 1.023l1.966 15.737a1.45 1.45 0 01-1.064 1.581l-9.693 2.595a1.45 1.45 0 01-1.711-.837l-6.165-14.612a1.45 1.45 0 01.96-1.964l13.892-3.72a1.45 1.45 0 011.185.197zm-2.042 3.035l-10.675 2.859 5.027 11.913 7.251-1.941-1.603-12.831zM61.39-44.284c-3.595 2.45-20.641 15.336-25.56 19.1-.116.083-.193.15-.242.199.02.048.049.116.092.198 1.488 2.942 3.34 6.61 5.373 10.634 2.858-2.23 6.679-5.065 10.59-7.95l1.857-1.369.618-.455.564-.415 1.127-.83c4.322-3.186 8.597-6.354 11.602-8.714-1.542-2.962-3.339-6.416-5.368-10.31-.044-.078-.184-.218-.276-.242-.058-.015-.193.029-.377.154zm721.646-7.735c.768.512.976 1.55.464 2.324a1.677 1.677 0 01-2.324.464c-5.765-3.837-15.582-6.567-29.595 2.237-9.586 6.02-14.056 17.771-11.664 30.667a1.656 1.656 0 01-1.203 1.918l-.13.03a1.674 1.674 0 01-1.953-1.339c-2.647-14.273 2.402-27.348 13.177-34.113 15.53-9.755 26.643-6.57 33.228-2.188zM272.971-71.287l9.51 35.49 4.799-1.287a1.45 1.45 0 011.777 1.025l4.12 15.385a1.45 1.45 0 11-2.801.75l-3.746-13.983-3.399.912 3.748 13.983a1.45 1.45 0 11-2.802.75l-3.747-13.982-3.372.906 3.746 13.984a1.45 1.45 0 11-2.802.75l-4.122-15.384a1.45 1.45 0 011.025-1.776l4.775-1.282-9.51-35.49a1.45 1.45 0 112.801-.751zm536.245 3.854c-5.219 1.401-9.625 4.504-12.974 8.741-6.523 8.258-9.016 20.83-5.623 33.494a44.97 44.97 0 001.385 4.306l.12.026.115.037.407-.145c19.51-7.093 32.476-25.459 31.983-45.454-4.962-1.932-10.262-2.387-15.413-1.005zm29.165 33.166c.957 3.58-1.179 7.281-4.764 8.238-3.58.962-7.277-1.174-8.239-4.76a1.541 1.541 0 011.092-1.888 1.538 1.538 0 011.89 1.091 3.65 3.65 0 004.46 2.58 3.653 3.653 0 002.58-4.464 1.54 1.54 0 011.091-1.89 1.54 1.54 0 011.89 1.093zm165.234-98.51l5.547 19.52 4.739 6.597.383-.692a1.548 1.548 0 011.964-.669l.133.065c.368.202 2.903 3.063 5.426 6.011l.503.59c2.427 2.85 4.707 5.621 4.87 5.991.323.732.03 1.58-.65 1.967l-.133.067-2.229.984 19.672 27.398-42.067 11.271 6.48 11.613c.324.732.035 1.58-.65 1.967l-.132.067a1.545 1.545 0 01-1.975-.65l-.064-.128-6.528-11.577a22.691 22.691 0 01-14.876 3.18l-.537-.078-1.527 14.892a1.54 1.54 0 01-1.503 1.58 1.538 1.538 0 01-1.57-1.363l-.01-.14 1.513-15.674c-7.306-2.213-13.341-8.03-15.457-15.93l-.16-.643c-4.143.793-8.4-.454-11.471-3.366l-.26-.253L942-72.93l7.282-7.789a13.07 13.07 0 019.644-11.369 13.039 13.039 0 0112.669 3.407 22.79 22.79 0 019.47-5.18 22.67 22.67 0 017.9-.691l1.358-13.64-5.31-19.598 18.602-4.987zM981.862-90.89a19.695 19.695 0 00-8.917 5.18l-.316.329-1.247 1.324-1.101-1.445a9.997 9.997 0 00-10.563-3.61 9.99 9.99 0 00-7.387 8.844l-.02.289-.029.56-4.45 4.764 6.827 1.701.314.333a10.002 10.002 0 009.935 2.866l.192-.057.19-.064 1.908-.633.29 1.788c.106.671.251 1.348.425 2 2.817 10.504 13.655 16.767 24.164 13.95 10.51-2.817 16.766-13.655 13.95-24.17-2.818-10.508-13.655-16.766-24.165-13.949zm47.86 11.558c-1.252 1.643-5.088 5.88-12.892 3.005-.766 1.154-3.572 3.673-7.04 4.454a22.88 22.88 0 01-4.912 14.161l33.855-9.072-9.011-12.548zm-225.285-5.935c-4.097 1.097-6.537 5.32-5.44 9.417 1.096 4.098 5.324 6.538 9.422 5.44 4.097-1.096 6.532-5.324 5.436-9.416-1.097-4.103-5.32-6.538-9.418-5.441zm216.856-5.809l-15.247 6.733a22.702 22.702 0 013.535 9.431l.128-.025.352-.085a7.33 7.33 0 004.783-4.059c.025-.053.054-.106.083-.16.091-.159.207-.299.343-.41a1.546 1.546 0 011.764-.155l.149.102a7.319 7.319 0 006.17 1.126 7.293 7.293 0 004.297-3.163l.158-.263-6.515-9.072zm-5.54-11.903c-.485.056-2.67 3.498-4.936 7.28l-.324.543-.162.272-.405.682a471.849 471.849 0 00-3.171 5.456l-.544.952c-.548.96-.928 1.633-1.053 1.855l-.021.035.071-.035c2.008-1.026 16.478-8.444 16.959-9.17l.012-.028c.082-.734-5.494-7.953-6.426-7.842zm-14.278-26.034l-12.684 3.397 4.648 17.158-.028.28-1.403 14.107a23.007 23.007 0 0111.051 6.085l.334.339 8.853-16.019-5.91-8.233-4.861-17.114z"/>
</svg>
