<svg xmlns="http://www.w3.org/2000/svg" xmlns:xlink="http://www.w3.org/1999/xlink"><defs><symbol viewBox="0 0 24 24" id="all-topics">
  <path fill-rule="evenodd" d="M19,31 L19,37 L13,37 L13,31 L19,31 Z M28,31 L28,37 L22,37 L22,31 L28,31 Z M37,31 L37,37 L31,37 L31,31 L37,31 Z M19,22 L19,28 L13,28 L13,22 L19,22 Z M28,22 L28,28 L22,28 L22,22 L28,22 Z M37,22 L37,28 L31,28 L31,22 L37,22 Z M19,13 L19,19 L13,19 L13,13 L19,13 Z M28,13 L28,19 L22,19 L22,13 L28,13 Z M37,13 L37,19 L31,19 L31,13 L37,13 Z" transform="translate(-13 -13)" />
</symbol><symbol fill="currentColor" class="bi bi-arrow-down" viewBox="0 0 16 16" id="arrow-down">
  <path fill-rule="evenodd" d="M8 1a.5.5 0 0 1 .5.5v11.793l3.146-3.147a.5.5 0 0 1 .708.708l-4 4a.5.5 0 0 1-.708 0l-4-4a.5.5 0 0 1 .708-.708L7.5 13.293V1.5A.5.5 0 0 1 8 1z" />
</symbol><symbol viewBox="0 0 15 10" id="arrow-left">
  <g stroke="none" stroke-width="1" fill="currentColor" fill-rule="evenodd">
      <g id="arrow-left_arrow-left" transform="translate(7.500000, 5.000000) rotate(-180.000000) translate(-7.500000, -5.000000) ">
          <path d="M0,5 C0,4.72385763 0.223857625,4.5 0.5,4.5 L12.293,4.5 L9.146,1.354 C8.95049121,1.1584912 8.95049122,0.841508812 9.14600002,0.646000017 C9.34150881,0.450491222 9.6584912,0.450491214 9.854,0.646 L13.854,4.646 C13.9480417,4.73980426 14.0008938,4.86717274 14.0008938,5 C14.0008938,5.13282726 13.9480417,5.26019574 13.854,5.354 L9.854,9.354 C9.6584912,9.54950879 9.34150881,9.54950878 9.14600001,9.35399999 C8.95049122,9.15849119 8.95049121,8.8415088 9.146,8.646 L12.293,5.5 L0.5,5.5 C0.223857625,5.5 0,5.27614237 0,5 Z" id="arrow-left_Shape" />
      </g>
  </g>
</symbol><symbol fill="currentColor" class="bi bi-arrow-right" viewBox="0 0 16 16" id="arrow-right">
  <path fill-rule="evenodd" d="M1 8a.5.5 0 0 1 .5-.5h11.793l-3.147-3.146a.5.5 0 0 1 .708-.708l4 4a.5.5 0 0 1 0 .708l-4 4a.5.5 0 0 1-.708-.708L13.293 8.5H1.5A.5.5 0 0 1 1 8z" />
</symbol><symbol viewBox="0 0 13 18" id="arrow-up"><path fill-rule="nonzero" d="M1.914 7.914L.5 6.5 6.707.293 12.914 6.5 11.5 7.914 7.707 4.122v13.085h-2V4.122z" /></symbol><symbol viewBox="0 0 18 20" id="attachment"><path d="M10.302 18.236a6.058 6.058 0 01-8.546 0 5.995 5.995 0 010-8.478l8.496-8.438a4.556 4.556 0 016.414 0 4.466 4.466 0 010 6.36L8.87 15.416a3 3 0 01-4.272 0 2.998 2.998 0 010-4.25L9.54 6.27a.5.5 0 01.71 0l.541.53a.5.5 0 010 .71l-4.943 4.9a1.26 1.26 0 001.781 1.77l7.795-7.73a2.736 2.736 0 000-3.889 2.783 2.783 0 00-3.923 0L2.987 11a4.245 4.245 0 000 5.998 4.325 4.325 0 006.054 0l5.654-5.609a.51.51 0 01.72 0l.531.53a.482.482 0 010 .7l-5.644 5.618z" fill-rule="evenodd" /></symbol><symbol viewBox="0 0 12 12" id="chevron">
  <polygon fill-rule="evenodd" points="10 6 4.262 12 3 10.68 7.476 6 3 1.32 4.262 0" />
</symbol><symbol fill="currentColor" class="bi bi-clipboard-check" viewBox="0 0 16 16" id="clipboard-check">
  <path fill-rule="evenodd" d="M10.854 7.146a.5.5 0 0 1 0 .708l-3 3a.5.5 0 0 1-.708 0l-1.5-1.5a.5.5 0 1 1 .708-.708L7.5 9.793l2.646-2.647a.5.5 0 0 1 .708 0z" />
  <path d="M4 1.5H3a2 2 0 0 0-2 2V14a2 2 0 0 0 2 2h10a2 2 0 0 0 2-2V3.5a2 2 0 0 0-2-2h-1v1h1a1 1 0 0 1 1 1V14a1 1 0 0 1-1 1H3a1 1 0 0 1-1-1V3.5a1 1 0 0 1 1-1h1v-1z" />
  <path d="M9.5 1a.5.5 0 0 1 .5.5v1a.5.5 0 0 1-.5.5h-3a.5.5 0 0 1-.5-.5v-1a.5.5 0 0 1 .5-.5h3zm-3-1A1.5 1.5 0 0 0 5 1.5v1A1.5 1.5 0 0 0 6.5 4h3A1.5 1.5 0 0 0 11 2.5v-1A1.5 1.5 0 0 0 9.5 0h-3z" />
</symbol><symbol viewBox="0 0 16 16" id="close">
  <path fill-rule="evenodd" d="M20.6568542,2.92893219 L22.0710678,4.34314575 L16.4139322,9.99993219 L22.0710678,15.6568542 L20.6568542,17.0710678 L14.9999322,11.4139322 L9.34314575,17.0710678 L7.92893219,15.6568542 L13.5849322,9.99993219 L7.92893219,4.34314575 L9.34314575,2.92893219 L14.9999322,8.58493219 L20.6568542,2.92893219 Z" transform="translate(-7 -2)" />
</symbol><symbol viewBox="0 0 24 24" id="collapse-close"><path d="M12 0c6.627 0 12 5.373 12 12s-5.373 12-12 12S0 18.627 0 12 5.373 0 12 0zm.043 9.122l-5.165 4.59 1.329 1.495 3.836-3.41 3.835 3.41 1.329-1.495-5.164-4.59z" fill-rule="evenodd" /></symbol><symbol viewBox="0 0 24 24" id="collapse-open"><path d="M12 0c6.627 0 12 5.373 12 12s-5.373 12-12 12S0 18.627 0 12 5.373 0 12 0zm0 2.1c-5.468 0-9.9 4.432-9.9 9.9s4.432 9.9 9.9 9.9 9.9-4.432 9.9-9.9-4.432-9.9-9.9-9.9zm3.878 7.022l1.329 1.495-5.164 4.59-5.165-4.59 1.329-1.495 3.836 3.41 3.835-3.41z" fill-rule="evenodd" /></symbol><symbol fill="currentColor" class="bi bi-dash-circle" viewBox="0 0 16 16" id="dash-circle">
  <path d="M8 15A7 7 0 1 1 8 1a7 7 0 0 1 0 14zm0 1A8 8 0 1 0 8 0a8 8 0 0 0 0 16z" />
  <path d="M4 8a.5.5 0 0 1 .5-.5h7a.5.5 0 0 1 0 1h-7A.5.5 0 0 1 4 8z" />
</symbol><symbol fill="currentColor" class="bi bi-dash-circle-fill" viewBox="0 0 16 16" id="dash-circle-fill">
  <path d="M16 8A8 8 0 1 1 0 8a8 8 0 0 1 16 0zM4.5 7.5a.5.5 0 0 0 0 1h7a.5.5 0 0 0 0-1h-7z" />
</symbol><symbol viewBox="0 0 10 6" id="dropdown">
  <polygon fill-rule="evenodd" points="5 0 10 6 0 6" transform="rotate(-180 5 3)" />
</symbol><symbol fill="currentColor" class="bi bi-at" viewBox="0 0 16 16" id="email">
  <path d="M13.106 7.222c0-2.967-2.249-5.032-5.482-5.032-3.35 0-5.646 2.318-5.646 5.702 0 3.493 2.235 5.708 5.762 5.708.862 0 1.689-.123 2.304-.335v-.862c-.43.199-1.354.328-2.29.328-2.926 0-4.813-1.88-4.813-4.798 0-2.844 1.921-4.881 4.594-4.881 2.735 0 4.608 1.688 4.608 4.156 0 1.682-.554 2.769-1.416 2.769-.492 0-.772-.28-.772-.76V5.206H8.923v.834h-.11c-.266-.595-.881-.964-1.6-.964-1.4 0-2.378 1.162-2.378 2.823 0 1.737.957 2.906 2.379 2.906.8 0 1.415-.39 1.709-1.087h.11c.081.67.703 1.148 1.503 1.148 1.572 0 2.57-1.415 2.57-3.643zm-7.177.704c0-1.197.54-1.907 1.456-1.907.93 0 1.524.738 1.524 1.907S8.308 9.84 7.371 9.84c-.895 0-1.442-.725-1.442-1.914z" />
</symbol><symbol viewBox="0 0 7 7" id="external-link"><path d="M7 0v7H5V3.413L1.586 6.828.172 5.414 3.585 2H0V0h7z" fill-rule="evenodd" /></symbol><symbol fill="currentColor" class="bi bi-facebook" viewBox="0 0 16 16" id="facebook">
  <path d="M16 8.049c0-4.446-3.582-8.05-8-8.05C3.58 0-.002 3.603-.002 8.05c0 4.017 2.926 7.347 6.75 7.951v-5.625h-2.03V8.05H6.75V6.275c0-2.017 1.195-3.131 3.022-3.131.876 0 1.791.157 1.791.157v1.98h-1.009c-.993 0-1.303.621-1.303 1.258v1.51h2.218l-.354 2.326H9.25V16c3.824-.604 6.75-3.934 6.75-7.951z" />
</symbol><symbol viewBox="0 0 27 24" id="filter">
  <path fill-rule="evenodd" d="M7.87576326,15.5992738 C7.36017088,14.4508408 6.34453591,13.6051533 5.11995402,13.3044078 L5.11995402,3.00006021 C5.11995402,2.44731838 4.67269564,2.000075 4.11996881,2.000075 C3.56917696,2.000075 3.1199836,2.44733338 3.1199836,3.00006021 L3.1199836,13.3009078 C2.88170713,13.3614519 2.64733559,13.4415308 2.42079394,13.5391843 C0.823167576,14.2637736 -0.139718181,15.9180491 0.0165295079,17.6641233 C0.174732168,19.4101975 1.42080874,20.865226 3.1199836,21.2890697 L3.1199836,24.9999648 C3.1199836,25.5527066 3.56919696,25.99995 4.11996881,25.99995 C4.67271064,25.99995 5.11995402,25.5526916 5.11995402,24.9999648 L5.11995402,21.2949196 C6.43633455,20.9746143 7.50661872,20.0234384 7.9812617,18.7559072 C8.36992595,17.7324723 8.3328165,16.5957891 7.87579326,15.5997038 L7.87576326,15.5992738 Z M22.6196952,2.000075 C23.172422,2.000075 23.6196804,2.44731838 23.6196804,3.00006021 L23.6196804,3.00006021 L23.6196804,13.3044078 C24.8442623,13.6051533 25.8598972,14.4508408 26.3754896,15.5992738 C26.8325429,16.5957891 26.8696523,17.7324723 26.4809881,18.7559072 C26.0063451,20.0234384 24.9360609,20.9746143 23.6196804,21.2949196 L23.6196804,21.2949196 L23.6196804,24.9999648 C23.6196804,25.5526916 23.172437,25.99995 22.6196952,25.99995 C22.0689233,25.99995 21.61971,25.5527066 21.61971,24.9999648 L21.61971,24.9999648 L21.61971,21.2890697 C19.9205351,20.865226 18.6744585,19.4101975 18.5162559,17.6641233 C18.3600082,15.9180491 19.3228939,14.2637736 20.9205203,13.5391843 C21.147062,13.4415308 21.3814335,13.3614519 21.61971,13.3009078 L21.61971,13.3009078 L21.61971,3.00006021 C21.61971,2.44733338 22.0689033,2.000075 22.6196952,2.000075 Z M13.369602,1.99995 C13.9223288,1.99995 14.3695872,2.44719338 14.3695872,2.99993521 L14.3695872,2.99993521 L14.3695872,6.85927812 C14.5238849,6.90029252 14.6742727,6.94521185 14.8246605,6.99990104 C16.3988122,7.57981246 17.4613065,9.05634062 17.5159957,10.7321158 C17.5687449,12.407891 16.6019592,13.9488683 15.0707318,14.6305082 C14.8461452,14.7320667 14.6117786,14.8121455 14.3695922,14.8687846 L14.3695922,14.8687846 L14.3695922,24.9996348 C14.3695922,25.5523616 13.9223488,25.99962 13.369607,25.99962 C12.8188351,25.99962 12.3696218,25.5523766 12.3696218,24.9996348 L12.3696218,24.9996348 L12.3696218,14.8747846 C12.219234,14.8337702 12.0649363,14.7888508 11.9145485,14.7341616 C10.8911137,14.3513673 10.0629909,13.5720788 9.61573252,12.5740436 C9.11376494,11.4607601 9.13136468,10.181479 9.66260683,9.08189525 C10.193849,7.98226151 11.1860343,7.17370347 12.3696168,6.87487789 L12.3696168,6.87487789 L12.3696168,2.99993521 C12.3696168,2.44720838 12.8188101,1.99995 13.369602,1.99995 Z M4.11606887,15.1753384 C4.9520065,15.1753384 5.7097953,15.6636529 6.05549018,16.4253616 C6.29376666,16.9351041 6.31720631,17.5210454 6.11994423,18.0503376 L6.11018937,18.0484376 L6.11018937,18.0503926 C5.86019307,18.7144328 5.29575142,19.2085755 4.60436165,19.3706731 C3.91297187,19.5308257 3.18643262,19.3355136 2.66884028,18.8511307 C2.15124793,18.3648079 1.90910151,17.6538985 2.02624978,16.9527088 C2.14148308,16.2535192 2.59849132,15.657828 3.24498175,15.3648323 C3.51841771,15.2398342 3.81527332,15.1734301 4.11606887,15.1753384 Z M22.6157952,15.1753801 C22.3149997,15.1753801 22.0181441,15.2398342 21.7447081,15.3648323 C21.0982177,15.657828 20.6412094,16.2535192 20.5259761,16.9527088 C20.4088279,17.6538985 20.6509743,18.3648079 21.1685666,18.8511307 C21.686159,19.3355136 22.4126982,19.5308257 23.104088,19.3706731 C23.7954778,19.2085755 24.3599194,18.7144328 24.6099157,18.0503926 L24.6099157,18.0503926 L24.6687928,17.8725687 C24.8040563,17.3937029 24.7652845,16.8801993 24.5552165,16.4253616 C24.2095217,15.6636529 23.4517329,15.1753801 22.6157952,15.1753801 Z M13.3852768,8.74987516 C12.6645874,8.74987516 11.9927224,9.11706973 11.6021031,9.72251077 C11.2095289,10.3299518 11.1528898,11.0916405 11.4497604,11.7498308 C11.8052051,12.5330242 12.5962434,13.0271619 13.4555807,12.9998123 C14.314918,12.9724627 15.0727218,12.4295207 15.3754523,11.6248326 C15.5707694,11.0955555 15.5453798,10.5096141 15.3051484,9.99987167 C15.0786017,9.48812924 14.6587079,9.08580519 14.1352657,8.88463816 C13.8950192,8.79674946 13.641133,8.74987516 13.3852768,8.74987516 Z" transform="translate(.248 -2)" />
</symbol><symbol viewBox="0 0 16 16" id="globe"><path d="M8.217.003a7.948 7.948 0 013.78 1.068c3.823 2.207 5.14 7.109 2.932 10.932-2.207 3.823-7.109 5.132-10.932 2.924C.174 12.72-1.135 7.826 1.073 4.003a8.004 8.004 0 017.144-4zm-.015.484a7.556 7.556 0 00-3.455.735c-.32.934-.376 1.94-.386 2.417-.018.83.367 1.356.727 1.94.515.834 1.572 1.312 1.697 1.939.242 1.212.351 2.912 1.697 2.91.58 0 .93-.417 1.212-.97.696-1.373.243-2.404.485-3.637.239-1.216 1.455-1.559 1.455-2.667 0-.647-.227-1.387-.546-2A7.474 7.474 0 008.202.487zM3.406 10.912c-.703.043-1.588.195-2.144.417a7.464 7.464 0 002.568 2.924c.297-.15.673-.373 1.03-.674 1.327-1.184.785-2.667-1.454-2.667z" fill-rule="evenodd" /></symbol><symbol fill="currentColor" class="bi bi-instagram" viewBox="0 0 16 16" id="instagram">
  <path d="M8 0C5.829 0 5.556.01 4.703.048 3.85.088 3.269.222 2.76.42a3.917 3.917 0 0 0-1.417.923A3.927 3.927 0 0 0 .42 2.76C.222 3.268.087 3.85.048 4.7.01 5.555 0 5.827 0 8.001c0 2.172.01 2.444.048 3.297.04.852.174 1.433.372 1.942.205.526.478.972.923 1.417.444.445.89.719 1.416.923.51.198 1.09.333 1.942.372C5.555 15.99 5.827 16 8 16s2.444-.01 3.298-.048c.851-.04 1.434-.174 1.943-.372a3.916 3.916 0 0 0 1.416-.923c.445-.445.718-.891.923-1.417.197-.509.332-1.09.372-1.942C15.99 10.445 16 10.173 16 8s-.01-2.445-.048-3.299c-.04-.851-.175-1.433-.372-1.941a3.926 3.926 0 0 0-.923-1.417A3.911 3.911 0 0 0 13.24.42c-.51-.198-1.092-.333-1.943-.372C10.443.01 10.172 0 7.998 0h.003zm-.717 1.442h.718c2.136 0 2.389.007 3.232.046.78.035 1.204.166 1.486.275.373.145.64.319.92.599.28.28.453.546.598.92.11.281.24.705.275 1.485.039.843.047 1.096.047 3.231s-.008 2.389-.047 3.232c-.035.78-.166 1.203-.275 1.485a2.47 2.47 0 0 1-.599.919c-.28.28-.546.453-.92.598-.28.11-.704.24-1.485.276-.843.038-1.096.047-3.232.047s-2.39-.009-3.233-.047c-.78-.036-1.203-.166-1.485-.276a2.478 2.478 0 0 1-.92-.598 2.48 2.48 0 0 1-.6-.92c-.109-.281-.24-.705-.275-1.485-.038-.843-.046-1.096-.046-3.233 0-2.136.008-2.388.046-3.231.036-.78.166-1.204.276-1.486.145-.373.319-.64.599-.92.28-.28.546-.453.92-.598.282-.11.705-.24 1.485-.276.738-.034 1.024-.044 2.515-.045v.002zm4.988 1.328a.96.96 0 1 0 0 1.92.96.96 0 0 0 0-1.92zm-4.27 1.122a4.109 4.109 0 1 0 0 8.217 4.109 4.109 0 0 0 0-8.217zm0 1.441a2.667 2.667 0 1 1 0 5.334 2.667 2.667 0 0 1 0-5.334z" />
</symbol><symbol fill="currentColor" class="bi bi-linkedin" viewBox="0 0 16 16" id="linkedin">
  <path d="M0 1.146C0 .513.526 0 1.175 0h13.65C15.474 0 16 .513 16 1.146v13.708c0 .633-.526 1.146-1.175 1.146H1.175C.526 16 0 15.487 0 14.854V1.146zm4.943 12.248V6.169H2.542v7.225h2.401zm-1.2-8.212c.837 0 1.358-.554 1.358-1.248-.015-.709-.52-1.248-1.342-1.248-.822 0-1.359.54-1.359 1.248 0 .694.521 1.248 1.327 1.248h.016zm4.908 8.212V9.359c0-.216.016-.432.08-.586.173-.431.568-.878 1.232-.878.869 0 1.216.662 1.216 1.634v3.865h2.401V9.25c0-2.22-1.184-3.252-2.764-3.252-1.274 0-1.845.7-2.165 1.193v.025h-.016a5.54 5.54 0 0 1 .016-.025V6.169h-2.4c.03.678 0 7.225 0 7.225h2.4z" />
</symbol><symbol fill="currentColor" class="bi bi-geo-alt" viewBox="0 0 16 16" id="location">
  <path d="M12.166 8.94c-.524 1.062-1.234 2.12-1.96 3.07A31.493 31.493 0 0 1 8 14.58a31.481 31.481 0 0 1-2.206-2.57c-.726-.95-1.436-2.008-1.96-3.07C3.304 7.867 3 6.862 3 6a5 5 0 0 1 10 0c0 .862-.305 1.867-.834 2.94zM8 16s6-5.686 6-10A6 6 0 0 0 2 6c0 4.314 6 10 6 10z" />
  <path d="M8 8a2 2 0 1 1 0-4 2 2 0 0 1 0 4zm0 1a3 3 0 1 0 0-6 3 3 0 0 0 0 6z" />
</symbol><symbol viewBox="0 0 32 32" id="menu"><path d="M2 6h28v6H2zm0 8h28v6H2zm0 8h28v6H2z" /></symbol><symbol fill="currentColor" class="bi bi-play-btn" viewBox="0 0 16 16" id="play">
  <path d="M6.79 5.093A.5.5 0 0 0 6 5.5v5a.5.5 0 0 0 .79.407l3.5-2.5a.5.5 0 0 0 0-.814l-3.5-2.5z" />
  <path d="M0 4a2 2 0 0 1 2-2h12a2 2 0 0 1 2 2v8a2 2 0 0 1-2 2H2a2 2 0 0 1-2-2V4zm15 0a1 1 0 0 0-1-1H2a1 1 0 0 0-1 1v8a1 1 0 0 0 1 1h12a1 1 0 0 0 1-1V4z" />
</symbol><symbol fill="currentColor" class="bi bi-plus-square-fill" viewBox="0 0 16 16" id="plus">
  <path d="M2 0a2 2 0 0 0-2 2v12a2 2 0 0 0 2 2h12a2 2 0 0 0 2-2V2a2 2 0 0 0-2-2H2zm6.5 4.5v3h3a.5.5 0 0 1 0 1h-3v3a.5.5 0 0 1-1 0v-3h-3a.5.5 0 0 1 0-1h3v-3a.5.5 0 0 1 1 0z" />
</symbol><symbol fill="currentColor" class="bi bi-plus-circle" viewBox="0 0 16 16" id="plus-circle">
  <path d="M8 15A7 7 0 1 1 8 1a7 7 0 0 1 0 14zm0 1A8 8 0 1 0 8 0a8 8 0 0 0 0 16z" />
  <path d="M8 4a.5.5 0 0 1 .5.5v3h3a.5.5 0 0 1 0 1h-3v3a.5.5 0 0 1-1 0v-3h-3a.5.5 0 0 1 0-1h3v-3A.5.5 0 0 1 8 4z" />
</symbol><symbol viewBox="0 0 16 16" id="reset">
  <path d="M8,0 C12.418278,0 16,3.581722 16,8 C16,12.418278 12.418278,16 8,16 C3.581722,16 0,12.418278 0,8 C0,3.581722 3.581722,0 8,0 Z M8,1 C4.13400675,1 1,4.13400675 1,8 C1,11.8659932 4.13400675,15 8,15 C11.8659932,15 15,11.8659932 15,8 C15,4.13400675 11.8659932,1 8,1 Z M5,4.49910622 C5.13282726,4.49910622 5.26019574,4.5519583 5.354,4.646 L8,7.293 L10.646,4.646 C10.772472,4.51952798 10.956809,4.47013504 11.129573,4.51642701 C11.302337,4.56271898 11.437281,4.69766302 11.483573,4.87042701 C11.529865,5.043191 11.480472,5.22752798 11.354,5.354 L8.707,8 L11.354,10.646 C11.480472,10.772472 11.529865,10.956809 11.483573,11.129573 C11.437281,11.302337 11.302337,11.437281 11.129573,11.483573 C10.956809,11.529865 10.772472,11.480472 10.646,11.354 L8,8.707 L5.354,11.354 C5.22752798,11.480472 5.043191,11.529865 4.87042701,11.483573 C4.69766302,11.437281 4.56271898,11.302337 4.51642701,11.129573 C4.47013504,10.956809 4.51952798,10.772472 4.646,10.646 L7.293,8 L4.646,5.354 C4.5519583,5.26019574 4.49910622,5.13282726 4.49910622,5 C4.49910622,4.86717274 4.5519583,4.73980426 4.646,4.646 C4.73980426,4.5519583 4.86717274,4.49910622 5,4.49910622 Z" />
</symbol><symbol viewBox="0 0 23 23" id="search">
  <path fill-rule="evenodd" d="M12.5355339,0 C18.0583814,0 22.5355339,4.4771525 22.5355339,10 C22.5355339,15.5228475 18.0583814,20 12.5355339,20 C10.134175,20 7.93050986,19.1535722 6.20661104,17.7427889 L1.41421356,22.5355339 L9.9475983e-14,21.1213203 L4.79192829,16.3279248 C3.3816351,14.6041735 2.53553391,12.4008955 2.53553391,10 C2.53553391,4.4771525 7.01268641,0 12.5355339,0 Z M12.5355339,2 C8.11725591,2 4.53553391,5.581722 4.53553391,10 C4.53553391,14.418278 8.11725591,18 12.5355339,18 C16.9538119,18 20.5355339,14.418278 20.5355339,10 C20.5355339,5.581722 16.9538119,2 12.5355339,2 Z" />
</symbol><symbol fill="currentColor" class="bi bi-tag-fill" viewBox="0 0 16 16" id="tag">
  <path d="M2 1a1 1 0 0 0-1 1v4.586a1 1 0 0 0 .293.707l7 7a1 1 0 0 0 1.414 0l4.586-4.586a1 1 0 0 0 0-1.414l-7-7A1 1 0 0 0 6.586 1H2zm4 3.5a1.5 1.5 0 1 1-3 0 1.5 1.5 0 0 1 3 0z" />
</symbol><symbol viewBox="0 0 24 24" id="topic">
  <path fill-rule="evenodd" d="M37,13 L37,37 L13,37 L13,13 L37,13 Z M33,32 L17,32 L17,34 L33,34 L33,32 Z M33,28 L17,28 L17,30 L33,30 L33,28 Z M33,24 L17,24 L17,26 L33,26 L33,24 Z M23,16 L17,16 L17,22 L23,22 L23,16 Z M33,20 L27,20 L27,22 L33,22 L33,20 Z M33,16 L27,16 L27,18 L33,18 L33,16 Z" transform="translate(-13 -13)" />
</symbol><symbol fill="currentColor" class="bi bi-twitter" viewBox="0 0 16 16" id="twitter">
  <path d="M5.026 15c6.038 0 9.341-5.003 9.341-9.334 0-.14 0-.282-.006-.422A6.685 6.685 0 0 0 16 3.542a6.658 6.658 0 0 1-1.889.518 3.301 3.301 0 0 0 1.447-1.817 6.533 6.533 0 0 1-2.087.793A3.286 3.286 0 0 0 7.875 6.03a9.325 9.325 0 0 1-6.767-3.429 3.289 3.289 0 0 0 1.018 4.382A3.323 3.323 0 0 1 .64 6.575v.045a3.288 3.288 0 0 0 2.632 3.218 3.203 3.203 0 0 1-.865.115 3.23 3.23 0 0 1-.614-.057 3.283 3.283 0 0 0 3.067 2.277A6.588 6.588 0 0 1 .78 13.58a6.32 6.32 0 0 1-.78-.045A9.344 9.344 0 0 0 5.026 15z" />
</symbol><symbol fill="currentColor" class="bi bi-youtube" viewBox="0 0 16 16" id="youtube">
  <path d="M8.051 1.999h.089c.822.003 4.987.033 6.11.335a2.01 2.01 0 0 1 1.415 1.42c.101.38.172.883.22 1.402l.01.104.022.26.008.104c.065.914.073 1.77.074 1.957v.075c-.001.194-.01 1.108-.082 2.06l-.008.105-.009.104c-.05.572-.124 1.14-.235 1.558a2.007 2.007 0 0 1-1.415 1.42c-1.16.312-5.569.334-6.18.335h-.142c-.309 0-1.587-.006-2.927-.052l-.17-.006-.087-.004-.171-.007-.171-.007c-1.11-.049-2.167-.128-2.654-.26a2.007 2.007 0 0 1-1.415-1.419c-.111-.417-.185-.986-.235-1.558L.09 9.82l-.008-.104A31.4 31.4 0 0 1 0 7.68v-.123c.002-.215.01-.958.064-1.778l.007-.103.003-.052.008-.104.022-.26.01-.104c.048-.519.119-1.023.22-1.402a2.007 2.007 0 0 1 1.415-1.42c.487-.13 1.544-.21 2.654-.26l.17-.007.172-.006.086-.003.171-.007A99.788 99.788 0 0 1 7.858 2h.193zM6.4 5.209v4.818l4.157-2.408L6.4 5.209z" />
</symbol></defs></svg>